%TF.GenerationSoftware,Altium Limited,Altium Designer,22.4.2 (48)*%
G04 Layer_Color=0*
%FSLAX45Y45*%
%MOMM*%
%TF.SameCoordinates,3C980A95-6889-48E8-A7F5-DB61C56FBEE1*%
%TF.FilePolarity,Positive*%
%TF.FileFunction,Plated,1,2,PTH,Drill*%
%TF.Part,Single*%
G01*
G75*
%TA.AperFunction,ComponentDrill*%
%ADD29C,0.80000*%
%ADD30C,1.10000*%
%ADD31C,1.20000*%
%ADD32C,0.80000*%
%ADD33C,0.90000*%
%ADD34C,0.76200*%
%ADD35C,1.20000*%
%ADD36C,0.80000*%
%ADD37C,1.34620*%
%ADD38C,0.90000*%
%ADD39C,1.34620*%
%TA.AperFunction,ViaDrill,NotFilled*%
%ADD40C,0.71120*%
%ADD41C,2.00000*%
D29*
X2070000Y-518000D02*
D03*
Y498000D02*
D03*
X-1830000Y1322000D02*
D03*
Y2338000D02*
D03*
X1340000Y-88000D02*
D03*
Y928000D02*
D03*
X-2310000Y1794000D02*
D03*
Y1286000D02*
D03*
X1430000Y-1408002D02*
D03*
Y-391998D02*
D03*
X3810000Y3911600D02*
D03*
Y4927600D02*
D03*
X4127500Y3898900D02*
D03*
Y4914900D02*
D03*
X4914900Y3009900D02*
D03*
Y3517900D02*
D03*
X4432300Y4914900D02*
D03*
Y3898900D02*
D03*
X3390900Y2984500D02*
D03*
Y3492500D02*
D03*
X4800600Y2324100D02*
D03*
Y1308100D02*
D03*
X3492500Y2324100D02*
D03*
Y1308100D02*
D03*
X3009900Y1308100D02*
D03*
Y2324100D02*
D03*
X2933700Y5130800D02*
D03*
Y4114800D02*
D03*
X1660000Y1238000D02*
D03*
Y222000D02*
D03*
D30*
X833999Y0D02*
D03*
Y339999D02*
D03*
X436001Y170002D02*
D03*
Y-170002D02*
D03*
X833999Y-339999D02*
D03*
D31*
X-316997Y1900000D02*
D03*
X-1363003D02*
D03*
D32*
X-2324000Y-230000D02*
D03*
X-1816000D02*
D03*
X495300Y-1790700D02*
D03*
X-520700D02*
D03*
X286000Y-1330000D02*
D03*
X794000D02*
D03*
X316000Y870000D02*
D03*
X824000D02*
D03*
X266000Y-870000D02*
D03*
X774000D02*
D03*
X316000Y1370000D02*
D03*
X824000D02*
D03*
X4479909Y631964D02*
D03*
X3971909D02*
D03*
X2425062Y570862D02*
D03*
X3441062D02*
D03*
X2475862Y-876938D02*
D03*
X3491862D02*
D03*
X2400300Y2654300D02*
D03*
X1892300D02*
D03*
X3989869Y-948561D02*
D03*
X4497870D02*
D03*
X889000Y3657600D02*
D03*
X381000D02*
D03*
X-1358900Y2882900D02*
D03*
X-1866900D02*
D03*
X-2006600Y3340100D02*
D03*
X-990600D02*
D03*
X-1003300Y3771900D02*
D03*
X-2019300D02*
D03*
X-965200Y5156200D02*
D03*
X-1981200D02*
D03*
X-152400Y5283200D02*
D03*
X355600D02*
D03*
X1524000Y4699000D02*
D03*
X2540000D02*
D03*
X1524000Y4445000D02*
D03*
X2540000D02*
D03*
X1524000Y4191000D02*
D03*
X2540000D02*
D03*
X-648000Y3120000D02*
D03*
X368000D02*
D03*
D33*
X-1980000Y296000D02*
D03*
X-2234000D02*
D03*
X-1980000Y550000D02*
D03*
X-2234000D02*
D03*
X-1980000Y804000D02*
D03*
X-2234000D02*
D03*
X1054100Y-1790700D02*
D03*
X1314099D02*
D03*
X794101D02*
D03*
X4571362Y215262D02*
D03*
X4317362D02*
D03*
X4063362D02*
D03*
X3809362D02*
D03*
X4571362Y-546738D02*
D03*
X4317362Y-546738D02*
D03*
X4063362Y-546738D02*
D03*
X3809362D02*
D03*
X-18699Y2133600D02*
D03*
X501299D02*
D03*
X241300D02*
D03*
X4838700Y4864100D02*
D03*
X5092700D02*
D03*
X4838700Y4610100D02*
D03*
X5092700D02*
D03*
X4838700Y4356100D02*
D03*
X5092700D02*
D03*
X-381000Y4076700D02*
D03*
X-127000D02*
D03*
X127000D02*
D03*
X381000D02*
D03*
X-381000Y4838700D02*
D03*
X-127000D02*
D03*
X127000D02*
D03*
X381000D02*
D03*
X-2370000Y2614000D02*
D03*
Y2360000D02*
D03*
X1181100Y4191000D02*
D03*
X927100D02*
D03*
X1181100Y4445000D02*
D03*
X927100D02*
D03*
X1181100Y4699000D02*
D03*
X927100D02*
D03*
D34*
X-2265100Y-1654900D02*
D03*
X-2100000Y-1820000D02*
D03*
X-2265100Y-1985100D02*
D03*
X-630000Y2735100D02*
D03*
X-795100Y2570000D02*
D03*
X-630000Y2404900D02*
D03*
D35*
X-1770000Y-606999D02*
D03*
Y-1653001D02*
D03*
D36*
X1870788Y-780788D02*
D03*
X2589212Y-1499212D02*
D03*
D37*
X2437762Y-165738D02*
D03*
X3453762Y-419738D02*
D03*
X3453762Y88262D02*
D03*
X-977900Y4711700D02*
D03*
Y4203700D02*
D03*
X-1993900Y4457700D02*
D03*
D38*
X4521200Y2768600D02*
D03*
Y3022600D02*
D03*
Y3276600D02*
D03*
Y3530600D02*
D03*
X3759200Y2768600D02*
D03*
Y3022600D02*
D03*
Y3276600D02*
D03*
Y3530600D02*
D03*
X1993900Y2184400D02*
D03*
X1739900D02*
D03*
X1485900D02*
D03*
X1231900D02*
D03*
X2222500Y3365500D02*
D03*
Y3111500D02*
D03*
X1968500Y3365500D02*
D03*
Y3111500D02*
D03*
X1714500Y3365500D02*
D03*
Y3111500D02*
D03*
X1460500Y3365500D02*
D03*
Y3111500D02*
D03*
D39*
X3886200Y2286000D02*
D03*
X4394200D02*
D03*
X4140200Y1270000D02*
D03*
D40*
X2540000Y3740000D02*
D03*
X1430000Y1820000D02*
D03*
X2550000Y2100000D02*
D03*
X1560000Y-1780000D02*
D03*
X3200000Y-1410000D02*
D03*
X1520000Y3720000D02*
D03*
X4890000Y2610000D02*
D03*
X1060000Y1100000D02*
D03*
X1110000Y-1040000D02*
D03*
X-2430000Y2920000D02*
D03*
X4152900Y3175000D02*
D03*
X876300Y5334000D02*
D03*
D41*
X-330000Y1270000D02*
D03*
Y-1270000D02*
D03*
%TF.MD5,c7e526a7daf0c5acf6b085dd2c73948c*%
M02*
