%TF.GenerationSoftware,Altium Limited,Altium Designer,22.4.2 (48)*%
G04 Layer_Physical_Order=2*
G04 Layer_Color=16711680*
%FSLAX45Y45*%
%MOMM*%
%TF.SameCoordinates,99241487-3E5C-49DD-A6E2-B0988CEEC4B7*%
%TF.FilePolarity,Positive*%
%TF.FileFunction,Copper,L2,Bot,Signal*%
%TF.Part,Single*%
G01*
G75*
%TA.AperFunction,Conductor*%
%ADD10C,0.63500*%
%TA.AperFunction,ComponentPad*%
%ADD11C,1.80000*%
%ADD12C,1.39700*%
%ADD13R,1.50000X1.50000*%
%ADD14C,1.50000*%
%ADD15R,1.40000X1.40000*%
%ADD16C,1.40000*%
%ADD17C,1.70000*%
%ADD18R,1.70000X1.70000*%
%ADD19R,1.80000X1.80000*%
%ADD20C,2.10820*%
%ADD21R,1.50000X1.50000*%
%ADD22C,2.00000*%
%ADD23R,2.00000X2.00000*%
%ADD24R,1.80000X1.80000*%
%TA.AperFunction,ViaPad*%
%ADD25C,1.27000*%
G36*
X7874000Y0D02*
X0D01*
Y7874000D01*
X7874000D01*
Y0D01*
D02*
G37*
%LPC*%
G36*
X3454000Y7573024D02*
Y7518000D01*
X3509024D01*
X3499788Y7540299D01*
X3476299Y7563788D01*
X3454000Y7573024D01*
D02*
G37*
G36*
X3404000D02*
X3381701Y7563788D01*
X3358212Y7540299D01*
X3348976Y7518000D01*
X3404000D01*
Y7573024D01*
D02*
G37*
G36*
X2933300Y7550908D02*
Y7467200D01*
X3017008D01*
X3001553Y7504510D01*
X2970610Y7535453D01*
X2933300Y7550908D01*
D02*
G37*
G36*
X2883300D02*
X2845990Y7535453D01*
X2815047Y7504510D01*
X2799592Y7467200D01*
X2883300D01*
Y7550908D01*
D02*
G37*
G36*
X3509024Y7468000D02*
X3454000D01*
Y7412976D01*
X3476299Y7422212D01*
X3499788Y7445701D01*
X3509024Y7468000D01*
D02*
G37*
G36*
X3404000D02*
X3348976D01*
X3358212Y7445701D01*
X3381701Y7422212D01*
X3404000Y7412976D01*
Y7468000D01*
D02*
G37*
G36*
X7383950Y7342820D02*
X5951050D01*
X5928752Y7338385D01*
X5909847Y7325753D01*
X5634143Y7050049D01*
X5621512Y7031145D01*
X5617076Y7008846D01*
Y6486882D01*
X5516454Y6386259D01*
X5509354Y6389200D01*
X5463446D01*
X5421031Y6371631D01*
X5388569Y6339168D01*
X5371000Y6296754D01*
Y6250845D01*
X5388569Y6208431D01*
X5421031Y6175969D01*
X5463446Y6158400D01*
X5509354D01*
X5551769Y6175969D01*
X5584231Y6208431D01*
X5601800Y6250845D01*
Y6296754D01*
X5598859Y6303853D01*
X5716549Y6421543D01*
X5729180Y6440447D01*
X5733615Y6462746D01*
Y6984710D01*
X5975186Y7226281D01*
X7359814D01*
X7447632Y7138462D01*
X7440438Y7127695D01*
X7414354Y7138500D01*
X7368445D01*
X7326031Y7120931D01*
X7305065Y7099965D01*
X7230286D01*
X7215148Y7115103D01*
X7196244Y7127734D01*
X7173945Y7132170D01*
X7085772D01*
X7082831Y7139269D01*
X7050369Y7171731D01*
X7007954Y7189300D01*
X6962046D01*
X6919631Y7171731D01*
X6887169Y7139269D01*
X6869600Y7096855D01*
Y7050946D01*
X6887169Y7008532D01*
X6919631Y6976069D01*
X6962046Y6958500D01*
X7007954D01*
X7050369Y6976069D01*
X7082831Y7008532D01*
X7085772Y7015631D01*
X7149809D01*
X7164947Y7000493D01*
X7183851Y6987862D01*
X7206150Y6983426D01*
X7282925D01*
X7293569Y6957731D01*
X7326031Y6925269D01*
X7368445Y6907700D01*
X7414354D01*
X7456768Y6925269D01*
X7489231Y6957731D01*
X7506800Y7000146D01*
Y7046054D01*
X7495995Y7072139D01*
X7506762Y7079333D01*
X7532941Y7053154D01*
X7530000Y7046054D01*
Y7000146D01*
X7547569Y6957731D01*
X7580031Y6925269D01*
X7587130Y6922328D01*
Y6869872D01*
X7580031Y6866931D01*
X7547569Y6834469D01*
X7530000Y6792054D01*
Y6746146D01*
X7547569Y6703731D01*
X7580031Y6671269D01*
X7587130Y6668328D01*
Y6630500D01*
X7530000D01*
Y6399700D01*
X7587130D01*
Y5723069D01*
X7574430Y5720543D01*
X7565431Y5742268D01*
X7532969Y5774731D01*
X7490554Y5792300D01*
X7444646D01*
X7402231Y5774731D01*
X7369769Y5742268D01*
X7366828Y5735169D01*
X7231168D01*
X7226308Y5746903D01*
X7274953Y5795547D01*
X7287584Y5814451D01*
X7292020Y5836750D01*
Y6080751D01*
X7287584Y6103050D01*
X7274953Y6121954D01*
X7081904Y6315003D01*
X7063000Y6327634D01*
X7040701Y6332070D01*
X6127948D01*
X6105649Y6327634D01*
X6086745Y6315003D01*
X6049547Y6277805D01*
X6036916Y6258901D01*
X6032480Y6236602D01*
Y5734776D01*
X6020747Y5729916D01*
X6005910Y5744753D01*
X5968600Y5760208D01*
Y5651500D01*
X5943600D01*
Y5626500D01*
X5834892D01*
X5850347Y5589190D01*
X5865184Y5574353D01*
X5860324Y5562620D01*
X4884318D01*
X4873031Y5589869D01*
X4855761Y5607139D01*
Y5657873D01*
X4874789Y5676900D01*
X4881783D01*
X4914458Y5690434D01*
X4939466Y5715442D01*
X4953000Y5748117D01*
Y5783483D01*
X4939466Y5816158D01*
X4914458Y5841166D01*
X4881783Y5854700D01*
X4846417D01*
X4813742Y5841166D01*
X4788734Y5816158D01*
X4775200Y5783483D01*
Y5748117D01*
X4776956Y5743879D01*
X4756289Y5723212D01*
X4743658Y5704308D01*
X4739222Y5682009D01*
Y5659478D01*
X4727489Y5654617D01*
X4232203Y6149903D01*
X4213299Y6162534D01*
X4191000Y6166970D01*
X3376936D01*
X3267003Y6276903D01*
X3248099Y6289534D01*
X3225800Y6293970D01*
X3017417D01*
X2990572Y6320815D01*
X2953671Y6336100D01*
X2913729D01*
X2876828Y6320815D01*
X2848585Y6292572D01*
X2833300Y6255671D01*
Y6215729D01*
X2848585Y6178828D01*
X2875430Y6151983D01*
Y5917372D01*
X2868331Y5914431D01*
X2835869Y5881969D01*
X2818300Y5839554D01*
Y5793646D01*
X2835869Y5751231D01*
X2868331Y5718769D01*
X2910746Y5701200D01*
X2956654D01*
X2999069Y5718769D01*
X3031531Y5751231D01*
X3049100Y5793646D01*
Y5839554D01*
X3031531Y5881969D01*
X2999069Y5914431D01*
X2991970Y5917372D01*
Y6151983D01*
X3017417Y6177430D01*
X3201664D01*
X3311597Y6067497D01*
X3330501Y6054866D01*
X3352800Y6050430D01*
X4166864D01*
X4587410Y5629884D01*
X4580216Y5619118D01*
X4546200Y5633208D01*
Y5549500D01*
X4629908D01*
X4615818Y5583516D01*
X4626584Y5590710D01*
X4662741Y5554554D01*
X4659800Y5547454D01*
Y5501546D01*
X4677369Y5459131D01*
X4709832Y5426669D01*
X4752246Y5409100D01*
X4798155D01*
X4840569Y5426669D01*
X4859980Y5446080D01*
X6004551D01*
X6026850Y5450516D01*
X6045754Y5463147D01*
X6131953Y5549346D01*
X6144584Y5568250D01*
X6149020Y5590549D01*
Y6212466D01*
X6152084Y6215530D01*
X7016565D01*
X7175480Y6056615D01*
Y5860886D01*
X7101453Y5786859D01*
X7093870Y5790000D01*
X7053929D01*
X7017028Y5774715D01*
X6988785Y5746472D01*
X6973500Y5709571D01*
Y5669629D01*
X6988785Y5632728D01*
X7017028Y5604485D01*
X7053929Y5589200D01*
X7093870D01*
X7130772Y5604485D01*
X7144917Y5618630D01*
X7366828D01*
X7369769Y5611531D01*
X7402231Y5579069D01*
X7444646Y5561500D01*
X7461302D01*
X7466163Y5549767D01*
X7381715Y5465320D01*
X7299349D01*
X7277051Y5460884D01*
X7258147Y5448253D01*
X7091894Y5282000D01*
X7053929D01*
X7017028Y5266715D01*
X6988785Y5238472D01*
X6973500Y5201571D01*
Y5161630D01*
X6988785Y5124728D01*
X7017028Y5096485D01*
X7053929Y5081200D01*
X7093870D01*
X7130772Y5096485D01*
X7159015Y5124728D01*
X7174300Y5161630D01*
Y5199594D01*
X7323485Y5348780D01*
X7405852D01*
X7428150Y5353216D01*
X7447054Y5365847D01*
X7686603Y5605395D01*
X7699234Y5624299D01*
X7703670Y5646598D01*
Y6399700D01*
X7760800D01*
Y6630500D01*
X7703670D01*
Y6668328D01*
X7710769Y6671269D01*
X7743231Y6703731D01*
X7760800Y6746146D01*
Y6792054D01*
X7743231Y6834469D01*
X7710769Y6866931D01*
X7703670Y6869872D01*
Y6922328D01*
X7710769Y6925269D01*
X7743231Y6957731D01*
X7760800Y7000146D01*
Y7046054D01*
X7743231Y7088469D01*
X7710769Y7120931D01*
X7668354Y7138500D01*
X7622446D01*
X7615346Y7135559D01*
X7425153Y7325753D01*
X7406249Y7338384D01*
X7383950Y7342820D01*
D02*
G37*
G36*
X4099654Y6973400D02*
X4053745D01*
X4011331Y6955831D01*
X3978869Y6923369D01*
X3975928Y6916270D01*
X3834572D01*
X3831631Y6923369D01*
X3799169Y6955831D01*
X3756754Y6973400D01*
X3710846D01*
X3668431Y6955831D01*
X3635969Y6923369D01*
X3618400Y6880954D01*
Y6835046D01*
X3635969Y6792631D01*
X3668431Y6760169D01*
X3710846Y6742600D01*
X3756754D01*
X3799169Y6760169D01*
X3831631Y6792631D01*
X3834572Y6799730D01*
X3975928D01*
X3978869Y6792631D01*
X4011331Y6760169D01*
X4053745Y6742600D01*
X4099654D01*
X4142068Y6760169D01*
X4174531Y6792631D01*
X4192100Y6835046D01*
Y6880954D01*
X4174531Y6923369D01*
X4142068Y6955831D01*
X4099654Y6973400D01*
D02*
G37*
G36*
X2953671Y7098100D02*
X2913729D01*
X2876828Y7082815D01*
X2848585Y7054572D01*
X2833300Y7017671D01*
Y6977729D01*
X2848585Y6940828D01*
X2876828Y6912585D01*
X2913729Y6897300D01*
X2953671D01*
X2990572Y6912585D01*
X3018815Y6940828D01*
X3034100Y6977729D01*
Y7017671D01*
X3018815Y7054572D01*
X2990572Y7082815D01*
X2953671Y7098100D01*
D02*
G37*
G36*
X1610454Y7430600D02*
X1564545D01*
X1522131Y7413031D01*
X1489669Y7380569D01*
X1472100Y7338154D01*
Y7292246D01*
X1489669Y7249831D01*
X1522131Y7217369D01*
X1564545Y7199800D01*
X1610454D01*
X1652868Y7217369D01*
X1685331Y7249831D01*
X1688271Y7256930D01*
X1830064D01*
X2071300Y7015694D01*
Y6977729D01*
X2086585Y6940828D01*
X2114828Y6912585D01*
X2151729Y6897300D01*
X2191671D01*
X2228572Y6912585D01*
X2256815Y6940828D01*
X2272100Y6977729D01*
Y7017671D01*
X2256815Y7054572D01*
X2228572Y7082815D01*
X2191671Y7098100D01*
X2153706D01*
X1895403Y7356403D01*
X1876499Y7369034D01*
X1854200Y7373470D01*
X1688271D01*
X1685331Y7380569D01*
X1652868Y7413031D01*
X1610454Y7430600D01*
D02*
G37*
G36*
X594454D02*
X548546D01*
X506131Y7413031D01*
X473669Y7380569D01*
X456100Y7338154D01*
Y7292246D01*
X473669Y7249831D01*
X506131Y7217369D01*
X548546Y7199800D01*
X594454D01*
X601554Y7202741D01*
X758897Y7045397D01*
X777801Y7032766D01*
X800100Y7028330D01*
X1334764D01*
X1450546Y6912548D01*
X1443990Y6896720D01*
Y6844680D01*
X1463905Y6796602D01*
X1500702Y6759805D01*
X1548780Y6739890D01*
X1600820D01*
X1648898Y6759805D01*
X1685695Y6796602D01*
X1705610Y6844680D01*
Y6896720D01*
X1685695Y6944798D01*
X1648898Y6981595D01*
X1600820Y7001510D01*
X1548780D01*
X1532952Y6994954D01*
X1400103Y7127803D01*
X1381199Y7140434D01*
X1358900Y7144870D01*
X824236D01*
X683959Y7285146D01*
X686900Y7292246D01*
Y7338154D01*
X669331Y7380569D01*
X636869Y7413031D01*
X594454Y7430600D01*
D02*
G37*
G36*
X2423254Y7557600D02*
X2377346D01*
X2334931Y7540031D01*
X2302469Y7507569D01*
X2284900Y7465154D01*
Y7419246D01*
X2302469Y7376831D01*
X2334931Y7344369D01*
X2354730Y7336168D01*
Y7068717D01*
X2340585Y7054572D01*
X2325300Y7017671D01*
Y6979706D01*
X2028897Y6683303D01*
X2020564Y6674970D01*
X676252D01*
X669695Y6690798D01*
X632898Y6727595D01*
X584820Y6747510D01*
X532780D01*
X484702Y6727595D01*
X447905Y6690798D01*
X427990Y6642720D01*
Y6590680D01*
X447905Y6542602D01*
X484702Y6505805D01*
X532780Y6485890D01*
X584820D01*
X632898Y6505805D01*
X669695Y6542602D01*
X676252Y6558430D01*
X1901425D01*
X1906286Y6546697D01*
X1717343Y6357755D01*
X1705610Y6362615D01*
Y6388720D01*
X1685695Y6436798D01*
X1648898Y6473595D01*
X1600820Y6493510D01*
X1548780D01*
X1500702Y6473595D01*
X1463905Y6436798D01*
X1457348Y6420970D01*
X965199D01*
X942901Y6416534D01*
X923997Y6403903D01*
X563453Y6043360D01*
X556354Y6046300D01*
X510445D01*
X468031Y6028731D01*
X435569Y5996269D01*
X418000Y5953855D01*
Y5907946D01*
X435569Y5865532D01*
X468031Y5833069D01*
X510445Y5815500D01*
X556354D01*
X598768Y5833069D01*
X631231Y5865532D01*
X648800Y5907946D01*
Y5953855D01*
X645859Y5960954D01*
X989336Y6304430D01*
X1457348D01*
X1463905Y6288602D01*
X1500702Y6251805D01*
X1548780Y6231890D01*
X1574885D01*
X1579745Y6220157D01*
X1561467Y6201878D01*
X1554007D01*
X1531708Y6197443D01*
X1512804Y6184811D01*
X1361047Y6033054D01*
X1348416Y6014150D01*
X1343980Y5991851D01*
Y5450849D01*
X1348416Y5428550D01*
X1361047Y5409646D01*
X1573426Y5197267D01*
X1592330Y5184636D01*
X1614629Y5180200D01*
X1658894D01*
X1792541Y5046554D01*
X1789600Y5039454D01*
Y4993546D01*
X1801774Y4964155D01*
X1787597Y4949978D01*
X1774966Y4931074D01*
X1770530Y4908775D01*
Y4521434D01*
X1748051Y4498955D01*
X1733550Y4463946D01*
Y4426053D01*
X1748051Y4391045D01*
X1774845Y4364251D01*
X1791819Y4357220D01*
X1789293Y4344520D01*
X1733785D01*
X1717655Y4360649D01*
X1682647Y4375150D01*
X1644754D01*
X1609745Y4360649D01*
X1582951Y4333855D01*
X1568450Y4298846D01*
Y4260954D01*
X1582951Y4225945D01*
X1609745Y4199151D01*
X1644754Y4184650D01*
X1682647D01*
X1717655Y4199151D01*
X1744449Y4225945D01*
X1745292Y4227980D01*
X2438600D01*
Y4197200D01*
X2629400D01*
Y4388000D01*
X2592270D01*
Y4605364D01*
X2890946Y4904041D01*
X2898046Y4901100D01*
X2943954D01*
X2986369Y4918669D01*
X3018831Y4951131D01*
X3036400Y4993546D01*
Y5039454D01*
X3018831Y5081869D01*
X2986369Y5114331D01*
X2943954Y5131900D01*
X2898046D01*
X2855631Y5114331D01*
X2823169Y5081869D01*
X2805600Y5039454D01*
Y4993546D01*
X2808541Y4986446D01*
X2492797Y4670703D01*
X2480166Y4651799D01*
X2475730Y4629500D01*
Y4388000D01*
X2438600D01*
Y4344520D01*
X1868307D01*
X1865781Y4357220D01*
X1882755Y4364251D01*
X1909549Y4391045D01*
X1924050Y4426053D01*
Y4463946D01*
X1909549Y4498955D01*
X1887070Y4521434D01*
Y4884639D01*
X1903531Y4901100D01*
X1927954D01*
X1970369Y4918669D01*
X2002831Y4951131D01*
X2020400Y4993546D01*
Y5039454D01*
X2017459Y5046554D01*
X2183136Y5212230D01*
X3732139D01*
X3739986Y5200486D01*
X4021225Y4919247D01*
X4040129Y4906616D01*
X4062427Y4902180D01*
X4354087D01*
X4358947Y4890447D01*
X4347169Y4878669D01*
X4329600Y4836254D01*
Y4790346D01*
X4332541Y4783246D01*
X4251397Y4702103D01*
X4238766Y4683199D01*
X4234330Y4660900D01*
Y4427117D01*
X4207485Y4400272D01*
X4192200Y4363371D01*
Y4323429D01*
X4207485Y4286528D01*
X4235728Y4258285D01*
X4272629Y4243000D01*
X4312571D01*
X4349472Y4258285D01*
X4377715Y4286528D01*
X4393000Y4323429D01*
Y4363371D01*
X4377715Y4400272D01*
X4350870Y4427117D01*
Y4636764D01*
X4414946Y4700841D01*
X4422046Y4697900D01*
X4467954D01*
X4510369Y4715469D01*
X4542831Y4747931D01*
X4560400Y4790346D01*
Y4807002D01*
X4572133Y4811863D01*
X4759049Y4624947D01*
X4777953Y4612316D01*
X4800252Y4607880D01*
X5117488D01*
X5139787Y4612316D01*
X5158691Y4624947D01*
X5350780Y4817036D01*
X5361547Y4809842D01*
X5352292Y4787500D01*
X5436000D01*
Y4871208D01*
X5413658Y4861953D01*
X5406464Y4872720D01*
X5618975Y5085230D01*
X5842828D01*
X5845769Y5078131D01*
X5878231Y5045669D01*
X5920646Y5028100D01*
X5966554D01*
X6008969Y5045669D01*
X6041431Y5078131D01*
X6059000Y5120546D01*
Y5123330D01*
X6228183D01*
X6255028Y5096485D01*
X6291929Y5081200D01*
X6329894D01*
X6634630Y4776464D01*
Y3546452D01*
X6618802Y3539895D01*
X6582005Y3503098D01*
X6562090Y3455020D01*
Y3402980D01*
X6572366Y3378172D01*
X6458094Y3263900D01*
X6446617D01*
X6413942Y3250366D01*
X6388934Y3225358D01*
X6375400Y3192683D01*
Y3157317D01*
X6388934Y3124642D01*
X6413942Y3099634D01*
X6446617Y3086100D01*
X6481983D01*
X6514658Y3099634D01*
X6539666Y3124642D01*
X6553200Y3157317D01*
Y3192683D01*
X6552758Y3193752D01*
X6660032Y3301026D01*
X6666880Y3298190D01*
X6718920D01*
X6766998Y3318105D01*
X6803795Y3354902D01*
X6823710Y3402980D01*
Y3455020D01*
X6803795Y3503098D01*
X6766998Y3539895D01*
X6751170Y3546452D01*
Y4800600D01*
X6746734Y4822899D01*
X6734103Y4841803D01*
X6412300Y5163606D01*
Y5201571D01*
X6397015Y5238472D01*
X6368772Y5266715D01*
X6331871Y5282000D01*
X6291929D01*
X6255028Y5266715D01*
X6228183Y5239870D01*
X6215691D01*
X6211275Y5252570D01*
X6293906Y5335200D01*
X6331871D01*
X6368772Y5350485D01*
X6397015Y5378728D01*
X6412300Y5415629D01*
Y5453594D01*
X6721403Y5762697D01*
X6734034Y5781601D01*
X6738470Y5803900D01*
Y5957128D01*
X6745569Y5960069D01*
X6778031Y5992531D01*
X6780972Y5999630D01*
X6884228D01*
X6887169Y5992531D01*
X6919631Y5960069D01*
X6962046Y5942500D01*
X7007954D01*
X7050369Y5960069D01*
X7082831Y5992531D01*
X7100400Y6034945D01*
Y6080854D01*
X7082831Y6123268D01*
X7050369Y6155731D01*
X7007954Y6173300D01*
X6962046D01*
X6919631Y6155731D01*
X6887169Y6123268D01*
X6884228Y6116169D01*
X6780972D01*
X6778031Y6123268D01*
X6745569Y6155731D01*
X6703154Y6173300D01*
X6657246D01*
X6614831Y6155731D01*
X6582369Y6123268D01*
X6582058Y6122519D01*
X6466102D01*
X6460531Y6135968D01*
X6428069Y6168431D01*
X6385654Y6186000D01*
X6339746D01*
X6297331Y6168431D01*
X6264869Y6135968D01*
X6247300Y6093554D01*
Y6047645D01*
X6264869Y6005231D01*
X6297331Y5972769D01*
X6339746Y5955200D01*
X6385654D01*
X6428069Y5972769D01*
X6460531Y6005231D01*
X6460842Y6005980D01*
X6576798D01*
X6582369Y5992531D01*
X6614831Y5960069D01*
X6621930Y5957128D01*
Y5828036D01*
X6329894Y5536000D01*
X6291929D01*
X6255028Y5520715D01*
X6226785Y5492472D01*
X6211500Y5455571D01*
Y5417606D01*
X6142814Y5348920D01*
X5430350D01*
X5408051Y5344484D01*
X5389147Y5331853D01*
X4983054Y4925759D01*
X4975954Y4928700D01*
X4930046D01*
X4887631Y4911131D01*
X4855169Y4878669D01*
X4837600Y4836254D01*
Y4790346D01*
X4855169Y4747931D01*
X4866947Y4736153D01*
X4862087Y4724420D01*
X4824388D01*
X4547154Y5001653D01*
X4528250Y5014284D01*
X4505951Y5018720D01*
X4086564D01*
X3961916Y5143367D01*
X3966777Y5155100D01*
X4128600D01*
Y5212230D01*
X4166428D01*
X4169369Y5205131D01*
X4201831Y5172669D01*
X4244246Y5155100D01*
X4290154D01*
X4332569Y5172669D01*
X4365031Y5205131D01*
X4382600Y5247546D01*
Y5293454D01*
X4365031Y5335869D01*
X4332569Y5368331D01*
X4290154Y5385900D01*
X4244246D01*
X4201831Y5368331D01*
X4169369Y5335869D01*
X4166428Y5328770D01*
X4128600D01*
Y5385900D01*
X3966777D01*
X3961916Y5397633D01*
X3978322Y5414039D01*
X3990246Y5409100D01*
X4036154D01*
X4078569Y5426669D01*
X4111031Y5459131D01*
X4128600Y5501546D01*
Y5547454D01*
X4111031Y5589869D01*
X4078569Y5622331D01*
X4036154Y5639900D01*
X3990246D01*
X3947831Y5622331D01*
X3915369Y5589869D01*
X3897800Y5547454D01*
Y5501546D01*
X3898743Y5499271D01*
X3728241Y5328769D01*
X2159000D01*
X2136701Y5324334D01*
X2117797Y5311703D01*
X1935054Y5128959D01*
X1927954Y5131900D01*
X1882046D01*
X1874946Y5128959D01*
X1724233Y5279673D01*
X1705329Y5292304D01*
X1683030Y5296740D01*
X1638765D01*
X1563538Y5371967D01*
X1568398Y5383700D01*
X1585055D01*
X1627469Y5401269D01*
X1659931Y5433731D01*
X1677500Y5476146D01*
Y5522054D01*
X1674560Y5529154D01*
X1957349Y5811943D01*
X2060213D01*
X2082512Y5816379D01*
X2101416Y5829010D01*
X2407706Y6135300D01*
X2445671D01*
X2482572Y6150585D01*
X2510815Y6178828D01*
X2526100Y6215729D01*
Y6253694D01*
X2818136Y6545730D01*
X3379028D01*
X3381969Y6538631D01*
X3414431Y6506169D01*
X3421530Y6503228D01*
Y6450772D01*
X3414431Y6447831D01*
X3381969Y6415369D01*
X3364400Y6372954D01*
Y6327046D01*
X3381969Y6284631D01*
X3414431Y6252169D01*
X3456846Y6234600D01*
X3502754D01*
X3545169Y6252169D01*
X3577631Y6284631D01*
X3595200Y6327046D01*
Y6372954D01*
X3577631Y6415369D01*
X3545169Y6447831D01*
X3538070Y6450772D01*
Y6503228D01*
X3545169Y6506169D01*
X3577631Y6538631D01*
X3595200Y6581046D01*
Y6626954D01*
X3577631Y6669369D01*
X3545169Y6701831D01*
X3538070Y6704772D01*
Y6742600D01*
X3595200D01*
Y6973400D01*
X3364400D01*
Y6742600D01*
X3421530D01*
Y6704772D01*
X3414431Y6701831D01*
X3381969Y6669369D01*
X3379028Y6662270D01*
X2794000D01*
X2771701Y6657834D01*
X2752797Y6645203D01*
X2443694Y6336100D01*
X2405729D01*
X2368828Y6320815D01*
X2340585Y6292572D01*
X2325300Y6255671D01*
Y6217706D01*
X2283833Y6176239D01*
X2272100Y6181099D01*
Y6336100D01*
X2071300D01*
Y6293970D01*
X1854200D01*
X1831901Y6289534D01*
X1831882Y6289522D01*
X1823787Y6299386D01*
X2111303Y6586903D01*
X2123934Y6605807D01*
X2125851Y6615446D01*
X2407706Y6897300D01*
X2445671D01*
X2482572Y6912585D01*
X2510815Y6940828D01*
X2526100Y6977729D01*
Y7017671D01*
X2510815Y7054572D01*
X2482572Y7082815D01*
X2471270Y7087496D01*
Y7349970D01*
X2498131Y7376831D01*
X2515700Y7419246D01*
Y7465154D01*
X2498131Y7507569D01*
X2465669Y7540031D01*
X2423254Y7557600D01*
D02*
G37*
G36*
X4099654Y6719400D02*
X4053745D01*
X4011331Y6701831D01*
X3978869Y6669369D01*
X3975928Y6662270D01*
X3834572D01*
X3831631Y6669369D01*
X3799169Y6701831D01*
X3756754Y6719400D01*
X3710846D01*
X3668431Y6701831D01*
X3635969Y6669369D01*
X3618400Y6626954D01*
Y6581046D01*
X3635969Y6538631D01*
X3668431Y6506169D01*
X3710846Y6488600D01*
X3756754D01*
X3799169Y6506169D01*
X3831631Y6538631D01*
X3834572Y6545730D01*
X3975928D01*
X3978869Y6538631D01*
X4011331Y6506169D01*
X4053745Y6488600D01*
X4099654D01*
X4142068Y6506169D01*
X4174531Y6538631D01*
X4192100Y6581046D01*
Y6626954D01*
X4174531Y6669369D01*
X4142068Y6701831D01*
X4099654Y6719400D01*
D02*
G37*
G36*
X6703154Y7189300D02*
X6657246D01*
X6614831Y7171731D01*
X6582369Y7139269D01*
X6564800Y7096855D01*
Y7050946D01*
X6582369Y7008532D01*
X6614831Y6976069D01*
X6657246Y6958500D01*
X6703154D01*
X6710254Y6961441D01*
X6943797Y6727897D01*
X6962702Y6715266D01*
X6985000Y6710830D01*
X7290628D01*
X7293569Y6703731D01*
X7326031Y6671269D01*
X7368446Y6653700D01*
X7414354D01*
X7456769Y6671269D01*
X7489231Y6703731D01*
X7506800Y6746146D01*
Y6792054D01*
X7489231Y6834469D01*
X7456769Y6866931D01*
X7414354Y6884500D01*
X7368446D01*
X7326031Y6866931D01*
X7293569Y6834469D01*
X7290628Y6827370D01*
X7009136D01*
X6792659Y7043847D01*
X6795600Y7050946D01*
Y7096855D01*
X6778031Y7139269D01*
X6745569Y7171731D01*
X6703154Y7189300D01*
D02*
G37*
G36*
X4099654Y6465400D02*
X4053745D01*
X4011331Y6447831D01*
X3978869Y6415369D01*
X3975928Y6408270D01*
X3834572D01*
X3831631Y6415369D01*
X3799169Y6447831D01*
X3756754Y6465400D01*
X3710846D01*
X3668431Y6447831D01*
X3635969Y6415369D01*
X3618400Y6372954D01*
Y6327046D01*
X3635969Y6284631D01*
X3668431Y6252169D01*
X3710846Y6234600D01*
X3756754D01*
X3799169Y6252169D01*
X3831631Y6284631D01*
X3834572Y6291730D01*
X3975928D01*
X3978869Y6284631D01*
X4011331Y6252169D01*
X4053745Y6234600D01*
X4099654D01*
X4142068Y6252169D01*
X4174531Y6284631D01*
X4192100Y6327046D01*
Y6372954D01*
X4174531Y6415369D01*
X4142068Y6447831D01*
X4099654Y6465400D01*
D02*
G37*
G36*
X6385654Y7202000D02*
X6339745D01*
X6297331Y7184431D01*
X6264869Y7151969D01*
X6247300Y7109555D01*
Y7063646D01*
X6264869Y7021232D01*
X6297331Y6988769D01*
X6339745Y6971200D01*
X6385654D01*
X6392753Y6974141D01*
X6892997Y6473897D01*
X6911901Y6461266D01*
X6934200Y6456830D01*
X7290628D01*
X7293569Y6449731D01*
X7326031Y6417269D01*
X7368446Y6399700D01*
X7414354D01*
X7456769Y6417269D01*
X7489231Y6449731D01*
X7506800Y6492146D01*
Y6538054D01*
X7489231Y6580469D01*
X7456769Y6612931D01*
X7414354Y6630500D01*
X7368446D01*
X7326031Y6612931D01*
X7293569Y6580469D01*
X7290628Y6573370D01*
X6958336D01*
X6475159Y7056547D01*
X6478100Y7063646D01*
Y7109555D01*
X6460531Y7151969D01*
X6428068Y7184431D01*
X6385654Y7202000D01*
D02*
G37*
G36*
X2704700Y6328172D02*
Y6260700D01*
X2772172D01*
X2760237Y6289513D01*
X2733513Y6316237D01*
X2704700Y6328172D01*
D02*
G37*
G36*
X2654700D02*
X2625887Y6316237D01*
X2599163Y6289513D01*
X2587228Y6260700D01*
X2654700D01*
Y6328172D01*
D02*
G37*
G36*
X3017008Y7417200D02*
X2799592D01*
X2815047Y7379890D01*
X2845990Y7348947D01*
X2886420Y7332200D01*
X2913834D01*
X2919094Y7319500D01*
X2697694Y7098100D01*
X2659729D01*
X2622828Y7082815D01*
X2594585Y7054572D01*
X2579300Y7017671D01*
Y6977729D01*
X2594585Y6940828D01*
X2622828Y6912585D01*
X2659729Y6897300D01*
X2699671D01*
X2736572Y6912585D01*
X2764815Y6940828D01*
X2780100Y6977729D01*
Y7015694D01*
X2995936Y7231530D01*
X5348181D01*
X5353041Y7219797D01*
X5106644Y6973400D01*
X5069746D01*
X5027332Y6955831D01*
X4994869Y6923369D01*
X4977300Y6880954D01*
Y6835046D01*
X4994869Y6792631D01*
X5027332Y6760169D01*
X5034431Y6757228D01*
Y6704772D01*
X5027332Y6701831D01*
X4994869Y6669369D01*
X4977300Y6626954D01*
Y6581046D01*
X4994869Y6538631D01*
X5027332Y6506169D01*
X5034431Y6503228D01*
Y6450772D01*
X5027332Y6447831D01*
X4994869Y6415369D01*
X4977300Y6372954D01*
Y6327046D01*
X4994869Y6284631D01*
X5027332Y6252169D01*
X5069746Y6234600D01*
X5115655D01*
X5158069Y6252169D01*
X5190531Y6284631D01*
X5208100Y6327046D01*
Y6372954D01*
X5190531Y6415369D01*
X5158069Y6447831D01*
X5150970Y6450772D01*
Y6503228D01*
X5158069Y6506169D01*
X5190531Y6538631D01*
X5208100Y6581046D01*
Y6626954D01*
X5190531Y6669369D01*
X5158069Y6701831D01*
X5150970Y6704772D01*
Y6757228D01*
X5158069Y6760169D01*
X5190531Y6792631D01*
X5208100Y6835046D01*
Y6880954D01*
X5199580Y6901524D01*
X5472456Y7174400D01*
X5509354D01*
X5551769Y7191969D01*
X5584231Y7224432D01*
X5601800Y7266846D01*
Y7312755D01*
X5584231Y7355169D01*
X5551769Y7387631D01*
X5509354Y7405200D01*
X5463446D01*
X5421031Y7387631D01*
X5388569Y7355169D01*
X5385628Y7348070D01*
X2987693D01*
X2982433Y7360770D01*
X3001553Y7379890D01*
X3017008Y7417200D01*
D02*
G37*
G36*
X2772172Y6210700D02*
X2704700D01*
Y6143228D01*
X2733513Y6155163D01*
X2760237Y6181887D01*
X2772172Y6210700D01*
D02*
G37*
G36*
X2654700D02*
X2587228D01*
X2599163Y6181887D01*
X2625887Y6155163D01*
X2654700Y6143228D01*
Y6210700D01*
D02*
G37*
G36*
X3466700Y5925308D02*
Y5841600D01*
X3550408D01*
X3534953Y5878910D01*
X3504010Y5909853D01*
X3466700Y5925308D01*
D02*
G37*
G36*
X3416700D02*
X3379390Y5909853D01*
X3348447Y5878910D01*
X3332992Y5841600D01*
X3416700D01*
Y5925308D01*
D02*
G37*
G36*
X3550408Y5791600D02*
X3466700D01*
Y5707892D01*
X3504010Y5723347D01*
X3534953Y5754290D01*
X3550408Y5791600D01*
D02*
G37*
G36*
X3416700D02*
X3332992D01*
X3348447Y5754290D01*
X3379390Y5723347D01*
X3416700Y5707892D01*
Y5791600D01*
D02*
G37*
G36*
X5918600Y5760208D02*
X5881290Y5744753D01*
X5850347Y5713810D01*
X5834892Y5676500D01*
X5918600D01*
Y5760208D01*
D02*
G37*
G36*
X2438000Y5668024D02*
Y5613000D01*
X2493024D01*
X2483788Y5635299D01*
X2460299Y5658788D01*
X2438000Y5668024D01*
D02*
G37*
G36*
X2388000D02*
X2365701Y5658788D01*
X2342212Y5635299D01*
X2332976Y5613000D01*
X2388000D01*
Y5668024D01*
D02*
G37*
G36*
X6331871Y5790000D02*
X6291930D01*
X6255028Y5774715D01*
X6226785Y5746472D01*
X6211500Y5709571D01*
Y5669629D01*
X6226785Y5632728D01*
X6255028Y5604485D01*
X6291930Y5589200D01*
X6331871D01*
X6368772Y5604485D01*
X6397015Y5632728D01*
X6412300Y5669629D01*
Y5709571D01*
X6397015Y5746472D01*
X6368772Y5774715D01*
X6331871Y5790000D01*
D02*
G37*
G36*
X4496200Y5633208D02*
X4458890Y5617753D01*
X4427947Y5586810D01*
X4412492Y5549500D01*
X4496200D01*
Y5633208D01*
D02*
G37*
G36*
X4292200D02*
Y5549500D01*
X4375908D01*
X4360453Y5586810D01*
X4329510Y5617753D01*
X4292200Y5633208D01*
D02*
G37*
G36*
X4242200D02*
X4204890Y5617753D01*
X4173947Y5586810D01*
X4158492Y5549500D01*
X4242200D01*
Y5633208D01*
D02*
G37*
G36*
X2493024Y5563000D02*
X2438000D01*
Y5507976D01*
X2460299Y5517212D01*
X2483788Y5540701D01*
X2493024Y5563000D01*
D02*
G37*
G36*
X2388000D02*
X2332976D01*
X2342212Y5540701D01*
X2365701Y5517212D01*
X2388000Y5507976D01*
Y5563000D01*
D02*
G37*
G36*
X7098900Y5528071D02*
Y5460600D01*
X7166371D01*
X7154437Y5489413D01*
X7127713Y5516137D01*
X7098900Y5528071D01*
D02*
G37*
G36*
X7048900Y5528072D02*
X7020087Y5516137D01*
X6993363Y5489413D01*
X6981428Y5460600D01*
X7048900D01*
Y5528072D01*
D02*
G37*
G36*
X4629908Y5499500D02*
X4546200D01*
Y5415792D01*
X4583510Y5431247D01*
X4614453Y5462190D01*
X4629908Y5499500D01*
D02*
G37*
G36*
X4496200D02*
X4412492D01*
X4427947Y5462190D01*
X4458890Y5431247D01*
X4496200Y5415792D01*
Y5499500D01*
D02*
G37*
G36*
X4375908D02*
X4292200D01*
Y5415792D01*
X4329510Y5431247D01*
X4360453Y5462190D01*
X4375908Y5499500D01*
D02*
G37*
G36*
X4242200D02*
X4158492D01*
X4173947Y5462190D01*
X4204890Y5431247D01*
X4242200Y5415792D01*
Y5499500D01*
D02*
G37*
G36*
X6730600Y5414024D02*
Y5359000D01*
X6785624D01*
X6776388Y5381299D01*
X6752899Y5404788D01*
X6730600Y5414024D01*
D02*
G37*
G36*
X6680600D02*
X6658301Y5404788D01*
X6634812Y5381299D01*
X6625576Y5359000D01*
X6680600D01*
Y5414024D01*
D02*
G37*
G36*
X7166371Y5410600D02*
X7098900D01*
Y5343129D01*
X7127713Y5355063D01*
X7154437Y5381787D01*
X7166371Y5410600D01*
D02*
G37*
G36*
X7048900D02*
X6981428D01*
X6993363Y5381787D01*
X7020087Y5355063D01*
X7048900Y5343128D01*
Y5410600D01*
D02*
G37*
G36*
X4798155Y5385900D02*
X4752246D01*
X4709832Y5368331D01*
X4677369Y5335869D01*
X4674429Y5328770D01*
X4621972D01*
X4619031Y5335869D01*
X4586569Y5368331D01*
X4544154Y5385900D01*
X4498246D01*
X4455831Y5368331D01*
X4423369Y5335869D01*
X4405800Y5293454D01*
Y5247546D01*
X4423369Y5205131D01*
X4455831Y5172669D01*
X4498246Y5155100D01*
X4544154D01*
X4586569Y5172669D01*
X4619031Y5205131D01*
X4621972Y5212230D01*
X4674429D01*
X4677369Y5205131D01*
X4709832Y5172669D01*
X4752246Y5155100D01*
X4798155D01*
X4840569Y5172669D01*
X4873031Y5205131D01*
X4890600Y5247546D01*
Y5293454D01*
X4873031Y5335869D01*
X4840569Y5368331D01*
X4798155Y5385900D01*
D02*
G37*
G36*
X6785624Y5309000D02*
X6730600D01*
Y5253976D01*
X6752899Y5263212D01*
X6776388Y5286701D01*
X6785624Y5309000D01*
D02*
G37*
G36*
X6680600D02*
X6625576D01*
X6634812Y5286701D01*
X6658301Y5263212D01*
X6680600Y5253976D01*
Y5309000D01*
D02*
G37*
G36*
X7492600Y5277608D02*
Y5193900D01*
X7576308D01*
X7560853Y5231210D01*
X7529910Y5262153D01*
X7492600Y5277608D01*
D02*
G37*
G36*
X7442600D02*
X7405290Y5262153D01*
X7374347Y5231210D01*
X7358892Y5193900D01*
X7442600D01*
Y5277608D01*
D02*
G37*
G36*
X7576308Y5143900D02*
X7492600D01*
Y5060192D01*
X7529910Y5075647D01*
X7560853Y5106590D01*
X7576308Y5143900D01*
D02*
G37*
G36*
X7442600D02*
X7358892D01*
X7374347Y5106590D01*
X7405290Y5075647D01*
X7442600Y5060192D01*
Y5143900D01*
D02*
G37*
G36*
X569054Y5614500D02*
X523145D01*
X480731Y5596931D01*
X448269Y5564469D01*
X430700Y5522054D01*
Y5476146D01*
X448269Y5433731D01*
X480731Y5401269D01*
X487830Y5398328D01*
Y5181601D01*
X492266Y5159302D01*
X504897Y5140398D01*
X573341Y5071954D01*
X570400Y5064854D01*
Y5018946D01*
X587969Y4976531D01*
X620432Y4944069D01*
X662846Y4926500D01*
X708755D01*
X751169Y4944069D01*
X783631Y4976531D01*
X801200Y5018946D01*
Y5064854D01*
X783631Y5107269D01*
X751169Y5139731D01*
X708755Y5157300D01*
X662846D01*
X655747Y5154359D01*
X604369Y5205737D01*
Y5398328D01*
X611468Y5401269D01*
X643931Y5433731D01*
X661500Y5476146D01*
Y5522054D01*
X643931Y5564469D01*
X611468Y5596931D01*
X569054Y5614500D01*
D02*
G37*
G36*
X5486000Y4871208D02*
Y4787500D01*
X5569708D01*
X5554253Y4824810D01*
X5523310Y4855753D01*
X5486000Y4871208D01*
D02*
G37*
G36*
X5569708Y4737500D02*
X5486000D01*
Y4653792D01*
X5523310Y4669247D01*
X5554253Y4700190D01*
X5569708Y4737500D01*
D02*
G37*
G36*
X5436000D02*
X5352292D01*
X5367747Y4700190D01*
X5398690Y4669247D01*
X5436000Y4653792D01*
Y4737500D01*
D02*
G37*
G36*
X5130400Y4423424D02*
Y4368400D01*
X5185424D01*
X5176188Y4390699D01*
X5152699Y4414188D01*
X5130400Y4423424D01*
D02*
G37*
G36*
X5080400D02*
X5058101Y4414188D01*
X5034612Y4390699D01*
X5025376Y4368400D01*
X5080400D01*
Y4423424D01*
D02*
G37*
G36*
X4571600Y4435872D02*
Y4368400D01*
X4639072D01*
X4627137Y4397213D01*
X4600413Y4423937D01*
X4571600Y4435872D01*
D02*
G37*
G36*
X4521600D02*
X4492787Y4423937D01*
X4466063Y4397213D01*
X4454128Y4368400D01*
X4521600D01*
Y4435872D01*
D02*
G37*
G36*
X7174300Y5028000D02*
X6973500D01*
Y4827200D01*
X7015630D01*
Y4762500D01*
X7020066Y4740201D01*
X7032697Y4721297D01*
X7240840Y4513154D01*
X7237900Y4506055D01*
Y4460146D01*
X7255469Y4417732D01*
X7287931Y4385269D01*
X7330345Y4367700D01*
X7376254D01*
X7418668Y4385269D01*
X7451131Y4417732D01*
X7468700Y4460146D01*
Y4506055D01*
X7451131Y4548469D01*
X7418668Y4580931D01*
X7376254Y4598500D01*
X7330345D01*
X7323246Y4595560D01*
X7132169Y4786636D01*
Y4827200D01*
X7174300D01*
Y5028000D01*
D02*
G37*
G36*
X6331871D02*
X6291930D01*
X6255028Y5012715D01*
X6226785Y4984472D01*
X6211500Y4947571D01*
Y4909606D01*
X6011448Y4709553D01*
X5998817Y4690649D01*
X5994381Y4668350D01*
Y4586958D01*
X5979832Y4580931D01*
X5947369Y4548469D01*
X5929800Y4506055D01*
Y4460146D01*
X5947369Y4417732D01*
X5979832Y4385269D01*
X6022246Y4367700D01*
X6068155D01*
X6110569Y4385269D01*
X6143031Y4417732D01*
X6160600Y4460146D01*
Y4506055D01*
X6143031Y4548469D01*
X6110920Y4580580D01*
Y4644214D01*
X6293906Y4827200D01*
X6331871D01*
X6368772Y4842485D01*
X6397015Y4870728D01*
X6412300Y4907629D01*
Y4947571D01*
X6397015Y4984472D01*
X6368772Y5012715D01*
X6331871Y5028000D01*
D02*
G37*
G36*
X875900Y4423172D02*
Y4355700D01*
X943372D01*
X931437Y4384513D01*
X904713Y4411237D01*
X875900Y4423172D01*
D02*
G37*
G36*
X825900D02*
X797087Y4411237D01*
X770363Y4384513D01*
X758428Y4355700D01*
X825900D01*
Y4423172D01*
D02*
G37*
G36*
X3079000Y4379660D02*
Y4317600D01*
X3141060D01*
X3130298Y4343581D01*
X3104981Y4368898D01*
X3079000Y4379660D01*
D02*
G37*
G36*
X3029000D02*
X3003019Y4368898D01*
X2977702Y4343581D01*
X2966940Y4317600D01*
X3029000D01*
Y4379660D01*
D02*
G37*
G36*
X5185424Y4318400D02*
X5130400D01*
Y4263376D01*
X5152699Y4272612D01*
X5176188Y4296101D01*
X5185424Y4318400D01*
D02*
G37*
G36*
X5080400D02*
X5025376D01*
X5034612Y4296101D01*
X5058101Y4272612D01*
X5080400Y4263376D01*
Y4318400D01*
D02*
G37*
G36*
X4639072D02*
X4571600D01*
Y4250928D01*
X4600413Y4262863D01*
X4627137Y4289587D01*
X4639072Y4318400D01*
D02*
G37*
G36*
X4521600D02*
X4454128D01*
X4466063Y4289587D01*
X4492787Y4262863D01*
X4521600Y4250928D01*
Y4318400D01*
D02*
G37*
G36*
X943372Y4305700D02*
X875900D01*
Y4238228D01*
X904713Y4250163D01*
X931437Y4276887D01*
X943372Y4305700D01*
D02*
G37*
G36*
X825900D02*
X758428D01*
X770363Y4276887D01*
X797087Y4250163D01*
X825900Y4238228D01*
Y4305700D01*
D02*
G37*
G36*
X3141060Y4267600D02*
X3079000D01*
Y4205540D01*
X3104981Y4216302D01*
X3130298Y4241619D01*
X3141060Y4267600D01*
D02*
G37*
G36*
X3029000D02*
X2966940D01*
X2977702Y4241619D01*
X3003019Y4216302D01*
X3029000Y4205540D01*
Y4267600D01*
D02*
G37*
G36*
X3401154Y5170000D02*
X3355246D01*
X3312831Y5152431D01*
X3280369Y5119969D01*
X3262800Y5077555D01*
Y5031646D01*
X3280369Y4989232D01*
X3312481Y4957120D01*
Y4893486D01*
X2806994Y4388000D01*
X2775024D01*
X2739960Y4373476D01*
X2713124Y4346640D01*
X2698600Y4311576D01*
Y4273624D01*
X2713124Y4238560D01*
X2739960Y4211724D01*
X2775024Y4197200D01*
X2812976D01*
X2848040Y4211724D01*
X2874876Y4238560D01*
X2889400Y4273624D01*
Y4305594D01*
X3411953Y4828147D01*
X3424584Y4847051D01*
X3429020Y4869350D01*
Y4950743D01*
X3443569Y4956769D01*
X3476031Y4989232D01*
X3493600Y5031646D01*
Y5077555D01*
X3476031Y5119969D01*
X3443569Y5152431D01*
X3401154Y5170000D01*
D02*
G37*
G36*
X3885000Y4443800D02*
X3684200D01*
Y4358420D01*
X3639750D01*
X3617451Y4353984D01*
X3598547Y4341353D01*
X3408254Y4151059D01*
X3401154Y4154000D01*
X3355246D01*
X3312831Y4136431D01*
X3280369Y4103968D01*
X3262800Y4061554D01*
Y4015645D01*
X3265741Y4008546D01*
X3202547Y3945352D01*
X3189916Y3926448D01*
X3185480Y3904149D01*
Y3380749D01*
X3189916Y3358450D01*
X3202547Y3339546D01*
X3382895Y3159198D01*
X3401799Y3146566D01*
X3424098Y3142131D01*
X3714565D01*
X3770463Y3086233D01*
X3765602Y3074500D01*
X3748946D01*
X3706531Y3056931D01*
X3674069Y3024469D01*
X3656500Y2982055D01*
Y2936146D01*
X3659441Y2929047D01*
X3361513Y2631119D01*
X3009333D01*
X3003840Y2632627D01*
X2997600Y2642640D01*
Y2678260D01*
X2980793Y2718837D01*
X2949737Y2749893D01*
X2909160Y2766700D01*
X2865240D01*
X2860973Y2764933D01*
X2533595Y3092312D01*
X2514691Y3104943D01*
X2492392Y3109378D01*
X2459505D01*
X2447331Y3138769D01*
X2414869Y3171231D01*
X2407770Y3174172D01*
Y3492500D01*
Y3531428D01*
X2414869Y3534369D01*
X2447331Y3566831D01*
X2464900Y3609246D01*
Y3655154D01*
X2447331Y3697569D01*
X2414869Y3730031D01*
X2372454Y3747600D01*
X2326546D01*
X2284131Y3730031D01*
X2251669Y3697569D01*
X2234100Y3655154D01*
Y3609246D01*
X2251669Y3566831D01*
X2255997Y3562503D01*
X2251137Y3550770D01*
X1916100D01*
Y3632900D01*
X1887070D01*
Y4038366D01*
X1909549Y4060845D01*
X1924050Y4095854D01*
Y4133747D01*
X1909549Y4168755D01*
X1882755Y4195549D01*
X1847746Y4210050D01*
X1809854D01*
X1774845Y4195549D01*
X1748051Y4168755D01*
X1733550Y4133747D01*
Y4095854D01*
X1748051Y4060845D01*
X1770530Y4038366D01*
Y3632900D01*
X1665300D01*
Y3382100D01*
X1916100D01*
Y3434230D01*
X2291230D01*
Y3174172D01*
X2284131Y3171231D01*
X2251669Y3138769D01*
X2234100Y3096354D01*
Y3050446D01*
X2251669Y3008031D01*
X2284131Y2975569D01*
X2326546Y2958000D01*
X2372454D01*
X2414869Y2975569D01*
X2432139Y2992839D01*
X2468256D01*
X2778568Y2682527D01*
X2776800Y2678260D01*
Y2634340D01*
X2793608Y2593764D01*
X2824664Y2562708D01*
X2837792Y2557270D01*
X2835266Y2544570D01*
X2584560D01*
X2582792Y2548837D01*
X2551737Y2579892D01*
X2511160Y2596700D01*
X2467240D01*
X2426663Y2579892D01*
X2395608Y2548837D01*
X2388704Y2532170D01*
X1897160D01*
X1897009Y2532533D01*
X1861733Y2567809D01*
X1815644Y2586900D01*
X1765756D01*
X1726875Y2570794D01*
X1678366Y2619303D01*
X1659462Y2631934D01*
X1637163Y2636370D01*
X1269172D01*
X1266231Y2643469D01*
X1233769Y2675931D01*
X1226670Y2678872D01*
Y2731328D01*
X1233769Y2734269D01*
X1266231Y2766731D01*
X1283800Y2809146D01*
Y2855054D01*
X1266231Y2897469D01*
X1233769Y2929931D01*
X1191354Y2947500D01*
X1149216D01*
X1142902Y2959146D01*
X1340776Y3157020D01*
X1361346Y3148500D01*
X1407255D01*
X1449669Y3166069D01*
X1482131Y3198531D01*
X1499700Y3240946D01*
Y3286854D01*
X1482131Y3329269D01*
X1449669Y3361731D01*
X1407255Y3379300D01*
X1361346D01*
X1318932Y3361731D01*
X1286469Y3329269D01*
X1268900Y3286854D01*
Y3249956D01*
X957924Y2938980D01*
X937354Y2947500D01*
X891446D01*
X849031Y2929931D01*
X816569Y2897469D01*
X799000Y2855054D01*
Y2809146D01*
X816569Y2766731D01*
X849031Y2734269D01*
X891446Y2716700D01*
X937354D01*
X979769Y2734269D01*
X1012231Y2766731D01*
X1029800Y2809146D01*
Y2846044D01*
X1041354Y2857598D01*
X1053000Y2851284D01*
Y2809146D01*
X1070569Y2766731D01*
X1103031Y2734269D01*
X1110130Y2731328D01*
Y2678872D01*
X1103031Y2675931D01*
X1070569Y2643469D01*
X1053000Y2601054D01*
Y2555146D01*
X1070569Y2512731D01*
X1103031Y2480269D01*
X1110131Y2477328D01*
Y2439500D01*
X1053000D01*
Y2208700D01*
X1283800D01*
Y2439500D01*
X1226670D01*
Y2477328D01*
X1233769Y2480269D01*
X1266231Y2512731D01*
X1269172Y2519830D01*
X1613027D01*
X1665300Y2467558D01*
Y2436556D01*
X1684391Y2390467D01*
X1719667Y2355191D01*
X1732430Y2349904D01*
Y2197800D01*
X1665300D01*
Y1947000D01*
X1916100D01*
Y2197800D01*
X1848970D01*
Y2349904D01*
X1861733Y2355191D01*
X1897009Y2390467D01*
X1907432Y2415630D01*
X2403741D01*
X2426663Y2392708D01*
X2439791Y2387270D01*
X2437265Y2374570D01*
X2329000D01*
X2306701Y2370134D01*
X2287797Y2357503D01*
X2181297Y2251003D01*
X2168666Y2232099D01*
X2164230Y2209800D01*
Y2009662D01*
X2168666Y1987364D01*
X2181297Y1968460D01*
X2316630Y1833126D01*
Y1624772D01*
X2309531Y1621831D01*
X2277069Y1589369D01*
X2259500Y1546954D01*
Y1501046D01*
X2277069Y1458631D01*
X2309531Y1426169D01*
X2316630Y1423228D01*
Y1156800D01*
X2313846D01*
X2271431Y1139231D01*
X2238969Y1106769D01*
X2232922Y1092170D01*
X1899189D01*
X1897009Y1097433D01*
X1861733Y1132709D01*
X1815644Y1151800D01*
X1765756D01*
X1752993Y1146513D01*
X1651803Y1247703D01*
X1632899Y1260334D01*
X1610600Y1264770D01*
X1194034D01*
X1171555Y1287249D01*
X1136546Y1301750D01*
X1098654D01*
X1063645Y1287249D01*
X1036851Y1260455D01*
X1022350Y1225446D01*
Y1187554D01*
X1036851Y1152545D01*
X1063645Y1125751D01*
X1098654Y1111250D01*
X1136546D01*
X1171555Y1125751D01*
X1194034Y1148230D01*
X1258524D01*
X1261050Y1135530D01*
X1228745Y1122149D01*
X1201951Y1095355D01*
X1187450Y1060346D01*
Y1022454D01*
X1201951Y987445D01*
X1228745Y960651D01*
X1263754Y946150D01*
X1301646D01*
X1336655Y960651D01*
X1359134Y983130D01*
X1436364D01*
X1952697Y466797D01*
X1971601Y454166D01*
X1993900Y449730D01*
X2566228D01*
X2569169Y442631D01*
X2601631Y410169D01*
X2644046Y392600D01*
X2689954D01*
X2732369Y410169D01*
X2764831Y442631D01*
X2767772Y449730D01*
X2870400D01*
Y412600D01*
X3061200D01*
Y603400D01*
X2870400D01*
Y566270D01*
X2767772D01*
X2764831Y573368D01*
X2732369Y605831D01*
X2689954Y623400D01*
X2644046D01*
X2601631Y605831D01*
X2569169Y573368D01*
X2566228Y566269D01*
X2018036D01*
X1501703Y1082603D01*
X1482799Y1095234D01*
X1460500Y1099670D01*
X1359134D01*
X1336655Y1122149D01*
X1304350Y1135530D01*
X1306876Y1148230D01*
X1586464D01*
X1670587Y1064107D01*
X1665300Y1051344D01*
Y1001456D01*
X1684391Y955367D01*
X1719667Y920091D01*
X1765756Y901000D01*
X1815644D01*
X1861733Y920091D01*
X1897009Y955367D01*
X1905403Y975631D01*
X2239370D01*
X2271431Y943569D01*
X2313846Y926000D01*
X2359754D01*
X2402169Y943569D01*
X2434631Y976031D01*
X2452200Y1018446D01*
Y1064354D01*
X2434631Y1106769D01*
X2432706Y1108694D01*
X2433170Y1111025D01*
Y1423228D01*
X2440269Y1426169D01*
X2472731Y1458631D01*
X2490300Y1501046D01*
Y1546954D01*
X2487359Y1554054D01*
X2798086Y1864780D01*
X2833950D01*
X2839580Y1865900D01*
X2997600D01*
Y2075330D01*
X2997600Y2086700D01*
X3009749Y2088030D01*
X3200400D01*
X3222699Y2092466D01*
X3241603Y2105097D01*
X3411646Y2275141D01*
X3418746Y2272200D01*
X3464654D01*
X3507069Y2289769D01*
X3539531Y2322231D01*
X3557100Y2364646D01*
Y2410554D01*
X3539531Y2452969D01*
X3507069Y2485431D01*
X3464654Y2503000D01*
X3418746D01*
X3376331Y2485431D01*
X3343869Y2452969D01*
X3326300Y2410554D01*
Y2364646D01*
X3329241Y2357546D01*
X3176264Y2204570D01*
X2939134D01*
X2936608Y2217270D01*
X2949737Y2222708D01*
X2980792Y2253764D01*
X2997600Y2294340D01*
Y2338260D01*
X2980792Y2378837D01*
X2949737Y2409893D01*
X2931052Y2417632D01*
X2932353Y2430840D01*
X2940529Y2432466D01*
X2959433Y2445097D01*
X3028916Y2514580D01*
X3385650D01*
X3407948Y2519016D01*
X3426852Y2531647D01*
X3741846Y2846641D01*
X3748946Y2843700D01*
X3794854D01*
X3837269Y2861269D01*
X3849047Y2873048D01*
X3860780Y2868187D01*
Y2460574D01*
X3583547Y2183341D01*
X3570916Y2164437D01*
X3566480Y2142138D01*
Y1582660D01*
X3561987Y1578166D01*
X3549355Y1559262D01*
X3544920Y1536963D01*
Y1171182D01*
X3537821Y1168242D01*
X3505358Y1135779D01*
X3487790Y1093365D01*
Y1047456D01*
X3505358Y1005042D01*
X3537821Y972579D01*
X3580235Y955011D01*
X3626144D01*
X3668558Y972579D01*
X3670665Y974686D01*
X3673910Y974041D01*
X3696209Y978477D01*
X3715113Y991108D01*
X3727744Y1010012D01*
X3732180Y1032311D01*
X3727744Y1054609D01*
X3718589Y1068311D01*
Y1093365D01*
X3701021Y1135779D01*
X3668558Y1168242D01*
X3661459Y1171182D01*
Y1512827D01*
X3665953Y1517321D01*
X3678584Y1536225D01*
X3683020Y1558524D01*
Y1852187D01*
X3694753Y1857047D01*
X3706531Y1845269D01*
X3713630Y1842328D01*
Y1649446D01*
X3718066Y1627147D01*
X3730697Y1608243D01*
X3760820Y1578120D01*
Y1387082D01*
X3753721Y1384142D01*
X3721258Y1351679D01*
X3703690Y1309265D01*
Y1263356D01*
X3721258Y1220942D01*
X3753721Y1188479D01*
X3796135Y1170911D01*
X3842044D01*
X3867104Y1181291D01*
X3984697Y1063697D01*
X4003601Y1051066D01*
X4025900Y1046630D01*
X5702300D01*
X5724599Y1051066D01*
X5743503Y1063697D01*
X5984803Y1304997D01*
X5997434Y1323901D01*
X5999630Y1334942D01*
X6012330Y1333692D01*
Y1281436D01*
X4955903Y225009D01*
X4349794D01*
X4347267Y237709D01*
X4386979Y254158D01*
X4419442Y286621D01*
X4437010Y329035D01*
Y374944D01*
X4419442Y417358D01*
X4386979Y449821D01*
X4344565Y467389D01*
X4298656D01*
X4291557Y464449D01*
X4206803Y549203D01*
X4187899Y561834D01*
X4165600Y566270D01*
X3562446D01*
X3539840Y588876D01*
X3504776Y603400D01*
X3466824D01*
X3431760Y588876D01*
X3404924Y562040D01*
X3390400Y526976D01*
Y489024D01*
X3404924Y453960D01*
X3431760Y427124D01*
X3466824Y412600D01*
X3504776D01*
X3539840Y427124D01*
X3562446Y449730D01*
X4141464D01*
X4209151Y382043D01*
X4206211Y374944D01*
Y329035D01*
X4223779Y286621D01*
X4256242Y254158D01*
X4295953Y237709D01*
X4293427Y225009D01*
X2016396D01*
X1763459Y477946D01*
X1766400Y485046D01*
Y530954D01*
X1748831Y573369D01*
X1716368Y605831D01*
X1673954Y623400D01*
X1628045D01*
X1585631Y605831D01*
X1566220Y586420D01*
X1489886D01*
X1212850Y863456D01*
Y895246D01*
X1198349Y930255D01*
X1171555Y957049D01*
X1136546Y971550D01*
X1098654D01*
X1063645Y957049D01*
X1036851Y930255D01*
X1022350Y895246D01*
Y857354D01*
X1036851Y822345D01*
X1063645Y795551D01*
X1098654Y781050D01*
X1130444D01*
X1424547Y486947D01*
X1443451Y474316D01*
X1465750Y469881D01*
X1541881D01*
X1553169Y442631D01*
X1585631Y410169D01*
X1628045Y392600D01*
X1673954D01*
X1681053Y395541D01*
X1951057Y125537D01*
X1969962Y112905D01*
X1992260Y108470D01*
X4980040D01*
X5002338Y112906D01*
X5021242Y125537D01*
X6111803Y1216097D01*
X6124434Y1235001D01*
X6128870Y1257300D01*
Y2857500D01*
X6124434Y2879798D01*
X6111803Y2898703D01*
X5507957Y3502548D01*
X5512818Y3514281D01*
X5536568D01*
X5558867Y3518717D01*
X5577771Y3531348D01*
X5578779Y3532356D01*
X5583017Y3530600D01*
X5618383D01*
X5651058Y3544134D01*
X5676066Y3569142D01*
X5689600Y3601817D01*
Y3637183D01*
X5676066Y3669858D01*
X5651058Y3694866D01*
X5618383Y3708400D01*
X5583017D01*
X5550342Y3694866D01*
X5525334Y3669858D01*
X5511800Y3637183D01*
Y3630821D01*
X5439266D01*
X5430369Y3639717D01*
Y4109940D01*
X5459531Y4139101D01*
X5483954D01*
X5526369Y4156670D01*
X5558831Y4189132D01*
X5576400Y4231546D01*
Y4277455D01*
X5558831Y4319869D01*
X5526369Y4352332D01*
X5483954Y4369901D01*
X5438046D01*
X5395631Y4352332D01*
X5363169Y4319869D01*
X5345600Y4277455D01*
Y4231546D01*
X5357774Y4202156D01*
X5330897Y4175279D01*
X5318266Y4156375D01*
X5313830Y4134076D01*
Y3639717D01*
X5286985Y3612872D01*
X5271700Y3575971D01*
Y3536029D01*
X5286985Y3499128D01*
X5315228Y3470885D01*
X5352129Y3455600D01*
X5390094D01*
X6012330Y2833364D01*
Y2489009D01*
X5999630Y2487758D01*
X5997434Y2498799D01*
X5984803Y2517703D01*
X5472500Y3030006D01*
Y3067971D01*
X5457215Y3104872D01*
X5428972Y3133115D01*
X5392071Y3148400D01*
X5352129D01*
X5315228Y3133115D01*
X5286985Y3104872D01*
X5271700Y3067971D01*
Y3028029D01*
X5286985Y2991128D01*
X5315228Y2962885D01*
X5352129Y2947600D01*
X5390094D01*
X5431561Y2906133D01*
X5426701Y2894400D01*
X5271700D01*
Y2693600D01*
X5390094D01*
X5489410Y2594285D01*
Y2516821D01*
X5493845Y2494522D01*
X5506476Y2475618D01*
X5589841Y2392254D01*
X5586900Y2385155D01*
Y2339246D01*
X5604469Y2296832D01*
X5636931Y2264369D01*
X5679346Y2246800D01*
X5725254D01*
X5767669Y2264369D01*
X5800131Y2296832D01*
X5817700Y2339246D01*
Y2385155D01*
X5800131Y2427569D01*
X5767669Y2460031D01*
X5725254Y2477600D01*
X5679346D01*
X5672246Y2474660D01*
X5605949Y2540957D01*
Y2618421D01*
X5601513Y2640720D01*
X5588882Y2659624D01*
X5472500Y2776006D01*
Y2848601D01*
X5484233Y2853461D01*
X5885330Y2452364D01*
Y1370336D01*
X5826192Y1311198D01*
X5815632Y1318253D01*
X5817700Y1323245D01*
Y1369154D01*
X5800131Y1411568D01*
X5767669Y1444031D01*
X5760570Y1446971D01*
Y1866900D01*
X5756134Y1889199D01*
X5743503Y1908103D01*
X5369354Y2282252D01*
X5375910Y2298080D01*
Y2350120D01*
X5355996Y2398198D01*
X5319198Y2434995D01*
X5271120Y2454910D01*
X5219080D01*
X5171002Y2434995D01*
X5134205Y2398198D01*
X5114290Y2350120D01*
Y2298080D01*
X5134205Y2250002D01*
X5171002Y2213205D01*
X5219080Y2193290D01*
X5271120D01*
X5286948Y2199846D01*
X5644030Y1842764D01*
Y1446971D01*
X5636931Y1444031D01*
X5604469Y1411568D01*
X5586900Y1369154D01*
Y1323245D01*
X5604469Y1280831D01*
X5636931Y1248369D01*
X5679346Y1230800D01*
X5725254D01*
X5730246Y1232868D01*
X5737302Y1222308D01*
X5678164Y1163170D01*
X4050036D01*
X3934489Y1278717D01*
Y1309265D01*
X3916921Y1351679D01*
X3884458Y1384142D01*
X3877359Y1387082D01*
Y1602256D01*
X3872924Y1624555D01*
X3860293Y1643459D01*
X3830170Y1673582D01*
Y1842328D01*
X3837269Y1845269D01*
X3869731Y1877731D01*
X3887300Y1920145D01*
Y1966054D01*
X3869731Y2008468D01*
X3837269Y2040931D01*
X3794854Y2058500D01*
X3748946D01*
X3706531Y2040931D01*
X3694753Y2029152D01*
X3683020Y2034013D01*
Y2118002D01*
X3960253Y2395235D01*
X3972884Y2414139D01*
X3977320Y2436438D01*
Y3020052D01*
X3972884Y3042351D01*
X3960253Y3061254D01*
X3796960Y3224547D01*
X3801821Y3236280D01*
X4533833D01*
X4553228Y3216885D01*
X4590129Y3201600D01*
X4630071D01*
X4666972Y3216885D01*
X4695215Y3245128D01*
X4710500Y3282029D01*
Y3321971D01*
X4695215Y3358872D01*
X4666972Y3387115D01*
X4630071Y3402400D01*
X4590129D01*
X4553228Y3387115D01*
X4524985Y3358872D01*
X4522478Y3352820D01*
X4198076D01*
X4193216Y3364553D01*
X4208053Y3379390D01*
X4223508Y3416700D01*
X4114800D01*
X4006092D01*
X4021547Y3379390D01*
X4036384Y3364553D01*
X4031524Y3352820D01*
X3574886D01*
X3554159Y3373546D01*
X3557100Y3380646D01*
Y3426554D01*
X3539531Y3468969D01*
X3507069Y3501431D01*
X3464654Y3519000D01*
X3418746D01*
X3376331Y3501431D01*
X3343869Y3468969D01*
X3326300Y3426554D01*
Y3398565D01*
X3313600Y3393304D01*
X3302019Y3404885D01*
Y3880013D01*
X3348146Y3926140D01*
X3355246Y3923200D01*
X3401154D01*
X3443569Y3940769D01*
X3476031Y3973231D01*
X3493600Y4015645D01*
Y4061554D01*
X3490659Y4068653D01*
X3663886Y4241880D01*
X3741350D01*
X3746980Y4243000D01*
X3885000D01*
Y4443800D01*
D02*
G37*
G36*
X2971400Y4067824D02*
Y4012800D01*
X3026424D01*
X3017188Y4035099D01*
X2993699Y4058588D01*
X2971400Y4067824D01*
D02*
G37*
G36*
X2921400D02*
X2899101Y4058588D01*
X2875612Y4035099D01*
X2866376Y4012800D01*
X2921400D01*
Y4067824D01*
D02*
G37*
G36*
X4114400Y4045707D02*
Y3962000D01*
X4198107D01*
X4182653Y3999310D01*
X4151710Y4030253D01*
X4114400Y4045707D01*
D02*
G37*
G36*
X4064400D02*
X4027090Y4030253D01*
X3996146Y3999310D01*
X3980692Y3962000D01*
X4064400D01*
Y4045707D01*
D02*
G37*
G36*
X3026424Y3962800D02*
X2971400D01*
Y3907776D01*
X2993699Y3917012D01*
X3017188Y3940501D01*
X3026424Y3962800D01*
D02*
G37*
G36*
X2921400D02*
X2866376D01*
X2875612Y3940501D01*
X2899101Y3917012D01*
X2921400Y3907776D01*
Y3962800D01*
D02*
G37*
G36*
X4198107Y3912000D02*
X4114400D01*
Y3828292D01*
X4151710Y3843746D01*
X4182653Y3874690D01*
X4198107Y3912000D01*
D02*
G37*
G36*
X4064400D02*
X3980692D01*
X3996146Y3874690D01*
X4027090Y3843746D01*
X4064400Y3828292D01*
Y3912000D01*
D02*
G37*
G36*
X3758800Y3839224D02*
Y3784200D01*
X3813824D01*
X3804588Y3806499D01*
X3781099Y3829988D01*
X3758800Y3839224D01*
D02*
G37*
G36*
X3708800D02*
X3686501Y3829988D01*
X3663012Y3806499D01*
X3653776Y3784200D01*
X3708800D01*
Y3839224D01*
D02*
G37*
G36*
X1295000Y3804408D02*
Y3720700D01*
X1378708D01*
X1363253Y3758010D01*
X1332310Y3788953D01*
X1295000Y3804408D01*
D02*
G37*
G36*
X1245000D02*
X1207690Y3788953D01*
X1176747Y3758010D01*
X1161292Y3720700D01*
X1245000D01*
Y3804408D01*
D02*
G37*
G36*
X3813824Y3734200D02*
X3758800D01*
Y3679176D01*
X3781099Y3688412D01*
X3804588Y3711901D01*
X3813824Y3734200D01*
D02*
G37*
G36*
X3708800D02*
X3653776D01*
X3663012Y3711901D01*
X3686501Y3688412D01*
X3708800Y3679176D01*
Y3734200D01*
D02*
G37*
G36*
X2882500Y3740908D02*
Y3657200D01*
X2966208D01*
X2950753Y3694510D01*
X2919810Y3725453D01*
X2882500Y3740908D01*
D02*
G37*
G36*
X2832500D02*
X2795190Y3725453D01*
X2764247Y3694510D01*
X2748792Y3657200D01*
X2832500D01*
Y3740908D01*
D02*
G37*
G36*
X1378708Y3670700D02*
X1295000D01*
Y3586992D01*
X1332310Y3602447D01*
X1363253Y3633390D01*
X1378708Y3670700D01*
D02*
G37*
G36*
X1245000D02*
X1161292D01*
X1176747Y3633390D01*
X1207690Y3602447D01*
X1245000Y3586992D01*
Y3670700D01*
D02*
G37*
G36*
X6464920Y4575810D02*
X6412880D01*
X6364802Y4555895D01*
X6328004Y4519098D01*
X6308090Y4471020D01*
Y4418980D01*
X6328004Y4370902D01*
X6364802Y4334105D01*
X6380630Y4327548D01*
Y3884936D01*
X6075254Y3579559D01*
X6068154Y3582500D01*
X6022246D01*
X5979831Y3564931D01*
X5947369Y3532468D01*
X5929800Y3490054D01*
Y3444145D01*
X5947369Y3401731D01*
X5979831Y3369269D01*
X6022246Y3351700D01*
X6068154D01*
X6110569Y3369269D01*
X6143031Y3401731D01*
X6160600Y3444145D01*
Y3490054D01*
X6157659Y3497153D01*
X6480103Y3819597D01*
X6492734Y3838501D01*
X6497169Y3860799D01*
Y4327548D01*
X6512998Y4334105D01*
X6549795Y4370902D01*
X6569710Y4418980D01*
Y4471020D01*
X6549795Y4519098D01*
X6512998Y4555895D01*
X6464920Y4575810D01*
D02*
G37*
G36*
X2966208Y3607200D02*
X2882500D01*
Y3523492D01*
X2919810Y3538947D01*
X2950753Y3569890D01*
X2966208Y3607200D01*
D02*
G37*
G36*
X2832500D02*
X2748792D01*
X2764247Y3569890D01*
X2795190Y3538947D01*
X2832500Y3523492D01*
Y3607200D01*
D02*
G37*
G36*
X4139800Y3550408D02*
Y3466700D01*
X4223508D01*
X4208053Y3504010D01*
X4177110Y3534953D01*
X4139800Y3550408D01*
D02*
G37*
G36*
X4089800D02*
X4052490Y3534953D01*
X4021547Y3504010D01*
X4006092Y3466700D01*
X4089800D01*
Y3550408D01*
D02*
G37*
G36*
X4630071Y3656400D02*
X4590129D01*
X4553228Y3641115D01*
X4524985Y3612872D01*
X4509700Y3575971D01*
Y3536029D01*
X4524985Y3499128D01*
X4553228Y3470885D01*
X4590129Y3455600D01*
X4630071D01*
X4666972Y3470885D01*
X4695215Y3499128D01*
X4710500Y3536029D01*
Y3575971D01*
X4695215Y3612872D01*
X4666972Y3641115D01*
X4630071Y3656400D01*
D02*
G37*
G36*
X6972920Y4575810D02*
X6920880D01*
X6872802Y4555895D01*
X6836005Y4519098D01*
X6816090Y4471020D01*
Y4418980D01*
X6836005Y4370902D01*
X6872802Y4334105D01*
X6888630Y4327548D01*
Y3873500D01*
X6893066Y3851201D01*
X6905697Y3832297D01*
X7240841Y3497153D01*
X7237900Y3490054D01*
Y3444145D01*
X7255469Y3401731D01*
X7287931Y3369269D01*
X7330346Y3351700D01*
X7376254D01*
X7418669Y3369269D01*
X7451131Y3401731D01*
X7468700Y3444145D01*
Y3490054D01*
X7451131Y3532468D01*
X7418669Y3564931D01*
X7376254Y3582500D01*
X7330346D01*
X7323246Y3579559D01*
X7005170Y3897636D01*
Y4327548D01*
X7020998Y4334105D01*
X7057795Y4370902D01*
X7077710Y4418980D01*
Y4471020D01*
X7057795Y4519098D01*
X7020998Y4555895D01*
X6972920Y4575810D01*
D02*
G37*
G36*
X4058571Y4443800D02*
X4018629D01*
X3981728Y4428515D01*
X3953485Y4400272D01*
X3938200Y4363371D01*
Y4323429D01*
X3953485Y4286528D01*
X3981728Y4258285D01*
X4018629Y4243000D01*
X4056594D01*
X4403797Y3895797D01*
X4422701Y3883166D01*
X4445000Y3878730D01*
X5004629D01*
X5007569Y3871631D01*
X5040032Y3839169D01*
X5047131Y3836228D01*
Y3568700D01*
X5051566Y3546401D01*
X5064197Y3527497D01*
X5271700Y3319994D01*
Y3282029D01*
X5286985Y3245128D01*
X5315228Y3216885D01*
X5352129Y3201600D01*
X5392071D01*
X5428972Y3216885D01*
X5457215Y3245128D01*
X5472500Y3282029D01*
Y3321971D01*
X5457215Y3358872D01*
X5428972Y3387115D01*
X5392071Y3402400D01*
X5354106D01*
X5163670Y3592836D01*
Y3836228D01*
X5170769Y3839169D01*
X5203231Y3871631D01*
X5220800Y3914045D01*
Y3959954D01*
X5203231Y4002368D01*
X5170769Y4034831D01*
X5128355Y4052400D01*
X5082446D01*
X5040032Y4034831D01*
X5007569Y4002368D01*
X5004629Y3995269D01*
X4469136D01*
X4139000Y4325406D01*
Y4363371D01*
X4123715Y4400272D01*
X4095472Y4428515D01*
X4058571Y4443800D01*
D02*
G37*
G36*
X2882500Y3182108D02*
Y3098400D01*
X2966208D01*
X2950753Y3135710D01*
X2919810Y3166653D01*
X2882500Y3182108D01*
D02*
G37*
G36*
X2832500D02*
X2795190Y3166653D01*
X2764247Y3135710D01*
X2748792Y3098400D01*
X2832500D01*
Y3182108D01*
D02*
G37*
G36*
X4630071Y3148400D02*
X4590129D01*
X4553228Y3133115D01*
X4524985Y3104872D01*
X4509700Y3067971D01*
Y3042176D01*
X4459494Y2991970D01*
X4215572D01*
X4212631Y2999069D01*
X4180169Y3031531D01*
X4137754Y3049100D01*
X4091846D01*
X4049431Y3031531D01*
X4016969Y2999069D01*
X3999400Y2956655D01*
Y2910746D01*
X4016969Y2868332D01*
X4049431Y2835869D01*
X4091846Y2818300D01*
X4137754D01*
X4144854Y2821241D01*
X4209480Y2756614D01*
Y2747704D01*
X4204534Y2742758D01*
X4191000Y2710083D01*
Y2674717D01*
X4204534Y2642042D01*
X4229542Y2617034D01*
X4262217Y2603500D01*
X4297583D01*
X4330258Y2617034D01*
X4355266Y2642042D01*
X4368800Y2674717D01*
Y2710083D01*
X4355266Y2742758D01*
X4330258Y2767766D01*
X4326020Y2769522D01*
Y2780750D01*
X4321584Y2803049D01*
X4308953Y2821953D01*
X4267209Y2863697D01*
X4272069Y2875431D01*
X4483630D01*
X4505929Y2879866D01*
X4524833Y2892497D01*
X4582921Y2950586D01*
X4590129Y2947600D01*
X4628094D01*
X4932830Y2642864D01*
Y1425552D01*
X4917002Y1418995D01*
X4880205Y1382198D01*
X4860290Y1334120D01*
Y1282080D01*
X4880205Y1234002D01*
X4917002Y1197205D01*
X4965080Y1177290D01*
X5017120D01*
X5065198Y1197205D01*
X5101995Y1234002D01*
X5121910Y1282080D01*
Y1334120D01*
X5101995Y1382198D01*
X5065198Y1418995D01*
X5049370Y1425552D01*
Y2667000D01*
X5044934Y2689299D01*
X5032303Y2708203D01*
X4710500Y3030006D01*
Y3067971D01*
X4695215Y3104872D01*
X4666972Y3133115D01*
X4630071Y3148400D01*
D02*
G37*
G36*
X2966208Y3048400D02*
X2882500D01*
Y2964692D01*
X2919810Y2980147D01*
X2950753Y3011090D01*
X2966208Y3048400D01*
D02*
G37*
G36*
X2832500D02*
X2748792D01*
X2764247Y3011090D01*
X2795190Y2980147D01*
X2832500Y2964692D01*
Y3048400D01*
D02*
G37*
G36*
X1216754Y5157300D02*
X1170845D01*
X1128431Y5139731D01*
X1095969Y5107269D01*
X1078400Y5064854D01*
Y5018946D01*
X1095969Y4976531D01*
X1113239Y4959261D01*
Y4929445D01*
X614894Y4431100D01*
X496500D01*
Y4230300D01*
X538630D01*
Y4068901D01*
X543066Y4046603D01*
X555697Y4027699D01*
X760563Y3822833D01*
X755702Y3811100D01*
X739046D01*
X696631Y3793531D01*
X664169Y3761069D01*
X646600Y3718654D01*
Y3672746D01*
X655120Y3652176D01*
X382244Y3379300D01*
X345345D01*
X302931Y3361731D01*
X270469Y3329269D01*
X252900Y3286854D01*
Y3240946D01*
X270469Y3198531D01*
X302931Y3166069D01*
X345345Y3148500D01*
X391254D01*
X433668Y3166069D01*
X466131Y3198531D01*
X483700Y3240946D01*
Y3286854D01*
X475180Y3307424D01*
X748056Y3580300D01*
X784954D01*
X827369Y3597869D01*
X839147Y3609647D01*
X850880Y3604787D01*
Y3534849D01*
X415997Y3099966D01*
X403366Y3081062D01*
X398930Y3058763D01*
Y2781300D01*
X403366Y2759001D01*
X415997Y2740097D01*
X619197Y2536897D01*
X622381Y2534770D01*
X623625Y2522131D01*
X415997Y2314503D01*
X403366Y2295599D01*
X398930Y2273300D01*
Y1993900D01*
X403366Y1971601D01*
X415997Y1952697D01*
X535241Y1833454D01*
X532300Y1826354D01*
Y1780446D01*
X549869Y1738031D01*
X582331Y1705569D01*
X624746Y1688000D01*
X670654D01*
X713069Y1705569D01*
X745531Y1738031D01*
X763100Y1780446D01*
Y1826354D01*
X745531Y1868769D01*
X713069Y1901231D01*
X670654Y1918800D01*
X624746D01*
X617646Y1915859D01*
X515470Y2018036D01*
Y2249164D01*
X763845Y2497539D01*
X831761D01*
X849031Y2480269D01*
X891446Y2462700D01*
X937354D01*
X979769Y2480269D01*
X1012231Y2512731D01*
X1029800Y2555146D01*
Y2601054D01*
X1012231Y2643469D01*
X979769Y2675931D01*
X937354Y2693500D01*
X891446D01*
X849031Y2675931D01*
X816569Y2643469D01*
X813628Y2636370D01*
X684536D01*
X515470Y2805436D01*
Y3034627D01*
X950353Y3469510D01*
X962984Y3488414D01*
X967420Y3510713D01*
Y3756651D01*
X962984Y3778950D01*
X950353Y3797854D01*
X655170Y4093038D01*
Y4230300D01*
X697300D01*
Y4348694D01*
X1212711Y4864106D01*
X1225343Y4883010D01*
X1229778Y4905308D01*
Y4931895D01*
X1259168Y4944069D01*
X1291631Y4976531D01*
X1309200Y5018946D01*
Y5064854D01*
X1291631Y5107269D01*
X1259168Y5139731D01*
X1216754Y5157300D01*
D02*
G37*
G36*
X4630071Y2894400D02*
X4590129D01*
X4553228Y2879115D01*
X4524985Y2850872D01*
X4509700Y2813971D01*
Y2774029D01*
X4524985Y2737128D01*
X4535280Y2726834D01*
Y2674586D01*
X4284554Y2423860D01*
X4277454Y2426800D01*
X4231546D01*
X4189131Y2409231D01*
X4156669Y2376769D01*
X4139100Y2334355D01*
Y2288446D01*
X4156669Y2246032D01*
X4189131Y2213569D01*
X4231546Y2196000D01*
X4277454D01*
X4319869Y2213569D01*
X4352331Y2246032D01*
X4369900Y2288446D01*
Y2334355D01*
X4366959Y2341454D01*
X4634752Y2609247D01*
X4647383Y2628151D01*
X4651819Y2650450D01*
Y2702609D01*
X4666972Y2708885D01*
X4695215Y2737128D01*
X4710500Y2774029D01*
Y2813971D01*
X4695215Y2850872D01*
X4666972Y2879115D01*
X4630071Y2894400D01*
D02*
G37*
G36*
X4763120Y2454910D02*
X4711080D01*
X4663002Y2434995D01*
X4626204Y2398198D01*
X4606290Y2350120D01*
Y2298080D01*
X4612846Y2282252D01*
X4213297Y1882703D01*
X4200666Y1863799D01*
X4196230Y1841500D01*
Y1396171D01*
X4189131Y1393231D01*
X4156669Y1360768D01*
X4139100Y1318354D01*
Y1272445D01*
X4156669Y1230031D01*
X4189131Y1197568D01*
X4231546Y1180000D01*
X4277454D01*
X4319869Y1197568D01*
X4352331Y1230031D01*
X4369900Y1272445D01*
Y1318354D01*
X4352331Y1360768D01*
X4319869Y1393231D01*
X4312770Y1396171D01*
Y1817364D01*
X4695252Y2199846D01*
X4711080Y2193290D01*
X4763120D01*
X4811198Y2213205D01*
X4847995Y2250002D01*
X4867910Y2298080D01*
Y2350120D01*
X4847995Y2398198D01*
X4811198Y2434995D01*
X4763120Y2454910D01*
D02*
G37*
G36*
X937354Y2439500D02*
X891446D01*
X849031Y2421931D01*
X816569Y2389469D01*
X799000Y2347054D01*
Y2301146D01*
X816569Y2258731D01*
X849031Y2226269D01*
X856130Y2223328D01*
Y2044700D01*
X860566Y2022401D01*
X873197Y2003497D01*
X1043241Y1833454D01*
X1040300Y1826354D01*
Y1780446D01*
X1057869Y1738031D01*
X1090331Y1705569D01*
X1132746Y1688000D01*
X1178654D01*
X1221069Y1705569D01*
X1253531Y1738031D01*
X1271100Y1780446D01*
Y1826354D01*
X1253531Y1868769D01*
X1221069Y1901231D01*
X1178654Y1918800D01*
X1132746D01*
X1125646Y1915859D01*
X972670Y2068836D01*
Y2223328D01*
X979769Y2226269D01*
X1012231Y2258731D01*
X1029800Y2301146D01*
Y2347054D01*
X1012231Y2389469D01*
X979769Y2421931D01*
X937354Y2439500D01*
D02*
G37*
G36*
X2907900Y1632708D02*
Y1549000D01*
X2991608D01*
X2976153Y1586310D01*
X2945210Y1617253D01*
X2907900Y1632708D01*
D02*
G37*
G36*
X2857900D02*
X2820590Y1617253D01*
X2789647Y1586310D01*
X2774192Y1549000D01*
X2857900D01*
Y1632708D01*
D02*
G37*
G36*
X2991608Y1499000D02*
X2907900D01*
Y1415292D01*
X2945210Y1430747D01*
X2976153Y1461690D01*
X2991608Y1499000D01*
D02*
G37*
G36*
X2857900D02*
X2774192D01*
X2789647Y1461690D01*
X2820590Y1430747D01*
X2857900Y1415292D01*
Y1499000D01*
D02*
G37*
G36*
X2869800Y1150108D02*
Y1066400D01*
X2953508D01*
X2938053Y1103710D01*
X2907110Y1134653D01*
X2869800Y1150108D01*
D02*
G37*
G36*
X2819800D02*
X2782490Y1134653D01*
X2751547Y1103710D01*
X2736092Y1066400D01*
X2819800D01*
Y1150108D01*
D02*
G37*
G36*
X3276200Y1070624D02*
Y1015600D01*
X3331224D01*
X3321988Y1037899D01*
X3298499Y1061388D01*
X3276200Y1070624D01*
D02*
G37*
G36*
X3226200D02*
X3203901Y1061388D01*
X3180412Y1037899D01*
X3171176Y1015600D01*
X3226200D01*
Y1070624D01*
D02*
G37*
G36*
X2953508Y1016400D02*
X2869800D01*
Y932692D01*
X2907110Y948147D01*
X2938053Y979090D01*
X2953508Y1016400D01*
D02*
G37*
G36*
X2819800D02*
X2736092D01*
X2751547Y979090D01*
X2782490Y948147D01*
X2819800Y932692D01*
Y1016400D01*
D02*
G37*
G36*
X3331224Y965600D02*
X3276200D01*
Y910576D01*
X3298499Y919812D01*
X3321988Y943301D01*
X3331224Y965600D01*
D02*
G37*
G36*
X3226200D02*
X3171176D01*
X3180412Y943301D01*
X3203901Y919812D01*
X3226200Y910576D01*
Y965600D01*
D02*
G37*
G36*
X4559391Y677889D02*
X4515630D01*
X4478320Y662435D01*
X4537510Y603245D01*
X4596700Y662435D01*
X4559391Y677889D01*
D02*
G37*
G36*
X3250800Y595060D02*
Y533000D01*
X3312860D01*
X3302098Y558981D01*
X3276781Y584298D01*
X3250800Y595060D01*
D02*
G37*
G36*
X3200800D02*
X3174819Y584298D01*
X3149502Y558981D01*
X3138740Y533000D01*
X3200800D01*
Y595060D01*
D02*
G37*
G36*
X4442965Y627080D02*
X4427511Y589770D01*
Y546009D01*
X4442965Y508700D01*
X4502155Y567890D01*
X4442965Y627080D01*
D02*
G37*
G36*
X4632056D02*
X4572866Y567890D01*
X4632056Y508700D01*
X4647510Y546009D01*
Y589770D01*
X4632056Y627080D01*
D02*
G37*
G36*
X4537510Y532534D02*
X4478320Y473344D01*
X4515630Y457890D01*
X4559391D01*
X4596700Y473344D01*
X4537510Y532534D01*
D02*
G37*
G36*
X3312860Y483000D02*
X3250800D01*
Y420940D01*
X3276781Y431702D01*
X3302098Y457019D01*
X3312860Y483000D01*
D02*
G37*
G36*
X3200800D02*
X3138740D01*
X3149502Y457019D01*
X3174819Y431702D01*
X3200800Y420940D01*
Y483000D01*
D02*
G37*
%LPD*%
D10*
X3441700Y3403600D02*
X3550750Y3294550D01*
X2329000Y2316300D02*
X2887200D01*
X2222500Y2009662D02*
Y2209800D01*
X2329000Y2316300D01*
X2222500Y2009662D02*
X2374900Y1857262D01*
X2489200Y2146300D02*
X3200400D01*
X3441700Y2387600D01*
X6127948Y6273800D02*
X7040701D01*
X7233750Y6080751D01*
X6090750Y5590549D02*
Y6236602D01*
X6127948Y6273800D01*
X6680200Y5803900D02*
Y6057900D01*
X6311900Y5435600D02*
X6680200Y5803900D01*
X6369050Y6064250D02*
X6673850D01*
X6680200Y6057900D01*
X6362700Y6070600D02*
X6369050Y6064250D01*
X6680200Y6057900D02*
X6985000D01*
X6934200Y6515100D02*
X7391400D01*
X6362700Y7086600D02*
X6934200Y6515100D01*
X6985000Y6769100D02*
X7391400D01*
X6680200Y7073900D02*
X6985000Y6769100D01*
X7173945Y7073900D02*
X7206150Y7041696D01*
X7372804D02*
X7391400Y7023100D01*
X7206150Y7041696D02*
X7372804D01*
X6985000Y7073900D02*
X7173945D01*
X6680200D02*
X6699249D01*
X1117600Y876300D02*
X1465750Y528150D01*
X1630849D01*
X1651000Y508000D01*
X1993900Y508000D02*
X2667000D01*
X1460500Y1041400D02*
X1993900Y508000D01*
X1282700Y1041400D02*
X1460500D01*
X1117600Y1206500D02*
X1610600D01*
X1790700Y1026400D01*
X1663700Y4279900D02*
X1670050Y4286250D01*
X2527650D01*
X2534000Y4292600D01*
X1828800Y3545600D02*
Y4114800D01*
X1790700Y3507500D02*
X1828800Y3545600D01*
Y4445000D02*
Y4908775D01*
X1905000Y4984975D01*
Y5016500D01*
X3370750Y5047150D02*
X3378200Y5054600D01*
X2794000Y4292600D02*
X3370750Y4869350D01*
Y5047150D01*
X2534000Y4629500D02*
X2921000Y5016500D01*
X2534000Y4292600D02*
Y4629500D01*
X660400Y2578100D02*
X914400D01*
X457200Y2781300D02*
X660400Y2578100D01*
X7645400Y6515100D02*
Y6769100D01*
X3603189Y1536963D02*
X3624750Y1558524D01*
X3603189Y1070410D02*
Y1536963D01*
X3733800Y6858000D02*
X4076700D01*
X7383950Y7284550D02*
X7645400Y7023100D01*
X5951050Y7284550D02*
X7383950D01*
X5675346Y7008846D02*
X5951050Y7284550D01*
X909150Y3510713D02*
Y3756651D01*
X457200Y2781300D02*
Y3058763D01*
X909150Y3510713D01*
X3485800Y508000D02*
X4165600D01*
X4321610Y351990D01*
X2667000Y508000D02*
X2965800D01*
X2667000Y508000D02*
X2667000Y508000D01*
X1992260Y166740D02*
X4980040D01*
X1651000Y508000D02*
X1992260Y166740D01*
X4292600Y4660900D02*
X4445000Y4813300D01*
X4292600Y4343400D02*
Y4660900D01*
X4445000Y3937000D02*
X5105400D01*
X4038600Y4343400D02*
X4445000Y3937000D01*
X3741350Y4300150D02*
X3784600Y4343400D01*
X3378200Y4038600D02*
X3639750Y4300150D01*
X3741350D01*
X2933700Y5892800D02*
Y6235700D01*
X4797492Y5546791D02*
Y5682009D01*
X4864100Y5748617D01*
X4775200Y5524500D02*
X4797492Y5546791D01*
X4864100Y5748617D02*
Y5765800D01*
X5583517Y3619500D02*
X5600700D01*
X5372100Y3556000D02*
X5388651Y3572551D01*
X5536568D01*
X5583517Y3619500D01*
X6464300Y3187700D02*
X6692900Y3416300D01*
Y3429000D01*
X6464300Y3175000D02*
Y3187700D01*
X4114800Y2933700D02*
X4267750Y2780750D01*
Y2704550D02*
Y2780750D01*
Y2704550D02*
X4279900Y2692400D01*
X6070600Y1257300D02*
Y2857500D01*
X4980040Y166740D02*
X6070600Y1257300D01*
X5372100Y3556000D02*
X6070600Y2857500D01*
X3781189Y5299311D02*
X4006378Y5524500D01*
X3752377Y5270500D02*
X3781189Y5299311D01*
Y5241689D02*
Y5299311D01*
Y5241689D02*
X4062427Y4960450D01*
X4505951D01*
X4800252Y4666150D02*
X5117488D01*
X4505951Y4960450D02*
X4800252Y4666150D01*
X5594838Y5143500D02*
X5943600D01*
X5117488Y4666150D02*
X5594838Y5143500D01*
X4445000Y4813300D02*
X4467291Y4791009D01*
X5430350Y5290650D02*
X6166950D01*
X6311900Y5435600D01*
X4953000Y4813300D02*
X5430350Y5290650D01*
X6052651Y4668350D02*
X6311900Y4927600D01*
X6052651Y4490551D02*
Y4668350D01*
X6045200Y4483100D02*
X6052651Y4490551D01*
X2159000Y5270500D02*
X3752377D01*
X4521200Y5270500D02*
X4775200D01*
X4013200D02*
X4267200D01*
X3225800Y6235700D02*
X3352800Y6108700D01*
X2933700Y6235700D02*
X3225800D01*
X4191000Y6108700D02*
X4775200Y5524500D01*
X3352800Y6108700D02*
X4191000D01*
X1905000Y5016500D02*
X2159000Y5270500D01*
X4006378Y5524500D02*
X4013200D01*
X7086600Y5689600D02*
X7233750Y5836750D01*
X7073900Y5689600D02*
X7086600D01*
X7233750Y5836750D02*
Y6080751D01*
X7073900Y5689600D02*
X7086600Y5676900D01*
X7467600D01*
X4795350Y5504350D02*
X6004551D01*
X6090750Y5590549D01*
X4775200Y5524500D02*
X4795350Y5504350D01*
X5547679Y2516821D02*
Y2618421D01*
X5372100Y3048000D02*
X5943600Y2476500D01*
X5702300Y1104900D02*
X5943600Y1346200D01*
X4025900Y1104900D02*
X5702300D01*
X5943600Y1346200D02*
Y2476500D01*
X5372100Y2794000D02*
X5547679Y2618421D01*
X3844490Y1286310D02*
X4025900Y1104900D01*
X3819090Y1286310D02*
X3844490D01*
X2070100Y6642100D02*
X2425700Y6997700D01*
X2044700Y6616700D02*
X2070100Y6642100D01*
Y6628106D02*
Y6642100D01*
X1554007Y6143608D02*
X1585603D01*
X2070100Y6628106D01*
X1402250Y5450849D02*
Y5991851D01*
X1554007Y6143608D01*
X1614629Y5238470D02*
X1683030D01*
X1402250Y5450849D02*
X1614629Y5238470D01*
X1683030D02*
X1905000Y5016500D01*
X6692900Y3429000D02*
Y4800600D01*
X6311900Y5181600D02*
X6692900Y4800600D01*
X6045200Y3467100D02*
X6438900Y3860799D01*
Y4445000D01*
X6946900Y3873500D02*
Y4445000D01*
Y3873500D02*
X7353300Y3467100D01*
X7073900Y4762500D02*
Y4927600D01*
Y4762500D02*
X7353300Y4483100D01*
X7299349Y5407050D02*
X7405852D01*
X7645400Y5646598D01*
X7073900Y5181600D02*
X7299349Y5407050D01*
X7645400Y5646598D02*
Y6515100D01*
X5975125Y5143500D02*
X6013225Y5181600D01*
X6311900D01*
X5943600Y5143500D02*
X5975125D01*
X4991100Y1308100D02*
Y2667000D01*
X4610100Y3048000D02*
X4991100Y2667000D01*
X5105400Y3568700D02*
Y3937000D01*
Y3568700D02*
X5372100Y3302000D01*
X5372100Y4134076D02*
X5461000Y4222976D01*
X5372100Y3556000D02*
Y4134076D01*
X5461000Y4222976D02*
Y4254501D01*
X3550750Y3294550D02*
X4602650D01*
X4610100Y3302000D01*
X4597929Y3048000D02*
X4610100D01*
X4114800Y2933700D02*
X4483630D01*
X4597929Y3048000D01*
X3243750Y3904149D02*
X3378200Y4038600D01*
X3243750Y3380749D02*
Y3904149D01*
Y3380749D02*
X3424098Y3200401D01*
X3738701D01*
X3919050Y3020052D01*
Y2436438D02*
Y3020052D01*
X3624750Y2142138D02*
X3919050Y2436438D01*
X3624750Y1558524D02*
Y2142138D01*
X3671940Y1034281D02*
X3673910Y1032311D01*
X3771900Y1649446D02*
X3819090Y1602256D01*
Y1286310D02*
Y1602256D01*
X3771900Y1649446D02*
Y1943100D01*
X3004780Y2572850D02*
X3385650D01*
X2918230Y2486300D02*
X3004780Y2572850D01*
X2489200Y2486300D02*
X2918230D01*
X3385650Y2572850D02*
X3771900Y2959100D01*
X4593549Y2777449D02*
X4610100Y2794000D01*
X4254500Y2311400D02*
X4593549Y2650450D01*
Y2777449D01*
X4254500Y1841500D02*
X4737100Y2324100D01*
X4254500Y1295399D02*
Y1841500D01*
X5547679Y2516821D02*
X5702300Y2362200D01*
X5245100Y2324100D02*
X5702300Y1866900D01*
Y1346200D02*
Y1866900D01*
X2349500Y3073400D02*
Y3492500D01*
X1805700D02*
X2349500D01*
X1790700Y3507500D02*
X1805700Y3492500D01*
X2349500D02*
Y3632200D01*
Y3073400D02*
X2371791Y3051109D01*
X2492392D02*
X2887200Y2656300D01*
X2371791Y3051109D02*
X2492392D01*
X2374900Y1524000D02*
Y1857262D01*
Y1524000D02*
X2773950Y1923050D01*
X2833950D01*
X2887200Y1976300D01*
X2374900Y1111025D02*
Y1524000D01*
X2336800Y1072925D02*
X2374900Y1111025D01*
X2336800Y1041400D02*
Y1072925D01*
X1790700Y1026400D02*
X1798200Y1033900D01*
X2329300D01*
X2336800Y1041400D01*
X1803100Y2473900D02*
X2476800D01*
X2489200Y2486300D01*
X1790700Y2461500D02*
X1803100Y2473900D01*
X1790700Y2072400D02*
Y2461500D01*
X1168400Y2578100D02*
X1637163D01*
X1753763Y2461500D01*
X1790700D01*
X7369109Y6537391D02*
X7391400Y6515100D01*
X7645400Y6769100D02*
Y7023100D01*
X5486400Y6273800D02*
X5675346Y6462746D01*
Y7008846D01*
X1168400Y2578100D02*
Y2832100D01*
X1168400Y2324100D02*
Y2578100D01*
X1168400Y2578100D02*
X1168400Y2578100D01*
X914400Y2044700D02*
X1155700Y1803400D01*
X914400Y2044700D02*
Y2324100D01*
X457200Y1993900D02*
Y2273300D01*
Y1993900D02*
X647700Y1803400D01*
X739709Y2555809D02*
X892109D01*
X914400Y2578100D01*
X457200Y2273300D02*
X739709Y2555809D01*
X596900Y4068901D02*
Y4330700D01*
Y4068901D02*
X909150Y3756651D01*
X762000Y3676650D02*
Y3695700D01*
X368300Y3263900D02*
Y3282949D01*
X762000Y3676650D01*
X1365250Y3263900D02*
X1384300D01*
X914400Y2832100D02*
X933450D01*
X1365250Y3263900D01*
X1171508Y5019609D02*
X1193800Y5041900D01*
X596900Y4330700D02*
X1171508Y4905308D01*
Y5019609D01*
X2425700Y6235700D02*
X2794000Y6604000D01*
X3479800D01*
X1933213Y5870213D02*
X2060213D01*
X1562100Y5499100D02*
X1933213Y5870213D01*
X2060213D02*
X2425700Y6235700D01*
X546100Y5181601D02*
X685800Y5041900D01*
X546100Y5181601D02*
Y5499100D01*
X1854200Y6235700D02*
X2171700D01*
X1549400Y5930900D02*
X1854200Y6235700D01*
X965199Y6362700D02*
X1574800D01*
X533400Y5930900D02*
X965199Y6362700D01*
X558800Y6616700D02*
X2044700D01*
X800100Y7086600D02*
X1358900D01*
X1574800Y6870700D01*
X571500Y7315200D02*
X800100Y7086600D01*
X1854200Y7315200D02*
X2171700Y6997700D01*
X1587500Y7315200D02*
X1854200D01*
X2971800Y7289800D02*
X5486400D01*
X5486400Y7289800D01*
X2679700Y6997700D02*
X2971800Y7289800D01*
X3479800Y6604000D02*
Y6858000D01*
Y6350000D02*
Y6604000D01*
X3733800Y6350000D02*
X4076700D01*
X3733800Y6604000D02*
X4076700D01*
X2413000Y7010400D02*
X2425700Y6997700D01*
X2400300Y7442200D02*
X2413000Y7429500D01*
Y7010400D02*
Y7429500D01*
X5092700Y6858000D02*
Y6877050D01*
X5486400Y7270750D01*
Y7289800D01*
X5092700Y6604000D02*
Y6858000D01*
Y6350000D02*
Y6604000D01*
D11*
X3441700Y3403600D02*
D03*
Y2387600D02*
D03*
X6362700Y6070600D02*
D03*
X6362700Y7086600D02*
D03*
X6680200Y6057900D02*
D03*
Y7073900D02*
D03*
X368300Y3263900D02*
D03*
X1384300D02*
D03*
X1651000Y508000D02*
D03*
X2667000Y508000D02*
D03*
X7467600Y5168900D02*
D03*
Y5676900D02*
D03*
X4953000Y4813300D02*
D03*
X4445000D02*
D03*
X7391400Y7023100D02*
D03*
X7645400D02*
D03*
X7391400Y6769100D02*
D03*
X7645400D02*
D03*
X7391400Y6515100D02*
D03*
X6985000Y7073900D02*
D03*
Y6057900D02*
D03*
X5943600Y5143500D02*
D03*
Y5651500D02*
D03*
X7353300Y4483100D02*
D03*
X7353300Y3467100D02*
D03*
X6045200Y4483100D02*
D03*
X6045200Y3467100D02*
D03*
X5702300Y2362200D02*
D03*
Y1346200D02*
D03*
X5461000Y4762500D02*
D03*
Y4254501D02*
D03*
X5105400Y3937000D02*
D03*
X4089400D02*
D03*
X4114800Y3441700D02*
D03*
Y2933700D02*
D03*
X4254500Y2311400D02*
D03*
Y1295399D02*
D03*
X3603189Y1070410D02*
D03*
X4321610Y351990D02*
D03*
X3441700Y5816600D02*
D03*
X2933700D02*
D03*
X5486400Y7289800D02*
D03*
Y6273800D02*
D03*
X1193800Y5041900D02*
D03*
X685800D02*
D03*
X546100Y5499100D02*
D03*
X1562100D02*
D03*
X1549400Y5930900D02*
D03*
X533400Y5930900D02*
D03*
X1587500Y7315200D02*
D03*
X571500D02*
D03*
X2400300Y7442200D02*
D03*
X2908300D02*
D03*
X4076700Y6858000D02*
D03*
X5092700D02*
D03*
X3733800Y6350000D02*
D03*
X3479800D02*
D03*
X3733800Y6604000D02*
D03*
X3479800D02*
D03*
X3733800Y6858000D02*
D03*
X4076700Y6604000D02*
D03*
X5092700D02*
D03*
X4076700Y6350000D02*
D03*
X5092700D02*
D03*
X3378200Y5054600D02*
D03*
Y4038600D02*
D03*
X2857500Y3073400D02*
D03*
X2349500D02*
D03*
X1905000Y5016500D02*
D03*
X2921000D02*
D03*
X2857500Y3632200D02*
D03*
X2349500D02*
D03*
X1155700Y1803400D02*
D03*
X647700D02*
D03*
X914400Y2832100D02*
D03*
X1168400D02*
D03*
X914400Y2578100D02*
D03*
X1168400D02*
D03*
X914400Y2324100D02*
D03*
X4775200Y5524500D02*
D03*
Y5270500D02*
D03*
X4521200Y5524500D02*
D03*
Y5270500D02*
D03*
X4267200Y5524500D02*
D03*
Y5270500D02*
D03*
X4013200Y5524500D02*
D03*
X3771900Y1943100D02*
D03*
Y2959100D02*
D03*
X762000Y3695700D02*
D03*
X1270000D02*
D03*
X4537510Y567890D02*
D03*
X3819090Y1286310D02*
D03*
X2882900Y1524000D02*
D03*
X2374900D02*
D03*
X2844800Y1041400D02*
D03*
X2336800D02*
D03*
D12*
X1828800Y4445000D02*
D03*
X1663700Y4279900D02*
D03*
X1828800Y4114800D02*
D03*
X1117600Y876300D02*
D03*
X1282700Y1041400D02*
D03*
X1117600Y1206500D02*
D03*
D13*
X5372100Y2794000D02*
D03*
X7073900Y4927600D02*
D03*
X596900Y4330700D02*
D03*
X3784600Y4343400D02*
D03*
D14*
X5372100Y3048000D02*
D03*
Y3302000D02*
D03*
Y3556000D02*
D03*
X4610100Y2794000D02*
D03*
Y3048000D02*
D03*
Y3302000D02*
D03*
Y3556000D02*
D03*
X7073900Y5181600D02*
D03*
Y5435600D02*
D03*
Y5689600D02*
D03*
X6311900Y4927600D02*
D03*
X6311900Y5181600D02*
D03*
Y5435600D02*
D03*
X6311900Y5689600D02*
D03*
X2425700Y6235700D02*
D03*
X2679700D02*
D03*
X2933700D02*
D03*
X2171700Y6997700D02*
D03*
X2425700D02*
D03*
X2679700D02*
D03*
X2933700D02*
D03*
X850900Y4330700D02*
D03*
X4546600Y4343400D02*
D03*
X4292600D02*
D03*
X4038600D02*
D03*
D15*
X2534000Y4292600D02*
D03*
X2965800Y508000D02*
D03*
D16*
X3054000Y4292600D02*
D03*
X2794000D02*
D03*
X3485800Y508000D02*
D03*
X3225800D02*
D03*
D17*
X2887200Y2316300D02*
D03*
X2887200Y2656300D02*
D03*
X2489200Y2486300D02*
D03*
Y2146300D02*
D03*
D18*
X2887200Y1976300D02*
D03*
D19*
X7645400Y6515100D02*
D03*
X3479800Y6858000D02*
D03*
X1168400Y2324100D02*
D03*
D20*
X6438900Y4445000D02*
D03*
X6946900D02*
D03*
X6692900Y3429000D02*
D03*
X4737100Y2324100D02*
D03*
X5245100D02*
D03*
X4991100Y1308100D02*
D03*
X1574800Y6870700D02*
D03*
Y6362700D02*
D03*
X558800Y6616700D02*
D03*
D21*
X2171700Y6235700D02*
D03*
D22*
X1790700Y2461500D02*
D03*
Y1026400D02*
D03*
D23*
Y3507500D02*
D03*
Y2072400D02*
D03*
D24*
X4013200Y5270500D02*
D03*
D25*
X3733800Y3759200D02*
D03*
X5105400Y4343400D02*
D03*
X6705600Y5334000D02*
D03*
X3429000Y7493000D02*
D03*
X2946400Y3987800D02*
D03*
X3251200Y990600D02*
D03*
X2413000Y5588000D02*
D03*
X4864100Y5765800D02*
D03*
X5600700Y3619500D02*
D03*
X4279900Y2692400D02*
D03*
X6464300Y3175000D02*
D03*
%TF.MD5,cbb868876142327b8cb02503cfefa9bc*%
M02*
