%TF.GenerationSoftware,Altium Limited,Altium Designer,22.4.2 (48)*%
G04 Layer_Physical_Order=1*
G04 Layer_Color=255*
%FSLAX45Y45*%
%MOMM*%
%TF.SameCoordinates,99241487-3E5C-49DD-A6E2-B0988CEEC4B7*%
%TF.FilePolarity,Positive*%
%TF.FileFunction,Copper,L1,Top,Signal*%
%TF.Part,Single*%
G01*
G75*
%TA.AperFunction,Conductor*%
%ADD10C,0.63500*%
%TA.AperFunction,ComponentPad*%
%ADD11C,1.80000*%
%ADD12C,1.39700*%
%ADD13R,1.50000X1.50000*%
%ADD14C,1.50000*%
%ADD15R,1.40000X1.40000*%
%ADD16C,1.40000*%
%ADD17C,1.70000*%
%ADD18R,1.70000X1.70000*%
%ADD19R,1.80000X1.80000*%
%ADD20C,2.10820*%
%ADD21R,1.50000X1.50000*%
%ADD22C,2.00000*%
%ADD23R,2.00000X2.00000*%
%ADD24R,1.80000X1.80000*%
%TA.AperFunction,ViaPad*%
%ADD25C,1.27000*%
G36*
X7874000Y0D02*
X0D01*
Y7874000D01*
X7874000D01*
Y0D01*
D02*
G37*
%LPC*%
G36*
X3454000Y7573024D02*
Y7518000D01*
X3509024D01*
X3499788Y7540299D01*
X3476299Y7563788D01*
X3454000Y7573024D01*
D02*
G37*
G36*
X3404000D02*
X3381701Y7563788D01*
X3358212Y7540299D01*
X3348976Y7518000D01*
X3404000D01*
Y7573024D01*
D02*
G37*
G36*
X2933300Y7550908D02*
Y7467200D01*
X3017008D01*
X3001553Y7504510D01*
X2970610Y7535453D01*
X2933300Y7550908D01*
D02*
G37*
G36*
X2883300D02*
X2845990Y7535453D01*
X2815047Y7504510D01*
X2799592Y7467200D01*
X2883300D01*
Y7550908D01*
D02*
G37*
G36*
X3509024Y7468000D02*
X3454000D01*
Y7412976D01*
X3476299Y7422212D01*
X3499788Y7445701D01*
X3509024Y7468000D01*
D02*
G37*
G36*
X3404000D02*
X3348976D01*
X3358212Y7445701D01*
X3381701Y7422212D01*
X3404000Y7412976D01*
Y7468000D01*
D02*
G37*
G36*
X3017008Y7417200D02*
X2933300D01*
Y7333492D01*
X2970610Y7348947D01*
X3001553Y7379890D01*
X3017008Y7417200D01*
D02*
G37*
G36*
X2883300D02*
X2799592D01*
X2815047Y7379890D01*
X2845990Y7348947D01*
X2883300Y7333492D01*
Y7417200D01*
D02*
G37*
G36*
X2423254Y7557600D02*
X2377346D01*
X2334931Y7540031D01*
X2302469Y7507569D01*
X2284900Y7465154D01*
Y7419246D01*
X2302469Y7376831D01*
X2334931Y7344369D01*
X2377346Y7326800D01*
X2423254D01*
X2465669Y7344369D01*
X2498131Y7376831D01*
X2515700Y7419246D01*
Y7465154D01*
X2498131Y7507569D01*
X2465669Y7540031D01*
X2423254Y7557600D01*
D02*
G37*
G36*
X1610454Y7430600D02*
X1564545D01*
X1522131Y7413031D01*
X1489669Y7380569D01*
X1472100Y7338154D01*
Y7292246D01*
X1489669Y7249831D01*
X1522131Y7217369D01*
X1564545Y7199800D01*
X1610454D01*
X1652868Y7217369D01*
X1685331Y7249831D01*
X1702900Y7292246D01*
Y7338154D01*
X1685331Y7380569D01*
X1652868Y7413031D01*
X1610454Y7430600D01*
D02*
G37*
G36*
X594454D02*
X548546D01*
X506131Y7413031D01*
X473669Y7380569D01*
X456100Y7338154D01*
Y7292246D01*
X473669Y7249831D01*
X506131Y7217369D01*
X548546Y7199800D01*
X594454D01*
X636869Y7217369D01*
X669331Y7249831D01*
X686900Y7292246D01*
Y7338154D01*
X669331Y7380569D01*
X636869Y7413031D01*
X594454Y7430600D01*
D02*
G37*
G36*
X5509354Y7405200D02*
X5463446D01*
X5421031Y7387631D01*
X5388569Y7355169D01*
X5371000Y7312755D01*
Y7266846D01*
X5388569Y7224432D01*
X5421031Y7191969D01*
X5463446Y7174400D01*
X5509354D01*
X5551769Y7191969D01*
X5584231Y7224432D01*
X5601800Y7266846D01*
Y7312755D01*
X5584231Y7355169D01*
X5551769Y7387631D01*
X5509354Y7405200D01*
D02*
G37*
G36*
X6385654Y7202000D02*
X6339745D01*
X6297331Y7184431D01*
X6264869Y7151969D01*
X6247300Y7109555D01*
Y7063646D01*
X6264869Y7021232D01*
X6297331Y6988769D01*
X6339745Y6971200D01*
X6385654D01*
X6428068Y6988769D01*
X6460531Y7021232D01*
X6478100Y7063646D01*
Y7109555D01*
X6460531Y7151969D01*
X6428068Y7184431D01*
X6385654Y7202000D01*
D02*
G37*
G36*
X7007954Y7189300D02*
X6962046D01*
X6919631Y7171731D01*
X6887169Y7139269D01*
X6869600Y7096855D01*
Y7050946D01*
X6887169Y7008532D01*
X6919631Y6976069D01*
X6962046Y6958500D01*
X7007954D01*
X7050369Y6976069D01*
X7082831Y7008532D01*
X7100400Y7050946D01*
Y7096855D01*
X7082831Y7139269D01*
X7050369Y7171731D01*
X7007954Y7189300D01*
D02*
G37*
G36*
X6703154D02*
X6657246D01*
X6614831Y7171731D01*
X6582369Y7139269D01*
X6564800Y7096855D01*
Y7050946D01*
X6582369Y7008532D01*
X6614831Y6976069D01*
X6657246Y6958500D01*
X6703154D01*
X6745569Y6976069D01*
X6778031Y7008532D01*
X6795600Y7050946D01*
Y7096855D01*
X6778031Y7139269D01*
X6745569Y7171731D01*
X6703154Y7189300D01*
D02*
G37*
G36*
X7668354Y7138500D02*
X7622446D01*
X7580031Y7120931D01*
X7547569Y7088469D01*
X7530000Y7046054D01*
Y7000146D01*
X7547569Y6957731D01*
X7580031Y6925269D01*
X7622446Y6907700D01*
X7668354D01*
X7710769Y6925269D01*
X7743231Y6957731D01*
X7760800Y7000146D01*
Y7046054D01*
X7743231Y7088469D01*
X7710769Y7120931D01*
X7668354Y7138500D01*
D02*
G37*
G36*
X7414354D02*
X7368445D01*
X7326031Y7120931D01*
X7293569Y7088469D01*
X7276000Y7046054D01*
Y7000146D01*
X7293569Y6957731D01*
X7326031Y6925269D01*
X7368445Y6907700D01*
X7414354D01*
X7456768Y6925269D01*
X7489231Y6957731D01*
X7506800Y7000146D01*
Y7046054D01*
X7489231Y7088469D01*
X7456768Y7120931D01*
X7414354Y7138500D01*
D02*
G37*
G36*
X2953671Y7098100D02*
X2913729D01*
X2876828Y7082815D01*
X2848585Y7054572D01*
X2833300Y7017671D01*
Y6977729D01*
X2848585Y6940828D01*
X2876828Y6912585D01*
X2913729Y6897300D01*
X2953671D01*
X2990572Y6912585D01*
X3018815Y6940828D01*
X3034100Y6977729D01*
Y7017671D01*
X3018815Y7054572D01*
X2990572Y7082815D01*
X2953671Y7098100D01*
D02*
G37*
G36*
X2699671D02*
X2659729D01*
X2622828Y7082815D01*
X2594585Y7054572D01*
X2579300Y7017671D01*
Y6977729D01*
X2594585Y6940828D01*
X2622828Y6912585D01*
X2659729Y6897300D01*
X2699671D01*
X2736572Y6912585D01*
X2764815Y6940828D01*
X2780100Y6977729D01*
Y7017671D01*
X2764815Y7054572D01*
X2736572Y7082815D01*
X2699671Y7098100D01*
D02*
G37*
G36*
X2445671D02*
X2405729D01*
X2368828Y7082815D01*
X2340585Y7054572D01*
X2325300Y7017671D01*
Y6977729D01*
X2340585Y6940828D01*
X2368828Y6912585D01*
X2405729Y6897300D01*
X2445671D01*
X2482572Y6912585D01*
X2510815Y6940828D01*
X2526100Y6977729D01*
Y7017671D01*
X2510815Y7054572D01*
X2482572Y7082815D01*
X2445671Y7098100D01*
D02*
G37*
G36*
X2191671D02*
X2151729D01*
X2114828Y7082815D01*
X2086585Y7054572D01*
X2071300Y7017671D01*
Y6977729D01*
X2086585Y6940828D01*
X2114828Y6912585D01*
X2151729Y6897300D01*
X2191671D01*
X2228572Y6912585D01*
X2256815Y6940828D01*
X2272100Y6977729D01*
Y7017671D01*
X2256815Y7054572D01*
X2228572Y7082815D01*
X2191671Y7098100D01*
D02*
G37*
G36*
X5115655Y6973400D02*
X5069746D01*
X5027332Y6955831D01*
X4994869Y6923369D01*
X4977300Y6880954D01*
Y6835046D01*
X4994869Y6792631D01*
X5027332Y6760169D01*
X5069746Y6742600D01*
X5115655D01*
X5158069Y6760169D01*
X5190531Y6792631D01*
X5208100Y6835046D01*
Y6880954D01*
X5190531Y6923369D01*
X5158069Y6955831D01*
X5115655Y6973400D01*
D02*
G37*
G36*
X4099654D02*
X4053745D01*
X4011331Y6955831D01*
X3978869Y6923369D01*
X3961300Y6880954D01*
Y6835046D01*
X3978869Y6792631D01*
X4011331Y6760169D01*
X4053745Y6742600D01*
X4099654D01*
X4142068Y6760169D01*
X4174531Y6792631D01*
X4192100Y6835046D01*
Y6880954D01*
X4174531Y6923369D01*
X4142068Y6955831D01*
X4099654Y6973400D01*
D02*
G37*
G36*
X3756754D02*
X3710846D01*
X3668431Y6955831D01*
X3635969Y6923369D01*
X3618400Y6880954D01*
Y6835046D01*
X3635969Y6792631D01*
X3668431Y6760169D01*
X3710846Y6742600D01*
X3756754D01*
X3799169Y6760169D01*
X3831631Y6792631D01*
X3849200Y6835046D01*
Y6880954D01*
X3831631Y6923369D01*
X3799169Y6955831D01*
X3756754Y6973400D01*
D02*
G37*
G36*
X3595200D02*
X3364400D01*
Y6742600D01*
X3595200D01*
Y6973400D01*
D02*
G37*
G36*
X1600820Y7001510D02*
X1548780D01*
X1500702Y6981595D01*
X1463905Y6944798D01*
X1443990Y6896720D01*
Y6844680D01*
X1463905Y6796602D01*
X1500702Y6759805D01*
X1548780Y6739890D01*
X1600820D01*
X1648898Y6759805D01*
X1685695Y6796602D01*
X1705610Y6844680D01*
Y6896720D01*
X1685695Y6944798D01*
X1648898Y6981595D01*
X1600820Y7001510D01*
D02*
G37*
G36*
X7668354Y6884500D02*
X7622446D01*
X7580031Y6866931D01*
X7547569Y6834469D01*
X7530000Y6792054D01*
Y6746146D01*
X7547569Y6703731D01*
X7580031Y6671269D01*
X7622446Y6653700D01*
X7668354D01*
X7710769Y6671269D01*
X7743231Y6703731D01*
X7760800Y6746146D01*
Y6792054D01*
X7743231Y6834469D01*
X7710769Y6866931D01*
X7668354Y6884500D01*
D02*
G37*
G36*
X7414354D02*
X7368446D01*
X7326031Y6866931D01*
X7293569Y6834469D01*
X7276000Y6792054D01*
Y6746146D01*
X7293569Y6703731D01*
X7326031Y6671269D01*
X7368446Y6653700D01*
X7414354D01*
X7456769Y6671269D01*
X7489231Y6703731D01*
X7506800Y6746146D01*
Y6792054D01*
X7489231Y6834469D01*
X7456769Y6866931D01*
X7414354Y6884500D01*
D02*
G37*
G36*
X5115655Y6719400D02*
X5069746D01*
X5027332Y6701831D01*
X4994869Y6669369D01*
X4977300Y6626954D01*
Y6581046D01*
X4994869Y6538631D01*
X5027332Y6506169D01*
X5069746Y6488600D01*
X5115655D01*
X5158069Y6506169D01*
X5190531Y6538631D01*
X5208100Y6581046D01*
Y6626954D01*
X5190531Y6669369D01*
X5158069Y6701831D01*
X5115655Y6719400D01*
D02*
G37*
G36*
X4099654D02*
X4053745D01*
X4011331Y6701831D01*
X3978869Y6669369D01*
X3961300Y6626954D01*
Y6581046D01*
X3978869Y6538631D01*
X4011331Y6506169D01*
X4053745Y6488600D01*
X4099654D01*
X4142068Y6506169D01*
X4174531Y6538631D01*
X4192100Y6581046D01*
Y6626954D01*
X4174531Y6669369D01*
X4142068Y6701831D01*
X4099654Y6719400D01*
D02*
G37*
G36*
X3756754D02*
X3710846D01*
X3668431Y6701831D01*
X3635969Y6669369D01*
X3618400Y6626954D01*
Y6581046D01*
X3635969Y6538631D01*
X3668431Y6506169D01*
X3710846Y6488600D01*
X3756754D01*
X3799169Y6506169D01*
X3831631Y6538631D01*
X3849200Y6581046D01*
Y6626954D01*
X3831631Y6669369D01*
X3799169Y6701831D01*
X3756754Y6719400D01*
D02*
G37*
G36*
X3502754D02*
X3456846D01*
X3414431Y6701831D01*
X3381969Y6669369D01*
X3364400Y6626954D01*
Y6581046D01*
X3381969Y6538631D01*
X3414431Y6506169D01*
X3456846Y6488600D01*
X3502754D01*
X3545169Y6506169D01*
X3577631Y6538631D01*
X3595200Y6581046D01*
Y6626954D01*
X3577631Y6669369D01*
X3545169Y6701831D01*
X3502754Y6719400D01*
D02*
G37*
G36*
X584820Y6747510D02*
X532780D01*
X484702Y6727595D01*
X447905Y6690798D01*
X427990Y6642720D01*
Y6590680D01*
X447905Y6542602D01*
X484702Y6505805D01*
X532780Y6485890D01*
X584820D01*
X632898Y6505805D01*
X669695Y6542602D01*
X689610Y6590680D01*
Y6642720D01*
X669695Y6690798D01*
X632898Y6727595D01*
X584820Y6747510D01*
D02*
G37*
G36*
X7414354Y6630500D02*
X7368446D01*
X7326031Y6612931D01*
X7293569Y6580469D01*
X7276000Y6538054D01*
Y6492146D01*
X7293569Y6449731D01*
X7326031Y6417269D01*
X7368446Y6399700D01*
X7414354D01*
X7456769Y6417269D01*
X7489231Y6449731D01*
X7506800Y6492146D01*
Y6538054D01*
X7489231Y6580469D01*
X7456769Y6612931D01*
X7414354Y6630500D01*
D02*
G37*
G36*
X7760800Y6630500D02*
X7530000D01*
Y6399700D01*
X7760800D01*
Y6630500D01*
D02*
G37*
G36*
X2704700Y6328172D02*
Y6260700D01*
X2772172D01*
X2760237Y6289513D01*
X2733513Y6316237D01*
X2704700Y6328172D01*
D02*
G37*
G36*
X2654700D02*
X2625887Y6316237D01*
X2599163Y6289513D01*
X2587228Y6260700D01*
X2654700D01*
Y6328172D01*
D02*
G37*
G36*
X5115655Y6465400D02*
X5069746D01*
X5027332Y6447831D01*
X4994869Y6415369D01*
X4977300Y6372954D01*
Y6327046D01*
X4994869Y6284631D01*
X5027332Y6252169D01*
X5069746Y6234600D01*
X5115655D01*
X5158069Y6252169D01*
X5190531Y6284631D01*
X5208100Y6327046D01*
Y6372954D01*
X5190531Y6415369D01*
X5158069Y6447831D01*
X5115655Y6465400D01*
D02*
G37*
G36*
X4099654D02*
X4053745D01*
X4011331Y6447831D01*
X3978869Y6415369D01*
X3961300Y6372954D01*
Y6327046D01*
X3978869Y6284631D01*
X4011331Y6252169D01*
X4053745Y6234600D01*
X4099654D01*
X4142068Y6252169D01*
X4174531Y6284631D01*
X4192100Y6327046D01*
Y6372954D01*
X4174531Y6415369D01*
X4142068Y6447831D01*
X4099654Y6465400D01*
D02*
G37*
G36*
X3756754D02*
X3710846D01*
X3668431Y6447831D01*
X3635969Y6415369D01*
X3618400Y6372954D01*
Y6327046D01*
X3635969Y6284631D01*
X3668431Y6252169D01*
X3710846Y6234600D01*
X3756754D01*
X3799169Y6252169D01*
X3831631Y6284631D01*
X3849200Y6327046D01*
Y6372954D01*
X3831631Y6415369D01*
X3799169Y6447831D01*
X3756754Y6465400D01*
D02*
G37*
G36*
X3502754D02*
X3456846D01*
X3414431Y6447831D01*
X3381969Y6415369D01*
X3364400Y6372954D01*
Y6327046D01*
X3381969Y6284631D01*
X3414431Y6252169D01*
X3456846Y6234600D01*
X3502754D01*
X3545169Y6252169D01*
X3577631Y6284631D01*
X3595200Y6327046D01*
Y6372954D01*
X3577631Y6415369D01*
X3545169Y6447831D01*
X3502754Y6465400D01*
D02*
G37*
G36*
X1600820Y6493510D02*
X1548780D01*
X1500702Y6473595D01*
X1463905Y6436798D01*
X1443990Y6388720D01*
Y6336680D01*
X1463905Y6288602D01*
X1500702Y6251805D01*
X1548780Y6231890D01*
X1600820D01*
X1648898Y6251805D01*
X1685695Y6288602D01*
X1705610Y6336680D01*
Y6388720D01*
X1685695Y6436798D01*
X1648898Y6473595D01*
X1600820Y6493510D01*
D02*
G37*
G36*
X5509354Y6389200D02*
X5463446D01*
X5421031Y6371631D01*
X5388569Y6339168D01*
X5371000Y6296754D01*
Y6250845D01*
X5388569Y6208431D01*
X5421031Y6175969D01*
X5463446Y6158400D01*
X5509354D01*
X5551769Y6175969D01*
X5584231Y6208431D01*
X5601800Y6250845D01*
Y6296754D01*
X5584231Y6339168D01*
X5551769Y6371631D01*
X5509354Y6389200D01*
D02*
G37*
G36*
X2772172Y6210700D02*
X2704700D01*
Y6143228D01*
X2733513Y6155163D01*
X2760237Y6181887D01*
X2772172Y6210700D01*
D02*
G37*
G36*
X2654700D02*
X2587228D01*
X2599163Y6181887D01*
X2625887Y6155163D01*
X2654700Y6143228D01*
Y6210700D01*
D02*
G37*
G36*
X2953671Y6336100D02*
X2913729D01*
X2876828Y6320815D01*
X2848585Y6292572D01*
X2833300Y6255671D01*
Y6215729D01*
X2848585Y6178828D01*
X2876828Y6150585D01*
X2913729Y6135300D01*
X2953671D01*
X2990572Y6150585D01*
X3018815Y6178828D01*
X3034100Y6215729D01*
Y6255671D01*
X3018815Y6292572D01*
X2990572Y6320815D01*
X2953671Y6336100D01*
D02*
G37*
G36*
X2445671D02*
X2405729D01*
X2368828Y6320815D01*
X2340585Y6292572D01*
X2325300Y6255671D01*
Y6215729D01*
X2340585Y6178828D01*
X2368828Y6150585D01*
X2405729Y6135300D01*
X2445671D01*
X2482572Y6150585D01*
X2510815Y6178828D01*
X2526100Y6215729D01*
Y6255671D01*
X2510815Y6292572D01*
X2482572Y6320815D01*
X2445671Y6336100D01*
D02*
G37*
G36*
X2272100D02*
X2071300D01*
Y6135300D01*
X2272100D01*
Y6336100D01*
D02*
G37*
G36*
X6385654Y6186000D02*
X6339746D01*
X6297331Y6168431D01*
X6264869Y6135968D01*
X6247300Y6093554D01*
Y6047645D01*
X6264869Y6005231D01*
X6297331Y5972769D01*
X6339746Y5955200D01*
X6385654D01*
X6428069Y5972769D01*
X6460531Y6005231D01*
X6478100Y6047645D01*
Y6093554D01*
X6460531Y6135968D01*
X6428069Y6168431D01*
X6385654Y6186000D01*
D02*
G37*
G36*
X7007954Y6173300D02*
X6962046D01*
X6919631Y6155731D01*
X6887169Y6123268D01*
X6869600Y6080854D01*
Y6034945D01*
X6887169Y5992531D01*
X6919631Y5960069D01*
X6962046Y5942500D01*
X7007954D01*
X7050369Y5960069D01*
X7082831Y5992531D01*
X7100400Y6034945D01*
Y6080854D01*
X7082831Y6123268D01*
X7050369Y6155731D01*
X7007954Y6173300D01*
D02*
G37*
G36*
X6703154D02*
X6657246D01*
X6614831Y6155731D01*
X6582369Y6123268D01*
X6564800Y6080854D01*
Y6034945D01*
X6582369Y5992531D01*
X6614831Y5960069D01*
X6657246Y5942500D01*
X6703154D01*
X6745569Y5960069D01*
X6778031Y5992531D01*
X6795600Y6034945D01*
Y6080854D01*
X6778031Y6123268D01*
X6745569Y6155731D01*
X6703154Y6173300D01*
D02*
G37*
G36*
X3466700Y5925308D02*
Y5841600D01*
X3550408D01*
X3534953Y5878910D01*
X3504010Y5909853D01*
X3466700Y5925308D01*
D02*
G37*
G36*
X3416700D02*
X3379390Y5909853D01*
X3348447Y5878910D01*
X3332992Y5841600D01*
X3416700D01*
Y5925308D01*
D02*
G37*
G36*
X556354Y6046300D02*
X510445D01*
X468031Y6028731D01*
X435569Y5996269D01*
X418000Y5953855D01*
Y5907946D01*
X435569Y5865532D01*
X468031Y5833069D01*
X510445Y5815500D01*
X556354D01*
X598768Y5833069D01*
X631231Y5865532D01*
X648800Y5907946D01*
Y5953855D01*
X631231Y5996269D01*
X598768Y6028731D01*
X556354Y6046300D01*
D02*
G37*
G36*
X1572354Y6046300D02*
X1526445D01*
X1484031Y6028731D01*
X1451569Y5996269D01*
X1434000Y5953854D01*
Y5907946D01*
X1451569Y5865531D01*
X1484031Y5833069D01*
X1526445Y5815500D01*
X1572354D01*
X1614768Y5833069D01*
X1647231Y5865531D01*
X1664800Y5907946D01*
Y5953854D01*
X1647231Y5996269D01*
X1614768Y6028731D01*
X1572354Y6046300D01*
D02*
G37*
G36*
X3550408Y5791600D02*
X3466700D01*
Y5707892D01*
X3504010Y5723347D01*
X3534953Y5754290D01*
X3550408Y5791600D01*
D02*
G37*
G36*
X3416700D02*
X3332992D01*
X3348447Y5754290D01*
X3379390Y5723347D01*
X3416700Y5707892D01*
Y5791600D01*
D02*
G37*
G36*
X2956654Y5932000D02*
X2910746D01*
X2868331Y5914431D01*
X2835869Y5881969D01*
X2818300Y5839554D01*
Y5793646D01*
X2835869Y5751231D01*
X2868331Y5718769D01*
X2910746Y5701200D01*
X2956654D01*
X2999069Y5718769D01*
X3031531Y5751231D01*
X3049100Y5793646D01*
Y5839554D01*
X3031531Y5881969D01*
X2999069Y5914431D01*
X2956654Y5932000D01*
D02*
G37*
G36*
X5968600Y5760208D02*
Y5676500D01*
X6052308D01*
X6036853Y5713810D01*
X6005910Y5744753D01*
X5968600Y5760208D01*
D02*
G37*
G36*
X5918600D02*
X5881290Y5744753D01*
X5850347Y5713810D01*
X5834892Y5676500D01*
X5918600D01*
Y5760208D01*
D02*
G37*
G36*
X2438000Y5668024D02*
Y5613000D01*
X2493024D01*
X2483788Y5635299D01*
X2460299Y5658788D01*
X2438000Y5668024D01*
D02*
G37*
G36*
X2388000D02*
X2365701Y5658788D01*
X2342212Y5635299D01*
X2332976Y5613000D01*
X2388000D01*
Y5668024D01*
D02*
G37*
G36*
X7093870Y5790000D02*
X7053929D01*
X7017028Y5774715D01*
X6988785Y5746472D01*
X6973500Y5709571D01*
Y5669629D01*
X6988785Y5632728D01*
X7017028Y5604485D01*
X7053929Y5589200D01*
X7093870D01*
X7130772Y5604485D01*
X7159015Y5632728D01*
X7174300Y5669629D01*
Y5709571D01*
X7159015Y5746472D01*
X7130772Y5774715D01*
X7093870Y5790000D01*
D02*
G37*
G36*
X6331871D02*
X6291930D01*
X6255028Y5774715D01*
X6226785Y5746472D01*
X6211500Y5709571D01*
Y5669629D01*
X6226785Y5632728D01*
X6255028Y5604485D01*
X6291930Y5589200D01*
X6331871D01*
X6368772Y5604485D01*
X6397015Y5632728D01*
X6412300Y5669629D01*
Y5709571D01*
X6397015Y5746472D01*
X6368772Y5774715D01*
X6331871Y5790000D01*
D02*
G37*
G36*
X7490554Y5792300D02*
X7444646D01*
X7402231Y5774731D01*
X7369769Y5742268D01*
X7352200Y5699854D01*
Y5653945D01*
X7369769Y5611531D01*
X7402231Y5579069D01*
X7444646Y5561500D01*
X7490554D01*
X7532969Y5579069D01*
X7565431Y5611531D01*
X7583000Y5653945D01*
Y5699854D01*
X7565431Y5742268D01*
X7532969Y5774731D01*
X7490554Y5792300D01*
D02*
G37*
G36*
X4546200Y5633208D02*
Y5549500D01*
X4629908D01*
X4614453Y5586810D01*
X4583510Y5617753D01*
X4546200Y5633208D01*
D02*
G37*
G36*
X4496200D02*
X4458890Y5617753D01*
X4427947Y5586810D01*
X4412492Y5549500D01*
X4496200D01*
Y5633208D01*
D02*
G37*
G36*
X4292200D02*
Y5549500D01*
X4375908D01*
X4360453Y5586810D01*
X4329510Y5617753D01*
X4292200Y5633208D01*
D02*
G37*
G36*
X4242200D02*
X4204890Y5617753D01*
X4173947Y5586810D01*
X4158492Y5549500D01*
X4242200D01*
Y5633208D01*
D02*
G37*
G36*
X6052308Y5626500D02*
X5968600D01*
Y5542792D01*
X6005910Y5558247D01*
X6036853Y5589190D01*
X6052308Y5626500D01*
D02*
G37*
G36*
X5918600D02*
X5834892D01*
X5850347Y5589190D01*
X5881290Y5558247D01*
X5918600Y5542792D01*
Y5626500D01*
D02*
G37*
G36*
X2493024Y5563000D02*
X2438000D01*
Y5507976D01*
X2460299Y5517212D01*
X2483788Y5540701D01*
X2493024Y5563000D01*
D02*
G37*
G36*
X2388000D02*
X2332976D01*
X2342212Y5540701D01*
X2365701Y5517212D01*
X2388000Y5507976D01*
Y5563000D01*
D02*
G37*
G36*
X7098900Y5528071D02*
Y5460600D01*
X7166371D01*
X7154437Y5489413D01*
X7127713Y5516137D01*
X7098900Y5528071D01*
D02*
G37*
G36*
X7048900Y5528072D02*
X7020087Y5516137D01*
X6993363Y5489413D01*
X6981428Y5460600D01*
X7048900D01*
Y5528072D01*
D02*
G37*
G36*
X4629908Y5499500D02*
X4546200D01*
Y5415792D01*
X4583510Y5431247D01*
X4614453Y5462190D01*
X4629908Y5499500D01*
D02*
G37*
G36*
X4496200D02*
X4412492D01*
X4427947Y5462190D01*
X4458890Y5431247D01*
X4496200Y5415792D01*
Y5499500D01*
D02*
G37*
G36*
X4375908D02*
X4292200D01*
Y5415792D01*
X4329510Y5431247D01*
X4360453Y5462190D01*
X4375908Y5499500D01*
D02*
G37*
G36*
X4242200D02*
X4158492D01*
X4173947Y5462190D01*
X4204890Y5431247D01*
X4242200Y5415792D01*
Y5499500D01*
D02*
G37*
G36*
X4798155Y5639900D02*
X4752246D01*
X4709832Y5622331D01*
X4677369Y5589869D01*
X4659800Y5547454D01*
Y5501546D01*
X4677369Y5459131D01*
X4709832Y5426669D01*
X4752246Y5409100D01*
X4798155D01*
X4840569Y5426669D01*
X4873031Y5459131D01*
X4890600Y5501546D01*
Y5547454D01*
X4873031Y5589869D01*
X4840569Y5622331D01*
X4798155Y5639900D01*
D02*
G37*
G36*
X4036154D02*
X3990246D01*
X3947831Y5622331D01*
X3915369Y5589869D01*
X3897800Y5547454D01*
Y5501546D01*
X3915369Y5459131D01*
X3947831Y5426669D01*
X3990246Y5409100D01*
X4036154D01*
X4078569Y5426669D01*
X4111031Y5459131D01*
X4128600Y5501546D01*
Y5547454D01*
X4111031Y5589869D01*
X4078569Y5622331D01*
X4036154Y5639900D01*
D02*
G37*
G36*
X1585055Y5614500D02*
X1539146D01*
X1496732Y5596931D01*
X1464269Y5564469D01*
X1446700Y5522054D01*
Y5476146D01*
X1464269Y5433731D01*
X1496732Y5401269D01*
X1539146Y5383700D01*
X1585055D01*
X1627469Y5401269D01*
X1659931Y5433731D01*
X1677500Y5476146D01*
Y5522054D01*
X1659931Y5564469D01*
X1627469Y5596931D01*
X1585055Y5614500D01*
D02*
G37*
G36*
X569054D02*
X523145D01*
X480731Y5596931D01*
X448269Y5564469D01*
X430700Y5522054D01*
Y5476146D01*
X448269Y5433731D01*
X480731Y5401269D01*
X523145Y5383700D01*
X569054D01*
X611468Y5401269D01*
X643931Y5433731D01*
X661500Y5476146D01*
Y5522054D01*
X643931Y5564469D01*
X611468Y5596931D01*
X569054Y5614500D01*
D02*
G37*
G36*
X6730600Y5414024D02*
Y5359000D01*
X6785624D01*
X6776388Y5381299D01*
X6752899Y5404788D01*
X6730600Y5414024D01*
D02*
G37*
G36*
X6680600D02*
X6658301Y5404788D01*
X6634812Y5381299D01*
X6625576Y5359000D01*
X6680600D01*
Y5414024D01*
D02*
G37*
G36*
X7166371Y5410600D02*
X7098900D01*
Y5343129D01*
X7127713Y5355063D01*
X7154437Y5381787D01*
X7166371Y5410600D01*
D02*
G37*
G36*
X7048900D02*
X6981428D01*
X6993363Y5381787D01*
X7020087Y5355063D01*
X7048900Y5343128D01*
Y5410600D01*
D02*
G37*
G36*
X6331871Y5536000D02*
X6291929D01*
X6255028Y5520715D01*
X6226785Y5492472D01*
X6211500Y5455571D01*
Y5415629D01*
X6226785Y5378728D01*
X6255028Y5350485D01*
X6291929Y5335200D01*
X6331871D01*
X6368772Y5350485D01*
X6397015Y5378728D01*
X6412300Y5415629D01*
Y5455571D01*
X6397015Y5492472D01*
X6368772Y5520715D01*
X6331871Y5536000D01*
D02*
G37*
G36*
X6785624Y5309000D02*
X6730600D01*
Y5253976D01*
X6752899Y5263212D01*
X6776388Y5286701D01*
X6785624Y5309000D01*
D02*
G37*
G36*
X6680600D02*
X6625576D01*
X6634812Y5286701D01*
X6658301Y5263212D01*
X6680600Y5253976D01*
Y5309000D01*
D02*
G37*
G36*
X7492600Y5277608D02*
Y5193900D01*
X7576308D01*
X7560853Y5231210D01*
X7529910Y5262153D01*
X7492600Y5277608D01*
D02*
G37*
G36*
X7442600D02*
X7405290Y5262153D01*
X7374347Y5231210D01*
X7358892Y5193900D01*
X7442600D01*
Y5277608D01*
D02*
G37*
G36*
X4798155Y5385900D02*
X4752246D01*
X4709832Y5368331D01*
X4677369Y5335869D01*
X4659800Y5293454D01*
Y5247546D01*
X4677369Y5205131D01*
X4709832Y5172669D01*
X4752246Y5155100D01*
X4798155D01*
X4840569Y5172669D01*
X4873031Y5205131D01*
X4890600Y5247546D01*
Y5293454D01*
X4873031Y5335869D01*
X4840569Y5368331D01*
X4798155Y5385900D01*
D02*
G37*
G36*
X4544154D02*
X4498246D01*
X4455831Y5368331D01*
X4423369Y5335869D01*
X4405800Y5293454D01*
Y5247546D01*
X4423369Y5205131D01*
X4455831Y5172669D01*
X4498246Y5155100D01*
X4544154D01*
X4586569Y5172669D01*
X4619031Y5205131D01*
X4636600Y5247546D01*
Y5293454D01*
X4619031Y5335869D01*
X4586569Y5368331D01*
X4544154Y5385900D01*
D02*
G37*
G36*
X4290154D02*
X4244246D01*
X4201831Y5368331D01*
X4169369Y5335869D01*
X4151800Y5293454D01*
Y5247546D01*
X4169369Y5205131D01*
X4201831Y5172669D01*
X4244246Y5155100D01*
X4290154D01*
X4332569Y5172669D01*
X4365031Y5205131D01*
X4382600Y5247546D01*
Y5293454D01*
X4365031Y5335869D01*
X4332569Y5368331D01*
X4290154Y5385900D01*
D02*
G37*
G36*
X4128600D02*
X3897800D01*
Y5155100D01*
X4128600D01*
Y5385900D01*
D02*
G37*
G36*
X7093870Y5282000D02*
X7053929D01*
X7017028Y5266715D01*
X6988785Y5238472D01*
X6973500Y5201571D01*
Y5161630D01*
X6988785Y5124728D01*
X7017028Y5096485D01*
X7053929Y5081200D01*
X7093870D01*
X7130772Y5096485D01*
X7159015Y5124728D01*
X7174300Y5161630D01*
Y5201571D01*
X7159015Y5238472D01*
X7130772Y5266715D01*
X7093870Y5282000D01*
D02*
G37*
G36*
X6331871Y5282000D02*
X6291929D01*
X6255028Y5266715D01*
X6226785Y5238472D01*
X6211500Y5201571D01*
Y5161629D01*
X6226785Y5124728D01*
X6255028Y5096485D01*
X6291929Y5081200D01*
X6331871D01*
X6368772Y5096485D01*
X6397015Y5124728D01*
X6412300Y5161629D01*
Y5201571D01*
X6397015Y5238472D01*
X6368772Y5266715D01*
X6331871Y5282000D01*
D02*
G37*
G36*
X7576308Y5143900D02*
X7492600D01*
Y5060192D01*
X7529910Y5075647D01*
X7560853Y5106590D01*
X7576308Y5143900D01*
D02*
G37*
G36*
X7442600D02*
X7358892D01*
X7374347Y5106590D01*
X7405290Y5075647D01*
X7442600Y5060192D01*
Y5143900D01*
D02*
G37*
G36*
X5966554Y5258900D02*
X5920646D01*
X5878231Y5241331D01*
X5845769Y5208869D01*
X5828200Y5166454D01*
Y5120546D01*
X5845769Y5078131D01*
X5878231Y5045669D01*
X5920646Y5028100D01*
X5966554D01*
X6008969Y5045669D01*
X6041431Y5078131D01*
X6059000Y5120546D01*
Y5166454D01*
X6041431Y5208869D01*
X6008969Y5241331D01*
X5966554Y5258900D01*
D02*
G37*
G36*
X3401154Y5170000D02*
X3355246D01*
X3312831Y5152431D01*
X3280369Y5119969D01*
X3262800Y5077555D01*
Y5031646D01*
X3280369Y4989232D01*
X3312831Y4956769D01*
X3355246Y4939200D01*
X3401154D01*
X3443569Y4956769D01*
X3476031Y4989232D01*
X3493600Y5031646D01*
Y5077555D01*
X3476031Y5119969D01*
X3443569Y5152431D01*
X3401154Y5170000D01*
D02*
G37*
G36*
X1216754Y5157300D02*
X1170845D01*
X1128431Y5139731D01*
X1095969Y5107269D01*
X1078400Y5064854D01*
Y5018946D01*
X1095969Y4976531D01*
X1128431Y4944069D01*
X1170845Y4926500D01*
X1216754D01*
X1259168Y4944069D01*
X1291631Y4976531D01*
X1309200Y5018946D01*
Y5064854D01*
X1291631Y5107269D01*
X1259168Y5139731D01*
X1216754Y5157300D01*
D02*
G37*
G36*
X708755D02*
X662846D01*
X620432Y5139731D01*
X587969Y5107269D01*
X570400Y5064854D01*
Y5018946D01*
X587969Y4976531D01*
X620432Y4944069D01*
X662846Y4926500D01*
X708755D01*
X751169Y4944069D01*
X783631Y4976531D01*
X801200Y5018946D01*
Y5064854D01*
X783631Y5107269D01*
X751169Y5139731D01*
X708755Y5157300D01*
D02*
G37*
G36*
X2943954Y5131900D02*
X2898046D01*
X2855631Y5114331D01*
X2823169Y5081869D01*
X2805600Y5039454D01*
Y4993546D01*
X2823169Y4951131D01*
X2855631Y4918669D01*
X2898046Y4901100D01*
X2943954D01*
X2986369Y4918669D01*
X3018831Y4951131D01*
X3036400Y4993546D01*
Y5039454D01*
X3018831Y5081869D01*
X2986369Y5114331D01*
X2943954Y5131900D01*
D02*
G37*
G36*
X1927954D02*
X1882046D01*
X1839631Y5114331D01*
X1807169Y5081869D01*
X1789600Y5039454D01*
Y4993546D01*
X1807169Y4951131D01*
X1839631Y4918669D01*
X1882046Y4901100D01*
X1927954D01*
X1970369Y4918669D01*
X2002831Y4951131D01*
X2020400Y4993546D01*
Y5039454D01*
X2002831Y5081869D01*
X1970369Y5114331D01*
X1927954Y5131900D01*
D02*
G37*
G36*
X4881783Y5854700D02*
X4846417D01*
X4813742Y5841166D01*
X4788734Y5816158D01*
X4775200Y5783483D01*
Y5748117D01*
X4788734Y5715442D01*
X4813742Y5690434D01*
X4846417Y5676900D01*
X4870594D01*
X5549880Y4997614D01*
Y4845776D01*
X5538147Y4840916D01*
X5523310Y4855753D01*
X5486000Y4871208D01*
Y4762500D01*
Y4653792D01*
X5523310Y4669247D01*
X5538147Y4684084D01*
X5549880Y4679224D01*
Y4345414D01*
X5538147Y4340553D01*
X5526369Y4352332D01*
X5483954Y4369901D01*
X5438046D01*
X5395631Y4352332D01*
X5363169Y4319869D01*
X5345600Y4277455D01*
Y4231546D01*
X5363169Y4189132D01*
X5395631Y4156670D01*
X5438046Y4139101D01*
X5483954D01*
X5526369Y4156670D01*
X5538147Y4168448D01*
X5549880Y4163588D01*
Y3694404D01*
X5525334Y3669858D01*
X5511800Y3637183D01*
Y3601817D01*
X5525334Y3569142D01*
X5550342Y3544134D01*
X5583017Y3530600D01*
X5618383D01*
X5651058Y3544134D01*
X5676066Y3569142D01*
X5689600Y3601817D01*
Y3637183D01*
X5676066Y3669858D01*
X5666420Y3679504D01*
Y5021750D01*
X5661984Y5044049D01*
X5649353Y5062953D01*
X4953000Y5759306D01*
Y5783483D01*
X4939466Y5816158D01*
X4914458Y5841166D01*
X4881783Y5854700D01*
D02*
G37*
G36*
X7174300Y5028000D02*
X6973500D01*
Y4827200D01*
X7174300D01*
Y5028000D01*
D02*
G37*
G36*
X6331871D02*
X6291930D01*
X6255028Y5012715D01*
X6226785Y4984472D01*
X6211500Y4947571D01*
Y4907629D01*
X6226785Y4870728D01*
X6255028Y4842485D01*
X6291930Y4827200D01*
X6331871D01*
X6368772Y4842485D01*
X6397015Y4870728D01*
X6412300Y4907629D01*
Y4947571D01*
X6397015Y4984472D01*
X6368772Y5012715D01*
X6331871Y5028000D01*
D02*
G37*
G36*
X5436000Y4871208D02*
X5398690Y4855753D01*
X5367747Y4824810D01*
X5352292Y4787500D01*
X5436000D01*
Y4871208D01*
D02*
G37*
G36*
X4975954Y4928700D02*
X4930046D01*
X4887631Y4911131D01*
X4855169Y4878669D01*
X4837600Y4836254D01*
Y4790346D01*
X4855169Y4747931D01*
X4887631Y4715469D01*
X4930046Y4697900D01*
X4975954D01*
X5018369Y4715469D01*
X5050831Y4747931D01*
X5068400Y4790346D01*
Y4836254D01*
X5050831Y4878669D01*
X5018369Y4911131D01*
X4975954Y4928700D01*
D02*
G37*
G36*
X4467954D02*
X4422046D01*
X4379631Y4911131D01*
X4347169Y4878669D01*
X4329600Y4836254D01*
Y4790346D01*
X4347169Y4747931D01*
X4379631Y4715469D01*
X4422046Y4697900D01*
X4467954D01*
X4510369Y4715469D01*
X4542831Y4747931D01*
X4560400Y4790346D01*
Y4836254D01*
X4542831Y4878669D01*
X4510369Y4911131D01*
X4467954Y4928700D01*
D02*
G37*
G36*
X5436000Y4737500D02*
X5352292D01*
X5367747Y4700190D01*
X5398690Y4669247D01*
X5436000Y4653792D01*
Y4737500D01*
D02*
G37*
G36*
X5130400Y4423424D02*
Y4368400D01*
X5185424D01*
X5176188Y4390699D01*
X5152699Y4414188D01*
X5130400Y4423424D01*
D02*
G37*
G36*
X5080400D02*
X5058101Y4414188D01*
X5034612Y4390699D01*
X5025376Y4368400D01*
X5080400D01*
Y4423424D01*
D02*
G37*
G36*
X4571600Y4435872D02*
Y4368400D01*
X4639072D01*
X4627137Y4397213D01*
X4600413Y4423937D01*
X4571600Y4435872D01*
D02*
G37*
G36*
X4521600D02*
X4492787Y4423937D01*
X4466063Y4397213D01*
X4454128Y4368400D01*
X4521600D01*
Y4435872D01*
D02*
G37*
G36*
X7376254Y4598500D02*
X7330345D01*
X7287931Y4580931D01*
X7255469Y4548469D01*
X7237900Y4506055D01*
Y4460146D01*
X7255469Y4417732D01*
X7287931Y4385269D01*
X7330345Y4367700D01*
X7376254D01*
X7418668Y4385269D01*
X7451131Y4417732D01*
X7468700Y4460146D01*
Y4506055D01*
X7451131Y4548469D01*
X7418668Y4580931D01*
X7376254Y4598500D01*
D02*
G37*
G36*
X6068155D02*
X6022246D01*
X5979832Y4580931D01*
X5947369Y4548469D01*
X5929800Y4506055D01*
Y4460146D01*
X5947369Y4417732D01*
X5979832Y4385269D01*
X6022246Y4367700D01*
X6068155D01*
X6110569Y4385269D01*
X6143031Y4417732D01*
X6160600Y4460146D01*
Y4506055D01*
X6143031Y4548469D01*
X6110569Y4580931D01*
X6068155Y4598500D01*
D02*
G37*
G36*
X875900Y4423172D02*
Y4355700D01*
X943372D01*
X931437Y4384513D01*
X904713Y4411237D01*
X875900Y4423172D01*
D02*
G37*
G36*
X825900D02*
X797087Y4411237D01*
X770363Y4384513D01*
X758428Y4355700D01*
X825900D01*
Y4423172D01*
D02*
G37*
G36*
X1847746Y4540250D02*
X1809854D01*
X1774845Y4525749D01*
X1748051Y4498955D01*
X1733550Y4463946D01*
Y4426053D01*
X1748051Y4391045D01*
X1774845Y4364251D01*
X1809854Y4349750D01*
X1847746D01*
X1882755Y4364251D01*
X1909549Y4391045D01*
X1924050Y4426053D01*
Y4463946D01*
X1909549Y4498955D01*
X1882755Y4525749D01*
X1847746Y4540250D01*
D02*
G37*
G36*
X3079000Y4379660D02*
Y4317600D01*
X3141060D01*
X3130298Y4343581D01*
X3104981Y4368898D01*
X3079000Y4379660D01*
D02*
G37*
G36*
X3029000D02*
X3003019Y4368898D01*
X2977702Y4343581D01*
X2966940Y4317600D01*
X3029000D01*
Y4379660D01*
D02*
G37*
G36*
X6972920Y4575810D02*
X6920880D01*
X6872802Y4555895D01*
X6836005Y4519098D01*
X6816090Y4471020D01*
Y4418980D01*
X6836005Y4370902D01*
X6872802Y4334105D01*
X6920880Y4314190D01*
X6972920D01*
X7020998Y4334105D01*
X7057795Y4370902D01*
X7077710Y4418980D01*
Y4471020D01*
X7057795Y4519098D01*
X7020998Y4555895D01*
X6972920Y4575810D01*
D02*
G37*
G36*
X6464920D02*
X6412880D01*
X6364802Y4555895D01*
X6328004Y4519098D01*
X6308090Y4471020D01*
Y4418980D01*
X6328004Y4370902D01*
X6364802Y4334105D01*
X6412880Y4314190D01*
X6464920D01*
X6512998Y4334105D01*
X6549795Y4370902D01*
X6569710Y4418980D01*
Y4471020D01*
X6549795Y4519098D01*
X6512998Y4555895D01*
X6464920Y4575810D01*
D02*
G37*
G36*
X5185424Y4318400D02*
X5130400D01*
Y4263376D01*
X5152699Y4272612D01*
X5176188Y4296101D01*
X5185424Y4318400D01*
D02*
G37*
G36*
X5080400D02*
X5025376D01*
X5034612Y4296101D01*
X5058101Y4272612D01*
X5080400Y4263376D01*
Y4318400D01*
D02*
G37*
G36*
X4639072D02*
X4571600D01*
Y4250928D01*
X4600413Y4262863D01*
X4627137Y4289587D01*
X4639072Y4318400D01*
D02*
G37*
G36*
X4521600D02*
X4454128D01*
X4466063Y4289587D01*
X4492787Y4262863D01*
X4521600Y4250928D01*
Y4318400D01*
D02*
G37*
G36*
X4312571Y4443800D02*
X4272629D01*
X4235728Y4428515D01*
X4207485Y4400272D01*
X4192200Y4363371D01*
Y4323429D01*
X4207485Y4286528D01*
X4235728Y4258285D01*
X4272629Y4243000D01*
X4312571D01*
X4349472Y4258285D01*
X4377715Y4286528D01*
X4393000Y4323429D01*
Y4363371D01*
X4377715Y4400272D01*
X4349472Y4428515D01*
X4312571Y4443800D01*
D02*
G37*
G36*
X4058571D02*
X4018629D01*
X3981728Y4428515D01*
X3953485Y4400272D01*
X3938200Y4363371D01*
Y4323429D01*
X3953485Y4286528D01*
X3981728Y4258285D01*
X4018629Y4243000D01*
X4058571D01*
X4095472Y4258285D01*
X4123715Y4286528D01*
X4139000Y4323429D01*
Y4363371D01*
X4123715Y4400272D01*
X4095472Y4428515D01*
X4058571Y4443800D01*
D02*
G37*
G36*
X3885000D02*
X3684200D01*
Y4243000D01*
X3885000D01*
Y4443800D01*
D02*
G37*
G36*
X943372Y4305700D02*
X875900D01*
Y4238228D01*
X904713Y4250163D01*
X931437Y4276887D01*
X943372Y4305700D01*
D02*
G37*
G36*
X825900D02*
X758428D01*
X770363Y4276887D01*
X797087Y4250163D01*
X825900Y4238228D01*
Y4305700D01*
D02*
G37*
G36*
X697300Y4431100D02*
X496500D01*
Y4230300D01*
X697300D01*
Y4431100D01*
D02*
G37*
G36*
X3141060Y4267600D02*
X3079000D01*
Y4205540D01*
X3104981Y4216302D01*
X3130298Y4241619D01*
X3141060Y4267600D01*
D02*
G37*
G36*
X3029000D02*
X2966940D01*
X2977702Y4241619D01*
X3003019Y4216302D01*
X3029000Y4205540D01*
Y4267600D01*
D02*
G37*
G36*
X2812976Y4388000D02*
X2775024D01*
X2739960Y4373476D01*
X2713124Y4346640D01*
X2698600Y4311576D01*
Y4273624D01*
X2713124Y4238560D01*
X2739960Y4211724D01*
X2775024Y4197200D01*
X2812976D01*
X2848040Y4211724D01*
X2874876Y4238560D01*
X2889400Y4273624D01*
Y4311576D01*
X2874876Y4346640D01*
X2848040Y4373476D01*
X2812976Y4388000D01*
D02*
G37*
G36*
X2629400D02*
X2438600D01*
Y4197200D01*
X2629400D01*
Y4388000D01*
D02*
G37*
G36*
X1682647Y4375150D02*
X1644754D01*
X1609745Y4360649D01*
X1582951Y4333855D01*
X1568450Y4298846D01*
Y4260954D01*
X1582951Y4225945D01*
X1609745Y4199151D01*
X1644754Y4184650D01*
X1682647D01*
X1717655Y4199151D01*
X1744449Y4225945D01*
X1758950Y4260954D01*
Y4298846D01*
X1744449Y4333855D01*
X1717655Y4360649D01*
X1682647Y4375150D01*
D02*
G37*
G36*
X1847746Y4210050D02*
X1809854D01*
X1774845Y4195549D01*
X1748051Y4168755D01*
X1733550Y4133747D01*
Y4095854D01*
X1748051Y4060845D01*
X1774845Y4034051D01*
X1809854Y4019550D01*
X1847746D01*
X1882755Y4034051D01*
X1909549Y4060845D01*
X1924050Y4095854D01*
Y4133747D01*
X1909549Y4168755D01*
X1882755Y4195549D01*
X1847746Y4210050D01*
D02*
G37*
G36*
X2971400Y4067824D02*
Y4012800D01*
X3026424D01*
X3017188Y4035099D01*
X2993699Y4058588D01*
X2971400Y4067824D01*
D02*
G37*
G36*
X2921400D02*
X2899101Y4058588D01*
X2875612Y4035099D01*
X2866376Y4012800D01*
X2921400D01*
Y4067824D01*
D02*
G37*
G36*
X4114400Y4045707D02*
Y3962000D01*
X4198107D01*
X4182653Y3999310D01*
X4151710Y4030253D01*
X4114400Y4045707D01*
D02*
G37*
G36*
X4064400D02*
X4027090Y4030253D01*
X3996146Y3999310D01*
X3980692Y3962000D01*
X4064400D01*
Y4045707D01*
D02*
G37*
G36*
X3401154Y4154000D02*
X3355246D01*
X3312831Y4136431D01*
X3280369Y4103968D01*
X3262800Y4061554D01*
Y4015645D01*
X3280369Y3973231D01*
X3312831Y3940769D01*
X3355246Y3923200D01*
X3401154D01*
X3443569Y3940769D01*
X3476031Y3973231D01*
X3493600Y4015645D01*
Y4061554D01*
X3476031Y4103968D01*
X3443569Y4136431D01*
X3401154Y4154000D01*
D02*
G37*
G36*
X3026424Y3962800D02*
X2971400D01*
Y3907776D01*
X2993699Y3917012D01*
X3017188Y3940501D01*
X3026424Y3962800D01*
D02*
G37*
G36*
X2921400D02*
X2866376D01*
X2875612Y3940501D01*
X2899101Y3917012D01*
X2921400Y3907776D01*
Y3962800D01*
D02*
G37*
G36*
X4198107Y3912000D02*
X4114400D01*
Y3828292D01*
X4151710Y3843746D01*
X4182653Y3874690D01*
X4198107Y3912000D01*
D02*
G37*
G36*
X4064400D02*
X3980692D01*
X3996146Y3874690D01*
X4027090Y3843746D01*
X4064400Y3828292D01*
Y3912000D01*
D02*
G37*
G36*
X5128355Y4052400D02*
X5082446D01*
X5040032Y4034831D01*
X5007569Y4002368D01*
X4990000Y3959954D01*
Y3914045D01*
X5007569Y3871631D01*
X5040032Y3839169D01*
X5082446Y3821600D01*
X5128355D01*
X5170769Y3839169D01*
X5203231Y3871631D01*
X5220800Y3914045D01*
Y3959954D01*
X5203231Y4002368D01*
X5170769Y4034831D01*
X5128355Y4052400D01*
D02*
G37*
G36*
X3758800Y3839224D02*
Y3784200D01*
X3813824D01*
X3804588Y3806499D01*
X3781099Y3829988D01*
X3758800Y3839224D01*
D02*
G37*
G36*
X3708800D02*
X3686501Y3829988D01*
X3663012Y3806499D01*
X3653776Y3784200D01*
X3708800D01*
Y3839224D01*
D02*
G37*
G36*
X1295000Y3804408D02*
Y3720700D01*
X1378708D01*
X1363253Y3758010D01*
X1332310Y3788953D01*
X1295000Y3804408D01*
D02*
G37*
G36*
X1245000D02*
X1207690Y3788953D01*
X1176747Y3758010D01*
X1161292Y3720700D01*
X1245000D01*
Y3804408D01*
D02*
G37*
G36*
X3813824Y3734200D02*
X3758800D01*
Y3679176D01*
X3781099Y3688412D01*
X3804588Y3711901D01*
X3813824Y3734200D01*
D02*
G37*
G36*
X3708800D02*
X3653776D01*
X3663012Y3711901D01*
X3686501Y3688412D01*
X3708800Y3679176D01*
Y3734200D01*
D02*
G37*
G36*
X2882500Y3740908D02*
Y3657200D01*
X2966208D01*
X2950753Y3694510D01*
X2919810Y3725453D01*
X2882500Y3740908D01*
D02*
G37*
G36*
X2832500D02*
X2795190Y3725453D01*
X2764247Y3694510D01*
X2748792Y3657200D01*
X2832500D01*
Y3740908D01*
D02*
G37*
G36*
X1378708Y3670700D02*
X1295000D01*
Y3586992D01*
X1332310Y3602447D01*
X1363253Y3633390D01*
X1378708Y3670700D01*
D02*
G37*
G36*
X1245000D02*
X1161292D01*
X1176747Y3633390D01*
X1207690Y3602447D01*
X1245000Y3586992D01*
Y3670700D01*
D02*
G37*
G36*
X784954Y3811100D02*
X739046D01*
X696631Y3793531D01*
X664169Y3761069D01*
X646600Y3718654D01*
Y3672746D01*
X664169Y3630331D01*
X696631Y3597869D01*
X739046Y3580300D01*
X784954D01*
X827369Y3597869D01*
X859831Y3630331D01*
X877400Y3672746D01*
Y3718654D01*
X859831Y3761069D01*
X827369Y3793531D01*
X784954Y3811100D01*
D02*
G37*
G36*
X2966208Y3607200D02*
X2882500D01*
Y3523492D01*
X2919810Y3538947D01*
X2950753Y3569890D01*
X2966208Y3607200D01*
D02*
G37*
G36*
X2832500D02*
X2748792D01*
X2764247Y3569890D01*
X2795190Y3538947D01*
X2832500Y3523492D01*
Y3607200D01*
D02*
G37*
G36*
X2372454Y3747600D02*
X2326546D01*
X2284131Y3730031D01*
X2251669Y3697569D01*
X2234100Y3655154D01*
Y3609246D01*
X2251669Y3566831D01*
X2284131Y3534369D01*
X2326546Y3516800D01*
X2372454D01*
X2414869Y3534369D01*
X2447331Y3566831D01*
X2464900Y3609246D01*
Y3655154D01*
X2447331Y3697569D01*
X2414869Y3730031D01*
X2372454Y3747600D01*
D02*
G37*
G36*
X4139800Y3550408D02*
Y3466700D01*
X4223508D01*
X4208053Y3504010D01*
X4177110Y3534953D01*
X4139800Y3550408D01*
D02*
G37*
G36*
X4089800D02*
X4052490Y3534953D01*
X4021547Y3504010D01*
X4006092Y3466700D01*
X4089800D01*
Y3550408D01*
D02*
G37*
G36*
X5392071Y3656400D02*
X5352129D01*
X5315228Y3641115D01*
X5286985Y3612872D01*
X5271700Y3575971D01*
Y3536029D01*
X5286985Y3499128D01*
X5315228Y3470885D01*
X5352129Y3455600D01*
X5392071D01*
X5428972Y3470885D01*
X5457215Y3499128D01*
X5472500Y3536029D01*
Y3575971D01*
X5457215Y3612872D01*
X5428972Y3641115D01*
X5392071Y3656400D01*
D02*
G37*
G36*
X4630071D02*
X4590129D01*
X4553228Y3641115D01*
X4524985Y3612872D01*
X4509700Y3575971D01*
Y3536029D01*
X4524985Y3499128D01*
X4553228Y3470885D01*
X4590129Y3455600D01*
X4630071D01*
X4666972Y3470885D01*
X4695215Y3499128D01*
X4710500Y3536029D01*
Y3575971D01*
X4695215Y3612872D01*
X4666972Y3641115D01*
X4630071Y3656400D01*
D02*
G37*
G36*
X1916100Y3632900D02*
X1665300D01*
Y3382100D01*
X1916100D01*
Y3632900D01*
D02*
G37*
G36*
X7376254Y3582500D02*
X7330346D01*
X7287931Y3564931D01*
X7255469Y3532468D01*
X7237900Y3490054D01*
Y3444145D01*
X7255469Y3401731D01*
X7287931Y3369269D01*
X7330346Y3351700D01*
X7376254D01*
X7418669Y3369269D01*
X7451131Y3401731D01*
X7468700Y3444145D01*
Y3490054D01*
X7451131Y3532468D01*
X7418669Y3564931D01*
X7376254Y3582500D01*
D02*
G37*
G36*
X6068154D02*
X6022246D01*
X5979831Y3564931D01*
X5947369Y3532468D01*
X5929800Y3490054D01*
Y3444145D01*
X5947369Y3401731D01*
X5979831Y3369269D01*
X6022246Y3351700D01*
X6068154D01*
X6110569Y3369269D01*
X6143031Y3401731D01*
X6160600Y3444145D01*
Y3490054D01*
X6143031Y3532468D01*
X6110569Y3564931D01*
X6068154Y3582500D01*
D02*
G37*
G36*
X4223508Y3416700D02*
X4139800D01*
Y3332992D01*
X4177110Y3348447D01*
X4208053Y3379390D01*
X4223508Y3416700D01*
D02*
G37*
G36*
X4089800D02*
X4006092D01*
X4021547Y3379390D01*
X4052490Y3348447D01*
X4089800Y3332992D01*
Y3416700D01*
D02*
G37*
G36*
X6718920Y3559810D02*
X6666880D01*
X6618802Y3539895D01*
X6582005Y3503098D01*
X6562090Y3455020D01*
Y3402980D01*
X6582005Y3354902D01*
X6618802Y3318105D01*
X6666880Y3298190D01*
X6718920D01*
X6766998Y3318105D01*
X6803795Y3354902D01*
X6823710Y3402980D01*
Y3455020D01*
X6803795Y3503098D01*
X6766998Y3539895D01*
X6718920Y3559810D01*
D02*
G37*
G36*
X3464654Y3519000D02*
X3418746D01*
X3376331Y3501431D01*
X3343869Y3468969D01*
X3326300Y3426554D01*
Y3380646D01*
X3343869Y3338231D01*
X3376331Y3305769D01*
X3418746Y3288200D01*
X3464654D01*
X3507069Y3305769D01*
X3539531Y3338231D01*
X3557100Y3380646D01*
Y3426554D01*
X3539531Y3468969D01*
X3507069Y3501431D01*
X3464654Y3519000D01*
D02*
G37*
G36*
X5392071Y3402400D02*
X5352129D01*
X5315228Y3387115D01*
X5286985Y3358872D01*
X5271700Y3321971D01*
Y3282029D01*
X5286985Y3245128D01*
X5315228Y3216885D01*
X5352129Y3201600D01*
X5392071D01*
X5428972Y3216885D01*
X5457215Y3245128D01*
X5472500Y3282029D01*
Y3321971D01*
X5457215Y3358872D01*
X5428972Y3387115D01*
X5392071Y3402400D01*
D02*
G37*
G36*
X4630071D02*
X4590129D01*
X4553228Y3387115D01*
X4524985Y3358872D01*
X4509700Y3321971D01*
Y3282029D01*
X4524985Y3245128D01*
X4553228Y3216885D01*
X4590129Y3201600D01*
X4630071D01*
X4666972Y3216885D01*
X4695215Y3245128D01*
X4710500Y3282029D01*
Y3321971D01*
X4695215Y3358872D01*
X4666972Y3387115D01*
X4630071Y3402400D01*
D02*
G37*
G36*
X1407255Y3379300D02*
X1361346D01*
X1318932Y3361731D01*
X1286469Y3329269D01*
X1268900Y3286854D01*
Y3240946D01*
X1286469Y3198531D01*
X1318932Y3166069D01*
X1361346Y3148500D01*
X1407255D01*
X1449669Y3166069D01*
X1482131Y3198531D01*
X1499700Y3240946D01*
Y3286854D01*
X1482131Y3329269D01*
X1449669Y3361731D01*
X1407255Y3379300D01*
D02*
G37*
G36*
X391254D02*
X345345D01*
X302931Y3361731D01*
X270469Y3329269D01*
X252900Y3286854D01*
Y3240946D01*
X270469Y3198531D01*
X302931Y3166069D01*
X345345Y3148500D01*
X391254D01*
X433668Y3166069D01*
X466131Y3198531D01*
X483700Y3240946D01*
Y3286854D01*
X466131Y3329269D01*
X433668Y3361731D01*
X391254Y3379300D01*
D02*
G37*
G36*
X2882500Y3182108D02*
Y3098400D01*
X2966208D01*
X2950753Y3135710D01*
X2919810Y3166653D01*
X2882500Y3182108D01*
D02*
G37*
G36*
X2832500D02*
X2795190Y3166653D01*
X2764247Y3135710D01*
X2748792Y3098400D01*
X2832500D01*
Y3182108D01*
D02*
G37*
G36*
X2966208Y3048400D02*
X2882500D01*
Y2964692D01*
X2919810Y2980147D01*
X2950753Y3011090D01*
X2966208Y3048400D01*
D02*
G37*
G36*
X2832500D02*
X2748792D01*
X2764247Y3011090D01*
X2795190Y2980147D01*
X2832500Y2964692D01*
Y3048400D01*
D02*
G37*
G36*
X2372454Y3188800D02*
X2326546D01*
X2284131Y3171231D01*
X2251669Y3138769D01*
X2234100Y3096354D01*
Y3050446D01*
X2251669Y3008031D01*
X2284131Y2975569D01*
X2326546Y2958000D01*
X2372454D01*
X2414869Y2975569D01*
X2447331Y3008031D01*
X2464900Y3050446D01*
Y3096354D01*
X2447331Y3138769D01*
X2414869Y3171231D01*
X2372454Y3188800D01*
D02*
G37*
G36*
X5392071Y3148400D02*
X5352129D01*
X5315228Y3133115D01*
X5286985Y3104872D01*
X5271700Y3067971D01*
Y3028029D01*
X5286985Y2991128D01*
X5315228Y2962885D01*
X5352129Y2947600D01*
X5392071D01*
X5428972Y2962885D01*
X5457215Y2991128D01*
X5472500Y3028029D01*
Y3067971D01*
X5457215Y3104872D01*
X5428972Y3133115D01*
X5392071Y3148400D01*
D02*
G37*
G36*
X4630071D02*
X4590129D01*
X4553228Y3133115D01*
X4524985Y3104872D01*
X4509700Y3067971D01*
Y3028029D01*
X4524985Y2991128D01*
X4553228Y2962885D01*
X4590129Y2947600D01*
X4630071D01*
X4666972Y2962885D01*
X4695215Y2991128D01*
X4710500Y3028029D01*
Y3067971D01*
X4695215Y3104872D01*
X4666972Y3133115D01*
X4630071Y3148400D01*
D02*
G37*
G36*
X3794854Y3074500D02*
X3748946D01*
X3706531Y3056931D01*
X3674069Y3024469D01*
X3656500Y2982055D01*
Y2936146D01*
X3674069Y2893732D01*
X3706531Y2861269D01*
X3748946Y2843700D01*
X3794854D01*
X3837269Y2861269D01*
X3869731Y2893732D01*
X3887300Y2936146D01*
Y2982055D01*
X3869731Y3024469D01*
X3837269Y3056931D01*
X3794854Y3074500D01*
D02*
G37*
G36*
X4137754Y3049100D02*
X4091846D01*
X4049431Y3031531D01*
X4016969Y2999069D01*
X3999400Y2956655D01*
Y2910746D01*
X4016969Y2868332D01*
X4049431Y2835869D01*
X4091846Y2818300D01*
X4137754D01*
X4180169Y2835869D01*
X4212631Y2868332D01*
X4230200Y2910746D01*
Y2956655D01*
X4212631Y2999069D01*
X4180169Y3031531D01*
X4137754Y3049100D01*
D02*
G37*
G36*
X1191354Y2947500D02*
X1145446D01*
X1103031Y2929931D01*
X1070569Y2897469D01*
X1053000Y2855054D01*
Y2809146D01*
X1070569Y2766731D01*
X1103031Y2734269D01*
X1145446Y2716700D01*
X1191354D01*
X1233769Y2734269D01*
X1266231Y2766731D01*
X1283800Y2809146D01*
Y2855054D01*
X1266231Y2897469D01*
X1233769Y2929931D01*
X1191354Y2947500D01*
D02*
G37*
G36*
X937354D02*
X891446D01*
X849031Y2929931D01*
X816569Y2897469D01*
X799000Y2855054D01*
Y2809146D01*
X816569Y2766731D01*
X849031Y2734269D01*
X891446Y2716700D01*
X937354D01*
X979769Y2734269D01*
X1012231Y2766731D01*
X1029800Y2809146D01*
Y2855054D01*
X1012231Y2897469D01*
X979769Y2929931D01*
X937354Y2947500D01*
D02*
G37*
G36*
X5472500Y2894400D02*
X5271700D01*
Y2693600D01*
X5472500D01*
Y2894400D01*
D02*
G37*
G36*
X4630071D02*
X4590129D01*
X4553228Y2879115D01*
X4524985Y2850872D01*
X4509700Y2813971D01*
Y2774029D01*
X4524985Y2737128D01*
X4553228Y2708885D01*
X4590129Y2693600D01*
X4630071D01*
X4666972Y2708885D01*
X4695215Y2737128D01*
X4710500Y2774029D01*
Y2813971D01*
X4695215Y2850872D01*
X4666972Y2879115D01*
X4630071Y2894400D01*
D02*
G37*
G36*
X6481983Y3263900D02*
X6446617D01*
X6413942Y3250366D01*
X6388934Y3225358D01*
X6375400Y3192683D01*
Y3168506D01*
X5830564Y2623670D01*
X4431036D01*
X4368800Y2685906D01*
Y2710083D01*
X4355266Y2742758D01*
X4330258Y2767766D01*
X4297583Y2781300D01*
X4262217D01*
X4229542Y2767766D01*
X4204534Y2742758D01*
X4191000Y2710083D01*
Y2674717D01*
X4204534Y2642042D01*
X4229542Y2617034D01*
X4262217Y2603500D01*
X4286394D01*
X4365697Y2524197D01*
X4384601Y2511566D01*
X4406900Y2507130D01*
X5854700D01*
X5876999Y2511566D01*
X5895903Y2524197D01*
X6457806Y3086100D01*
X6481983D01*
X6514658Y3099634D01*
X6539666Y3124642D01*
X6553200Y3157317D01*
Y3192683D01*
X6539666Y3225358D01*
X6514658Y3250366D01*
X6481983Y3263900D01*
D02*
G37*
G36*
X1191354Y2693500D02*
X1145446D01*
X1103031Y2675931D01*
X1070569Y2643469D01*
X1053000Y2601054D01*
Y2555146D01*
X1070569Y2512731D01*
X1103031Y2480269D01*
X1145446Y2462700D01*
X1191354D01*
X1233769Y2480269D01*
X1266231Y2512731D01*
X1283800Y2555146D01*
Y2601054D01*
X1266231Y2643469D01*
X1233769Y2675931D01*
X1191354Y2693500D01*
D02*
G37*
G36*
X937354D02*
X891446D01*
X849031Y2675931D01*
X816569Y2643469D01*
X799000Y2601054D01*
Y2555146D01*
X816569Y2512731D01*
X849031Y2480269D01*
X891446Y2462700D01*
X937354D01*
X979769Y2480269D01*
X1012231Y2512731D01*
X1029800Y2555146D01*
Y2601054D01*
X1012231Y2643469D01*
X979769Y2675931D01*
X937354Y2693500D01*
D02*
G37*
G36*
X1815644Y2586900D02*
X1765756D01*
X1719667Y2567809D01*
X1684391Y2532533D01*
X1665300Y2486444D01*
Y2436556D01*
X1684391Y2390467D01*
X1719667Y2355191D01*
X1765756Y2336100D01*
X1815644D01*
X1861733Y2355191D01*
X1897009Y2390467D01*
X1916100Y2436556D01*
Y2486444D01*
X1897009Y2532533D01*
X1861733Y2567809D01*
X1815644Y2586900D01*
D02*
G37*
G36*
X3464654Y2503000D02*
X3418746D01*
X3376331Y2485431D01*
X3343869Y2452969D01*
X3326300Y2410554D01*
Y2364646D01*
X3343869Y2322231D01*
X3376331Y2289769D01*
X3418746Y2272200D01*
X3464654D01*
X3507069Y2289769D01*
X3539531Y2322231D01*
X3557100Y2364646D01*
Y2410554D01*
X3539531Y2452969D01*
X3507069Y2485431D01*
X3464654Y2503000D01*
D02*
G37*
G36*
X5725254Y2477600D02*
X5679346D01*
X5636931Y2460031D01*
X5604469Y2427569D01*
X5586900Y2385155D01*
Y2339246D01*
X5604469Y2296832D01*
X5636931Y2264369D01*
X5679346Y2246800D01*
X5725254D01*
X5767669Y2264369D01*
X5800131Y2296832D01*
X5817700Y2339246D01*
Y2385155D01*
X5800131Y2427569D01*
X5767669Y2460031D01*
X5725254Y2477600D01*
D02*
G37*
G36*
X1283800Y2439500D02*
X1053000D01*
Y2208700D01*
X1283800D01*
Y2439500D01*
D02*
G37*
G36*
X937354D02*
X891446D01*
X849031Y2421931D01*
X816569Y2389469D01*
X799000Y2347054D01*
Y2301146D01*
X816569Y2258731D01*
X849031Y2226269D01*
X891446Y2208700D01*
X937354D01*
X979769Y2226269D01*
X1012231Y2258731D01*
X1029800Y2301146D01*
Y2347054D01*
X1012231Y2389469D01*
X979769Y2421931D01*
X937354Y2439500D01*
D02*
G37*
G36*
X4277454Y2426800D02*
X4231546D01*
X4189131Y2409231D01*
X4156669Y2376769D01*
X4139100Y2334355D01*
Y2288446D01*
X4156669Y2246032D01*
X4189131Y2213569D01*
X4231546Y2196000D01*
X4277454D01*
X4319869Y2213569D01*
X4352331Y2246032D01*
X4369900Y2288446D01*
Y2334355D01*
X4352331Y2376769D01*
X4319869Y2409231D01*
X4277454Y2426800D01*
D02*
G37*
G36*
X5271120Y2454910D02*
X5219080D01*
X5171002Y2434995D01*
X5134205Y2398198D01*
X5114290Y2350120D01*
Y2298080D01*
X5134205Y2250002D01*
X5171002Y2213205D01*
X5219080Y2193290D01*
X5271120D01*
X5319198Y2213205D01*
X5355996Y2250002D01*
X5375910Y2298080D01*
Y2350120D01*
X5355996Y2398198D01*
X5319198Y2434995D01*
X5271120Y2454910D01*
D02*
G37*
G36*
X4763120D02*
X4711080D01*
X4663002Y2434995D01*
X4626204Y2398198D01*
X4606290Y2350120D01*
Y2298080D01*
X4626204Y2250002D01*
X4663002Y2213205D01*
X4711080Y2193290D01*
X4763120D01*
X4811198Y2213205D01*
X4847995Y2250002D01*
X4867910Y2298080D01*
Y2350120D01*
X4847995Y2398198D01*
X4811198Y2434995D01*
X4763120Y2454910D01*
D02*
G37*
G36*
X1916100Y2197800D02*
X1665300D01*
Y1947000D01*
X1916100D01*
Y2197800D01*
D02*
G37*
G36*
X3794854Y2058500D02*
X3748946D01*
X3706531Y2040931D01*
X3674069Y2008468D01*
X3656500Y1966054D01*
Y1920145D01*
X3674069Y1877731D01*
X3706531Y1845269D01*
X3748946Y1827700D01*
X3794854D01*
X3837269Y1845269D01*
X3869731Y1877731D01*
X3887300Y1920145D01*
Y1966054D01*
X3869731Y2008468D01*
X3837269Y2040931D01*
X3794854Y2058500D01*
D02*
G37*
G36*
X1178654Y1918800D02*
X1132746D01*
X1090331Y1901231D01*
X1057869Y1868769D01*
X1040300Y1826354D01*
Y1780446D01*
X1057869Y1738031D01*
X1090331Y1705569D01*
X1132746Y1688000D01*
X1178654D01*
X1221069Y1705569D01*
X1253531Y1738031D01*
X1271100Y1780446D01*
Y1826354D01*
X1253531Y1868769D01*
X1221069Y1901231D01*
X1178654Y1918800D01*
D02*
G37*
G36*
X670654D02*
X624746D01*
X582331Y1901231D01*
X549869Y1868769D01*
X532300Y1826354D01*
Y1780446D01*
X549869Y1738031D01*
X582331Y1705569D01*
X624746Y1688000D01*
X670654D01*
X713069Y1705569D01*
X745531Y1738031D01*
X763100Y1780446D01*
Y1826354D01*
X745531Y1868769D01*
X713069Y1901231D01*
X670654Y1918800D01*
D02*
G37*
G36*
X2907900Y1632708D02*
Y1549000D01*
X2991608D01*
X2976153Y1586310D01*
X2945210Y1617253D01*
X2907900Y1632708D01*
D02*
G37*
G36*
X2857900D02*
X2820590Y1617253D01*
X2789647Y1586310D01*
X2774192Y1549000D01*
X2857900D01*
Y1632708D01*
D02*
G37*
G36*
X2991608Y1499000D02*
X2907900D01*
Y1415292D01*
X2945210Y1430747D01*
X2976153Y1461690D01*
X2991608Y1499000D01*
D02*
G37*
G36*
X2857900D02*
X2774192D01*
X2789647Y1461690D01*
X2820590Y1430747D01*
X2857900Y1415292D01*
Y1499000D01*
D02*
G37*
G36*
X3175000Y2921000D02*
X2032000D01*
Y1651000D01*
X2346764D01*
X2349290Y1638300D01*
X2309531Y1621831D01*
X2277069Y1589369D01*
X2259500Y1546954D01*
Y1501046D01*
X2277069Y1458631D01*
X2309531Y1426169D01*
X2351946Y1408600D01*
X2397854D01*
X2440269Y1426169D01*
X2472731Y1458631D01*
X2490300Y1501046D01*
Y1546954D01*
X2472731Y1589369D01*
X2440269Y1621831D01*
X2400510Y1638300D01*
X2403036Y1651000D01*
X3175000D01*
Y2921000D01*
D02*
G37*
G36*
X5725254Y1461600D02*
X5679346D01*
X5636931Y1444031D01*
X5604469Y1411568D01*
X5586900Y1369154D01*
Y1323245D01*
X5604469Y1280831D01*
X5636931Y1248369D01*
X5679346Y1230800D01*
X5725254D01*
X5767669Y1248369D01*
X5800131Y1280831D01*
X5817700Y1323245D01*
Y1369154D01*
X5800131Y1411568D01*
X5767669Y1444031D01*
X5725254Y1461600D01*
D02*
G37*
G36*
X4277454Y1410799D02*
X4231546D01*
X4189131Y1393231D01*
X4156669Y1360768D01*
X4139100Y1318354D01*
Y1272445D01*
X4156669Y1230031D01*
X4189131Y1197568D01*
X4231546Y1180000D01*
X4277454D01*
X4319869Y1197568D01*
X4352331Y1230031D01*
X4369900Y1272445D01*
Y1318354D01*
X4352331Y1360768D01*
X4319869Y1393231D01*
X4277454Y1410799D01*
D02*
G37*
G36*
X5017120Y1438910D02*
X4965080D01*
X4917002Y1418995D01*
X4880205Y1382198D01*
X4860290Y1334120D01*
Y1282080D01*
X4880205Y1234002D01*
X4917002Y1197205D01*
X4965080Y1177290D01*
X5017120D01*
X5065198Y1197205D01*
X5101995Y1234002D01*
X5121910Y1282080D01*
Y1334120D01*
X5101995Y1382198D01*
X5065198Y1418995D01*
X5017120Y1438910D01*
D02*
G37*
G36*
X3842044Y1401710D02*
X3796135D01*
X3753721Y1384142D01*
X3721258Y1351679D01*
X3703690Y1309265D01*
Y1263356D01*
X3721258Y1220942D01*
X3753721Y1188479D01*
X3796135Y1170911D01*
X3842044D01*
X3884458Y1188479D01*
X3916921Y1220942D01*
X3934489Y1263356D01*
Y1309265D01*
X3916921Y1351679D01*
X3884458Y1384142D01*
X3842044Y1401710D01*
D02*
G37*
G36*
X1136546Y1301750D02*
X1098654D01*
X1063645Y1287249D01*
X1036851Y1260455D01*
X1022350Y1225446D01*
Y1187554D01*
X1036851Y1152545D01*
X1063645Y1125751D01*
X1098654Y1111250D01*
X1136546D01*
X1171555Y1125751D01*
X1198349Y1152545D01*
X1212850Y1187554D01*
Y1225446D01*
X1198349Y1260455D01*
X1171555Y1287249D01*
X1136546Y1301750D01*
D02*
G37*
G36*
X2869800Y1150108D02*
Y1066400D01*
X2953508D01*
X2938053Y1103710D01*
X2907110Y1134653D01*
X2869800Y1150108D01*
D02*
G37*
G36*
X2819800D02*
X2782490Y1134653D01*
X2751547Y1103710D01*
X2736092Y1066400D01*
X2819800D01*
Y1150108D01*
D02*
G37*
G36*
X3276200Y1070624D02*
Y1015600D01*
X3331224D01*
X3321988Y1037899D01*
X3298499Y1061388D01*
X3276200Y1070624D01*
D02*
G37*
G36*
X3226200D02*
X3203901Y1061388D01*
X3180412Y1037899D01*
X3171176Y1015600D01*
X3226200D01*
Y1070624D01*
D02*
G37*
G36*
X3626144Y1185810D02*
X3580235D01*
X3537821Y1168242D01*
X3505358Y1135779D01*
X3487790Y1093365D01*
Y1047456D01*
X3505358Y1005042D01*
X3537821Y972579D01*
X3580235Y955011D01*
X3626144D01*
X3668558Y972579D01*
X3701021Y1005042D01*
X3718589Y1047456D01*
Y1093365D01*
X3701021Y1135779D01*
X3668558Y1168242D01*
X3626144Y1185810D01*
D02*
G37*
G36*
X1301646Y1136650D02*
X1263754D01*
X1228745Y1122149D01*
X1201951Y1095355D01*
X1187450Y1060346D01*
Y1022454D01*
X1201951Y987445D01*
X1228745Y960651D01*
X1263754Y946150D01*
X1301646D01*
X1336655Y960651D01*
X1363449Y987445D01*
X1377950Y1022454D01*
Y1060346D01*
X1363449Y1095355D01*
X1336655Y1122149D01*
X1301646Y1136650D01*
D02*
G37*
G36*
X2953508Y1016400D02*
X2869800D01*
Y932692D01*
X2907110Y948147D01*
X2938053Y979090D01*
X2953508Y1016400D01*
D02*
G37*
G36*
X2819800D02*
X2736092D01*
X2751547Y979090D01*
X2782490Y948147D01*
X2819800Y932692D01*
Y1016400D01*
D02*
G37*
G36*
X2359754Y1156800D02*
X2313846D01*
X2271431Y1139231D01*
X2238969Y1106769D01*
X2221400Y1064354D01*
Y1018446D01*
X2238969Y976031D01*
X2271431Y943569D01*
X2313846Y926000D01*
X2359754D01*
X2402169Y943569D01*
X2434631Y976031D01*
X2452200Y1018446D01*
Y1064354D01*
X2434631Y1106769D01*
X2402169Y1139231D01*
X2359754Y1156800D01*
D02*
G37*
G36*
X3331224Y965600D02*
X3276200D01*
Y910576D01*
X3298499Y919812D01*
X3321988Y943301D01*
X3331224Y965600D01*
D02*
G37*
G36*
X3226200D02*
X3171176D01*
X3180412Y943301D01*
X3203901Y919812D01*
X3226200Y910576D01*
Y965600D01*
D02*
G37*
G36*
X1815644Y1151800D02*
X1765756D01*
X1719667Y1132709D01*
X1684391Y1097433D01*
X1665300Y1051344D01*
Y1001456D01*
X1684391Y955367D01*
X1719667Y920091D01*
X1765756Y901000D01*
X1815644D01*
X1861733Y920091D01*
X1897009Y955367D01*
X1916100Y1001456D01*
Y1051344D01*
X1897009Y1097433D01*
X1861733Y1132709D01*
X1815644Y1151800D01*
D02*
G37*
G36*
X1136546Y971550D02*
X1098654D01*
X1063645Y957049D01*
X1036851Y930255D01*
X1022350Y895246D01*
Y857354D01*
X1036851Y822345D01*
X1063645Y795551D01*
X1098654Y781050D01*
X1136546D01*
X1171555Y795551D01*
X1198349Y822345D01*
X1212850Y857354D01*
Y895246D01*
X1198349Y930255D01*
X1171555Y957049D01*
X1136546Y971550D01*
D02*
G37*
G36*
X4559391Y677889D02*
X4515630D01*
X4478320Y662435D01*
X4537510Y603245D01*
X4596700Y662435D01*
X4559391Y677889D01*
D02*
G37*
G36*
X3250800Y595060D02*
Y533000D01*
X3312860D01*
X3302098Y558981D01*
X3276781Y584298D01*
X3250800Y595060D01*
D02*
G37*
G36*
X3200800D02*
X3174819Y584298D01*
X3149502Y558981D01*
X3138740Y533000D01*
X3200800D01*
Y595060D01*
D02*
G37*
G36*
X4442965Y627080D02*
X4427511Y589770D01*
Y546009D01*
X4442965Y508700D01*
X4502155Y567890D01*
X4442965Y627080D01*
D02*
G37*
G36*
X4632056D02*
X4572866Y567890D01*
X4632056Y508700D01*
X4647510Y546009D01*
Y589770D01*
X4632056Y627080D01*
D02*
G37*
G36*
X4537510Y532534D02*
X4478320Y473344D01*
X4515630Y457890D01*
X4559391D01*
X4596700Y473344D01*
X4537510Y532534D01*
D02*
G37*
G36*
X3312860Y483000D02*
X3250800D01*
Y420940D01*
X3276781Y431702D01*
X3302098Y457019D01*
X3312860Y483000D01*
D02*
G37*
G36*
X3200800D02*
X3138740D01*
X3149502Y457019D01*
X3174819Y431702D01*
X3200800Y420940D01*
Y483000D01*
D02*
G37*
G36*
X3504776Y603400D02*
X3466824D01*
X3431760Y588876D01*
X3404924Y562040D01*
X3390400Y526976D01*
Y489024D01*
X3404924Y453960D01*
X3431760Y427124D01*
X3466824Y412600D01*
X3504776D01*
X3539840Y427124D01*
X3566676Y453960D01*
X3581200Y489024D01*
Y526976D01*
X3566676Y562040D01*
X3539840Y588876D01*
X3504776Y603400D01*
D02*
G37*
G36*
X3061200D02*
X2870400D01*
Y412600D01*
X3061200D01*
Y603400D01*
D02*
G37*
G36*
X1673954Y623400D02*
X1628045D01*
X1585631Y605831D01*
X1553169Y573369D01*
X1535600Y530954D01*
Y485046D01*
X1553169Y442631D01*
X1585631Y410169D01*
X1628045Y392600D01*
X1673954D01*
X1716368Y410169D01*
X1748831Y442631D01*
X1766400Y485046D01*
Y530954D01*
X1748831Y573369D01*
X1716368Y605831D01*
X1673954Y623400D01*
D02*
G37*
G36*
X2689954Y623400D02*
X2644046D01*
X2601631Y605831D01*
X2569169Y573368D01*
X2551600Y530954D01*
Y485045D01*
X2569169Y442631D01*
X2601631Y410169D01*
X2644046Y392600D01*
X2689954D01*
X2732369Y410169D01*
X2764831Y442631D01*
X2782400Y485045D01*
Y530954D01*
X2764831Y573368D01*
X2732369Y605831D01*
X2689954Y623400D01*
D02*
G37*
G36*
X4344565Y467389D02*
X4298656D01*
X4256242Y449821D01*
X4223779Y417358D01*
X4206211Y374944D01*
Y329035D01*
X4223779Y286621D01*
X4256242Y254158D01*
X4298656Y236590D01*
X4344565D01*
X4386979Y254158D01*
X4419442Y286621D01*
X4437010Y329035D01*
Y374944D01*
X4419442Y417358D01*
X4386979Y449821D01*
X4344565Y467389D01*
D02*
G37*
%LPD*%
D10*
X5854700Y2565400D02*
X6464300Y3175000D01*
X4279900Y2692400D02*
X4406900Y2565400D01*
X5854700D01*
X5608150Y3626950D02*
Y5021750D01*
X5600700Y3619500D02*
X5608150Y3626950D01*
X4864100Y5765800D02*
X5608150Y5021750D01*
D11*
X3441700Y3403600D02*
D03*
Y2387600D02*
D03*
X6362700Y6070600D02*
D03*
X6362700Y7086600D02*
D03*
X6680200Y6057900D02*
D03*
Y7073900D02*
D03*
X368300Y3263900D02*
D03*
X1384300D02*
D03*
X1651000Y508000D02*
D03*
X2667000Y508000D02*
D03*
X7467600Y5168900D02*
D03*
Y5676900D02*
D03*
X4953000Y4813300D02*
D03*
X4445000D02*
D03*
X7391400Y7023100D02*
D03*
X7645400D02*
D03*
X7391400Y6769100D02*
D03*
X7645400D02*
D03*
X7391400Y6515100D02*
D03*
X6985000Y7073900D02*
D03*
Y6057900D02*
D03*
X5943600Y5143500D02*
D03*
Y5651500D02*
D03*
X7353300Y4483100D02*
D03*
X7353300Y3467100D02*
D03*
X6045200Y4483100D02*
D03*
X6045200Y3467100D02*
D03*
X5702300Y2362200D02*
D03*
Y1346200D02*
D03*
X5461000Y4762500D02*
D03*
Y4254501D02*
D03*
X5105400Y3937000D02*
D03*
X4089400D02*
D03*
X4114800Y3441700D02*
D03*
Y2933700D02*
D03*
X4254500Y2311400D02*
D03*
Y1295399D02*
D03*
X3603189Y1070410D02*
D03*
X4321610Y351990D02*
D03*
X3441700Y5816600D02*
D03*
X2933700D02*
D03*
X5486400Y7289800D02*
D03*
Y6273800D02*
D03*
X1193800Y5041900D02*
D03*
X685800D02*
D03*
X546100Y5499100D02*
D03*
X1562100D02*
D03*
X1549400Y5930900D02*
D03*
X533400Y5930900D02*
D03*
X1587500Y7315200D02*
D03*
X571500D02*
D03*
X2400300Y7442200D02*
D03*
X2908300D02*
D03*
X4076700Y6858000D02*
D03*
X5092700D02*
D03*
X3733800Y6350000D02*
D03*
X3479800D02*
D03*
X3733800Y6604000D02*
D03*
X3479800D02*
D03*
X3733800Y6858000D02*
D03*
X4076700Y6604000D02*
D03*
X5092700D02*
D03*
X4076700Y6350000D02*
D03*
X5092700D02*
D03*
X3378200Y5054600D02*
D03*
Y4038600D02*
D03*
X2857500Y3073400D02*
D03*
X2349500D02*
D03*
X1905000Y5016500D02*
D03*
X2921000D02*
D03*
X2857500Y3632200D02*
D03*
X2349500D02*
D03*
X1155700Y1803400D02*
D03*
X647700D02*
D03*
X914400Y2832100D02*
D03*
X1168400D02*
D03*
X914400Y2578100D02*
D03*
X1168400D02*
D03*
X914400Y2324100D02*
D03*
X4775200Y5524500D02*
D03*
Y5270500D02*
D03*
X4521200Y5524500D02*
D03*
Y5270500D02*
D03*
X4267200Y5524500D02*
D03*
Y5270500D02*
D03*
X4013200Y5524500D02*
D03*
X3771900Y1943100D02*
D03*
Y2959100D02*
D03*
X762000Y3695700D02*
D03*
X1270000D02*
D03*
X4537510Y567890D02*
D03*
X3819090Y1286310D02*
D03*
X2882900Y1524000D02*
D03*
X2374900D02*
D03*
X2844800Y1041400D02*
D03*
X2336800D02*
D03*
D12*
X1828800Y4445000D02*
D03*
X1663700Y4279900D02*
D03*
X1828800Y4114800D02*
D03*
X1117600Y876300D02*
D03*
X1282700Y1041400D02*
D03*
X1117600Y1206500D02*
D03*
D13*
X5372100Y2794000D02*
D03*
X7073900Y4927600D02*
D03*
X596900Y4330700D02*
D03*
X3784600Y4343400D02*
D03*
D14*
X5372100Y3048000D02*
D03*
Y3302000D02*
D03*
Y3556000D02*
D03*
X4610100Y2794000D02*
D03*
Y3048000D02*
D03*
Y3302000D02*
D03*
Y3556000D02*
D03*
X7073900Y5181600D02*
D03*
Y5435600D02*
D03*
Y5689600D02*
D03*
X6311900Y4927600D02*
D03*
X6311900Y5181600D02*
D03*
Y5435600D02*
D03*
X6311900Y5689600D02*
D03*
X2425700Y6235700D02*
D03*
X2679700D02*
D03*
X2933700D02*
D03*
X2171700Y6997700D02*
D03*
X2425700D02*
D03*
X2679700D02*
D03*
X2933700D02*
D03*
X850900Y4330700D02*
D03*
X4546600Y4343400D02*
D03*
X4292600D02*
D03*
X4038600D02*
D03*
D15*
X2534000Y4292600D02*
D03*
X2965800Y508000D02*
D03*
D16*
X3054000Y4292600D02*
D03*
X2794000D02*
D03*
X3485800Y508000D02*
D03*
X3225800D02*
D03*
D17*
X2887200Y2316300D02*
D03*
X2887200Y2656300D02*
D03*
X2489200Y2486300D02*
D03*
Y2146300D02*
D03*
D18*
X2887200Y1976300D02*
D03*
D19*
X7645400Y6515100D02*
D03*
X3479800Y6858000D02*
D03*
X1168400Y2324100D02*
D03*
D20*
X6438900Y4445000D02*
D03*
X6946900D02*
D03*
X6692900Y3429000D02*
D03*
X4737100Y2324100D02*
D03*
X5245100D02*
D03*
X4991100Y1308100D02*
D03*
X1574800Y6870700D02*
D03*
Y6362700D02*
D03*
X558800Y6616700D02*
D03*
D21*
X2171700Y6235700D02*
D03*
D22*
X1790700Y2461500D02*
D03*
Y1026400D02*
D03*
D23*
Y3507500D02*
D03*
Y2072400D02*
D03*
D24*
X4013200Y5270500D02*
D03*
D25*
X3733800Y3759200D02*
D03*
X5105400Y4343400D02*
D03*
X6705600Y5334000D02*
D03*
X3429000Y7493000D02*
D03*
X2946400Y3987800D02*
D03*
X3251200Y990600D02*
D03*
X2413000Y5588000D02*
D03*
X4864100Y5765800D02*
D03*
X5600700Y3619500D02*
D03*
X4279900Y2692400D02*
D03*
X6464300Y3175000D02*
D03*
%TF.MD5,5b754e023347dec183a6591cfa99b3d8*%
M02*
