%TF.GenerationSoftware,Altium Limited,Altium Designer,22.4.2 (48)*%
G04 Layer_Physical_Order=1*
G04 Layer_Color=255*
%FSLAX45Y45*%
%MOMM*%
%TF.SameCoordinates,21CD9DD7-479E-4939-AD86-19BEA9B0C4F6*%
%TF.FilePolarity,Positive*%
%TF.FileFunction,Copper,L1,Top,Signal*%
%TF.Part,Single*%
G01*
G75*
%TA.AperFunction,Conductor*%
%ADD10C,0.50800*%
%TA.AperFunction,NonConductor*%
%ADD11C,0.25400*%
%TA.AperFunction,ComponentPad*%
%ADD12C,2.60000*%
%ADD13R,1.50000X1.50000*%
%ADD14C,1.50000*%
%ADD15C,1.80000*%
%ADD16R,1.25000X1.25000*%
%ADD17C,1.25000*%
%ADD18C,1.20000*%
%ADD19R,1.20000X1.20000*%
%ADD20R,1.50000X1.50000*%
%ADD21C,1.19400*%
%TA.AperFunction,ViaPad*%
%ADD22C,1.27000*%
G36*
X7391589Y4343425D02*
X8636000D01*
Y533367D01*
X7315401D01*
Y254000D01*
X4711561D01*
Y495275D01*
X3746640D01*
Y254000D01*
X2946261D01*
Y495275D01*
X1981340D01*
Y254000D01*
X0D01*
Y4572000D01*
X1117740D01*
Y4343425D01*
X2082661D01*
Y4572000D01*
X4724542D01*
X4737231Y4571975D01*
X4737232Y4559300D01*
Y4318025D01*
X5651369D01*
Y4559300D01*
X5651369Y4571975D01*
X5664059Y4572000D01*
X7391589D01*
Y4343425D01*
D02*
G37*
%LPC*%
G36*
X2971400Y4321572D02*
Y4254100D01*
X3038872D01*
X3026937Y4282913D01*
X3000213Y4309637D01*
X2971400Y4321572D01*
D02*
G37*
G36*
X2921400D02*
X2892587Y4309637D01*
X2865863Y4282913D01*
X2853928Y4254100D01*
X2921400D01*
Y4321572D01*
D02*
G37*
G36*
X4609700Y4308872D02*
Y4241400D01*
X4677171D01*
X4665237Y4270213D01*
X4638513Y4296937D01*
X4609700Y4308872D01*
D02*
G37*
G36*
X4559700D02*
X4530887Y4296937D01*
X4504163Y4270213D01*
X4492228Y4241400D01*
X4559700D01*
Y4308872D01*
D02*
G37*
G36*
X3038872Y4204100D02*
X2971400D01*
Y4136628D01*
X3000213Y4148563D01*
X3026937Y4175287D01*
X3038872Y4204100D01*
D02*
G37*
G36*
X2921400D02*
X2853928D01*
X2865863Y4175287D01*
X2892587Y4148563D01*
X2921400Y4136628D01*
Y4204100D01*
D02*
G37*
G36*
X2712371Y4329500D02*
X2672429D01*
X2635528Y4314215D01*
X2607285Y4285972D01*
X2592000Y4249071D01*
Y4209129D01*
X2607285Y4172228D01*
X2635528Y4143985D01*
X2672429Y4128700D01*
X2712371D01*
X2749272Y4143985D01*
X2777515Y4172228D01*
X2792800Y4209129D01*
Y4249071D01*
X2777515Y4285972D01*
X2749272Y4314215D01*
X2712371Y4329500D01*
D02*
G37*
G36*
X2458371D02*
X2418429D01*
X2381528Y4314215D01*
X2353285Y4285972D01*
X2338000Y4249071D01*
Y4209129D01*
X2353285Y4172228D01*
X2381528Y4143985D01*
X2418429Y4128700D01*
X2458371D01*
X2495272Y4143985D01*
X2523515Y4172228D01*
X2538800Y4209129D01*
Y4249071D01*
X2523515Y4285972D01*
X2495272Y4314215D01*
X2458371Y4329500D01*
D02*
G37*
G36*
X2284800D02*
X2084000D01*
Y4128700D01*
X2284800D01*
Y4329500D01*
D02*
G37*
G36*
X4677171Y4191400D02*
X4609700D01*
Y4123928D01*
X4638513Y4135863D01*
X4665237Y4162587D01*
X4677171Y4191400D01*
D02*
G37*
G36*
X4559700D02*
X4492228D01*
X4504163Y4162587D01*
X4530887Y4135863D01*
X4559700Y4123928D01*
Y4191400D01*
D02*
G37*
G36*
X4350671Y4316800D02*
X4310729D01*
X4273828Y4301515D01*
X4245585Y4273272D01*
X4230300Y4236371D01*
Y4196429D01*
X4245585Y4159528D01*
X4273828Y4131285D01*
X4310729Y4116000D01*
X4350671D01*
X4387572Y4131285D01*
X4415815Y4159528D01*
X4431100Y4196429D01*
Y4236371D01*
X4415815Y4273272D01*
X4387572Y4301515D01*
X4350671Y4316800D01*
D02*
G37*
G36*
X4096671D02*
X4056729D01*
X4019828Y4301515D01*
X3991585Y4273272D01*
X3976300Y4236371D01*
Y4196429D01*
X3991585Y4159528D01*
X4019828Y4131285D01*
X4056729Y4116000D01*
X4096671D01*
X4133572Y4131285D01*
X4161815Y4159528D01*
X4177100Y4196429D01*
Y4236371D01*
X4161815Y4273272D01*
X4133572Y4301515D01*
X4096671Y4316800D01*
D02*
G37*
G36*
X3923100D02*
X3722300D01*
Y4116000D01*
X3923100D01*
Y4316800D01*
D02*
G37*
G36*
X8372667Y4174830D02*
X8367830D01*
Y4049830D01*
X8492830D01*
Y4054667D01*
X8469994Y4109798D01*
X8427798Y4151994D01*
X8372667Y4174830D01*
D02*
G37*
G36*
X8317830D02*
X8312993D01*
X8257862Y4151994D01*
X8215666Y4109798D01*
X8192830Y4054667D01*
Y4049830D01*
X8317830D01*
Y4174830D01*
D02*
G37*
G36*
X7739807D02*
X7734970D01*
Y4049830D01*
X7859970D01*
Y4054667D01*
X7837134Y4109798D01*
X7794938Y4151994D01*
X7739807Y4174830D01*
D02*
G37*
G36*
X7684970D02*
X7680133D01*
X7625002Y4151994D01*
X7582806Y4109798D01*
X7559970Y4054667D01*
Y4049830D01*
X7684970D01*
Y4174830D01*
D02*
G37*
G36*
X6222600Y4105672D02*
Y4038200D01*
X6290072D01*
X6278137Y4067013D01*
X6251413Y4093737D01*
X6222600Y4105672D01*
D02*
G37*
G36*
X6172600D02*
X6143787Y4093737D01*
X6117063Y4067013D01*
X6105128Y4038200D01*
X6172600D01*
Y4105672D01*
D02*
G37*
G36*
X5968600D02*
Y4038200D01*
X6036072D01*
X6024137Y4067013D01*
X5997413Y4093737D01*
X5968600Y4105672D01*
D02*
G37*
G36*
X5918600D02*
X5889787Y4093737D01*
X5863063Y4067013D01*
X5851128Y4038200D01*
X5918600D01*
Y4105672D01*
D02*
G37*
G36*
X933877Y4194350D02*
X900023D01*
X868745Y4181394D01*
X844806Y4157455D01*
X831850Y4126177D01*
Y4092323D01*
X844806Y4061045D01*
X868745Y4037105D01*
X900023Y4024150D01*
X933877D01*
X965155Y4037105D01*
X989094Y4061045D01*
X1002050Y4092323D01*
Y4126177D01*
X989094Y4157455D01*
X965155Y4181394D01*
X933877Y4194350D01*
D02*
G37*
G36*
X3530200Y4017024D02*
Y3962000D01*
X3585224D01*
X3575988Y3984299D01*
X3552499Y4007788D01*
X3530200Y4017024D01*
D02*
G37*
G36*
X3480200D02*
X3457901Y4007788D01*
X3434412Y3984299D01*
X3425176Y3962000D01*
X3480200D01*
Y4017024D01*
D02*
G37*
G36*
X5918600Y3988200D02*
X5851128D01*
X5863063Y3959387D01*
X5889787Y3932663D01*
X5918600Y3920728D01*
Y3988200D01*
D02*
G37*
G36*
X6290072D02*
X6222600D01*
Y3920728D01*
X6251413Y3932663D01*
X6278137Y3959387D01*
X6290072Y3988200D01*
D02*
G37*
G36*
X6172600D02*
X6105128D01*
X6117063Y3959387D01*
X6143787Y3932663D01*
X6172600Y3920728D01*
Y3988200D01*
D02*
G37*
G36*
X6036072D02*
X5968600D01*
Y3920728D01*
X5997413Y3932663D01*
X6024137Y3959387D01*
X6036072Y3988200D01*
D02*
G37*
G36*
X5709570Y4113600D02*
X5669629D01*
X5632728Y4098315D01*
X5604485Y4070072D01*
X5589200Y4033171D01*
Y3993229D01*
X5604485Y3956328D01*
X5632728Y3928085D01*
X5669629Y3912800D01*
X5709570D01*
X5746472Y3928085D01*
X5774715Y3956328D01*
X5790000Y3993229D01*
Y4033171D01*
X5774715Y4070072D01*
X5746472Y4098315D01*
X5709570Y4113600D01*
D02*
G37*
G36*
X8492830Y3999830D02*
X8367830D01*
Y3874830D01*
X8372667D01*
X8427798Y3897666D01*
X8469994Y3939862D01*
X8492830Y3994993D01*
Y3999830D01*
D02*
G37*
G36*
X8317830D02*
X8192830D01*
Y3994993D01*
X8215666Y3939862D01*
X8257862Y3897666D01*
X8312993Y3874830D01*
X8317830D01*
Y3999830D01*
D02*
G37*
G36*
X7859970D02*
X7734970D01*
Y3874830D01*
X7739807D01*
X7794938Y3897666D01*
X7837134Y3939862D01*
X7859970Y3994993D01*
Y3999830D01*
D02*
G37*
G36*
X7684970D02*
X7559970D01*
Y3994993D01*
X7582806Y3939862D01*
X7625002Y3897666D01*
X7680133Y3874830D01*
X7684970D01*
Y3999830D01*
D02*
G37*
G36*
X3585224Y3912000D02*
X3530200D01*
Y3856976D01*
X3552499Y3866212D01*
X3575988Y3889701D01*
X3585224Y3912000D01*
D02*
G37*
G36*
X3480200D02*
X3425176D01*
X3434412Y3889701D01*
X3457901Y3866212D01*
X3480200Y3856976D01*
Y3912000D01*
D02*
G37*
G36*
X1777600Y3839224D02*
Y3784200D01*
X1832624D01*
X1823388Y3806499D01*
X1799899Y3829988D01*
X1777600Y3839224D01*
D02*
G37*
G36*
X1727600D02*
X1705301Y3829988D01*
X1681812Y3806499D01*
X1672576Y3784200D01*
X1727600D01*
Y3839224D01*
D02*
G37*
G36*
X4861655Y3912700D02*
X4815746D01*
X4773332Y3895131D01*
X4740870Y3862669D01*
X4723301Y3820255D01*
Y3774346D01*
X4740870Y3731932D01*
X4773332Y3699469D01*
X4815746Y3681900D01*
X4861655D01*
X4904069Y3699469D01*
X4936532Y3731932D01*
X4954101Y3774346D01*
Y3820255D01*
X4936532Y3862669D01*
X4904069Y3895131D01*
X4861655Y3912700D01*
D02*
G37*
G36*
X3845654Y3912700D02*
X3799745D01*
X3757331Y3895131D01*
X3724868Y3862668D01*
X3707299Y3820254D01*
Y3774345D01*
X3724868Y3731931D01*
X3757331Y3699469D01*
X3799745Y3681900D01*
X3845654D01*
X3888068Y3699469D01*
X3920530Y3731931D01*
X3938099Y3774345D01*
Y3820254D01*
X3920530Y3862668D01*
X3888068Y3895131D01*
X3845654Y3912700D01*
D02*
G37*
G36*
X1832624Y3734200D02*
X1777600D01*
Y3679176D01*
X1799899Y3688412D01*
X1823388Y3711901D01*
X1832624Y3734200D01*
D02*
G37*
G36*
X1727600D02*
X1672576D01*
X1681812Y3711901D01*
X1705301Y3688412D01*
X1727600Y3679176D01*
Y3734200D01*
D02*
G37*
G36*
X3261454Y3900000D02*
X3215545D01*
X3173131Y3882431D01*
X3140668Y3849969D01*
X3123100Y3807555D01*
Y3761646D01*
X3140668Y3719232D01*
X3173131Y3686769D01*
X3215545Y3669200D01*
X3261454D01*
X3303868Y3686769D01*
X3336331Y3719232D01*
X3353899Y3761646D01*
Y3807555D01*
X3336331Y3849969D01*
X3303868Y3882431D01*
X3261454Y3900000D01*
D02*
G37*
G36*
X2245454Y3900000D02*
X2199545D01*
X2157131Y3882431D01*
X2124669Y3849969D01*
X2107100Y3807554D01*
Y3761646D01*
X2124669Y3719231D01*
X2157131Y3686769D01*
X2199545Y3669200D01*
X2245454D01*
X2287868Y3686769D01*
X2320331Y3719231D01*
X2337900Y3761646D01*
Y3807554D01*
X2320331Y3849969D01*
X2287868Y3882431D01*
X2245454Y3900000D01*
D02*
G37*
G36*
X6217571Y3859600D02*
X6177629D01*
X6140728Y3844315D01*
X6112485Y3816072D01*
X6097200Y3779171D01*
Y3739229D01*
X6112485Y3702328D01*
X6140728Y3674085D01*
X6177629Y3658800D01*
X6217571D01*
X6254472Y3674085D01*
X6282715Y3702328D01*
X6298000Y3739229D01*
Y3779171D01*
X6282715Y3816072D01*
X6254472Y3844315D01*
X6217571Y3859600D01*
D02*
G37*
G36*
X5963571D02*
X5923629D01*
X5886728Y3844315D01*
X5858485Y3816072D01*
X5843200Y3779171D01*
Y3739229D01*
X5858485Y3702328D01*
X5886728Y3674085D01*
X5923629Y3658800D01*
X5963571D01*
X6000472Y3674085D01*
X6028715Y3702328D01*
X6044000Y3739229D01*
Y3779171D01*
X6028715Y3816072D01*
X6000472Y3844315D01*
X5963571Y3859600D01*
D02*
G37*
G36*
X5790000D02*
X5589200D01*
Y3658800D01*
X5790000D01*
Y3859600D01*
D02*
G37*
G36*
X5250083Y3644900D02*
X5214717D01*
X5187870Y3633780D01*
X5185280Y3634295D01*
X3723841D01*
X3704020Y3630353D01*
X3687217Y3619125D01*
X3561587Y3493495D01*
X3456253D01*
X3450631Y3507069D01*
X3418169Y3539531D01*
X3375754Y3557100D01*
X3329846D01*
X3287431Y3539531D01*
X3254969Y3507069D01*
X3237400Y3464654D01*
Y3418746D01*
X3254969Y3376331D01*
X3287431Y3343869D01*
X3329846Y3326300D01*
X3375754D01*
X3418169Y3343869D01*
X3450631Y3376331D01*
X3456253Y3389905D01*
X3583041D01*
X3602862Y3393847D01*
X3619666Y3405075D01*
X3745296Y3530705D01*
X3777648D01*
X3782509Y3518972D01*
X3767547Y3504010D01*
X3752092Y3466700D01*
X3860800D01*
X3969508D01*
X3954053Y3504010D01*
X3939091Y3518972D01*
X3943952Y3530705D01*
X5146653D01*
X5157034Y3505642D01*
X5182042Y3480634D01*
X5214717Y3467100D01*
X5250083D01*
X5282758Y3480634D01*
X5307766Y3505642D01*
X5321300Y3538317D01*
Y3573683D01*
X5307766Y3606358D01*
X5282758Y3631366D01*
X5250083Y3644900D01*
D02*
G37*
G36*
X8057311Y3863800D02*
X7995489D01*
X7938373Y3840142D01*
X7894658Y3796427D01*
X7871000Y3739311D01*
Y3677489D01*
X7894658Y3620373D01*
X7938373Y3576658D01*
X7995489Y3553000D01*
X8057311D01*
X8114427Y3576658D01*
X8158142Y3620373D01*
X8181800Y3677489D01*
Y3739311D01*
X8158142Y3796427D01*
X8114427Y3840142D01*
X8057311Y3863800D01*
D02*
G37*
G36*
X8372667Y3541970D02*
X8367830D01*
Y3416970D01*
X8492830D01*
Y3421807D01*
X8469994Y3476938D01*
X8427798Y3519134D01*
X8372667Y3541970D01*
D02*
G37*
G36*
X8317830D02*
X8312993D01*
X8257862Y3519134D01*
X8215666Y3476938D01*
X8192830Y3421807D01*
Y3416970D01*
X8317830D01*
Y3541970D01*
D02*
G37*
G36*
X7739807D02*
X7734970D01*
Y3416970D01*
X7859970D01*
Y3421807D01*
X7837134Y3476938D01*
X7794938Y3519134D01*
X7739807Y3541970D01*
D02*
G37*
G36*
X7684970D02*
X7680133D01*
X7625002Y3519134D01*
X7582806Y3476938D01*
X7559970Y3421807D01*
Y3416970D01*
X7684970D01*
Y3541970D01*
D02*
G37*
G36*
X2208600Y3580200D02*
X2007800D01*
Y3379400D01*
X2208600D01*
Y3580200D01*
D02*
G37*
G36*
X1874171D02*
X1834229D01*
X1797328Y3564915D01*
X1769085Y3536672D01*
X1753800Y3499771D01*
Y3459829D01*
X1769085Y3422928D01*
X1797328Y3394685D01*
X1834229Y3379400D01*
X1874171D01*
X1911072Y3394685D01*
X1939315Y3422928D01*
X1954600Y3459829D01*
Y3499771D01*
X1939315Y3536672D01*
X1911072Y3564915D01*
X1874171Y3580200D01*
D02*
G37*
G36*
X3969508Y3416700D02*
X3885800D01*
Y3332992D01*
X3923110Y3348447D01*
X3954053Y3379390D01*
X3969508Y3416700D01*
D02*
G37*
G36*
X3835800D02*
X3752092D01*
X3767547Y3379390D01*
X3798490Y3348447D01*
X3835800Y3332992D01*
Y3416700D01*
D02*
G37*
G36*
X8492830Y3366970D02*
X8367830D01*
Y3241970D01*
X8372667D01*
X8427798Y3264806D01*
X8469994Y3307002D01*
X8492830Y3362133D01*
Y3366970D01*
D02*
G37*
G36*
X8317830D02*
X8192830D01*
Y3362133D01*
X8215666Y3307002D01*
X8257862Y3264806D01*
X8312993Y3241970D01*
X8317830D01*
Y3366970D01*
D02*
G37*
G36*
X7859970D02*
X7734970D01*
Y3241970D01*
X7739807D01*
X7794938Y3264806D01*
X7837134Y3307002D01*
X7859970Y3362133D01*
Y3366970D01*
D02*
G37*
G36*
X7684970D02*
X7559970D01*
Y3362133D01*
X7582806Y3307002D01*
X7625002Y3264806D01*
X7680133Y3241970D01*
X7684970D01*
Y3366970D01*
D02*
G37*
G36*
X6719584Y3339100D02*
X6684616D01*
X6652309Y3325718D01*
X6627582Y3300992D01*
X6614200Y3268685D01*
Y3233716D01*
X6627582Y3201409D01*
X6652309Y3176682D01*
X6684616Y3163300D01*
X6719584D01*
X6751892Y3176682D01*
X6776618Y3201409D01*
X6790000Y3233716D01*
Y3268685D01*
X6776618Y3300992D01*
X6751892Y3325718D01*
X6719584Y3339100D01*
D02*
G37*
G36*
X5069800Y3339099D02*
X4894000D01*
Y3163299D01*
X5069800D01*
Y3339099D01*
D02*
G37*
G36*
X3123800Y3165872D02*
Y3098400D01*
X3191272D01*
X3179337Y3127213D01*
X3152613Y3153937D01*
X3123800Y3165872D01*
D02*
G37*
G36*
X3073800D02*
X3044987Y3153937D01*
X3018263Y3127213D01*
X3006328Y3098400D01*
X3073800D01*
Y3165872D01*
D02*
G37*
G36*
X6130600Y3209900D02*
X5959800D01*
Y3039100D01*
X6130600D01*
Y3209900D01*
D02*
G37*
G36*
X5706587D02*
X5672613D01*
X5641225Y3196899D01*
X5617201Y3172875D01*
X5604200Y3141487D01*
Y3107513D01*
X5617201Y3076125D01*
X5641225Y3052101D01*
X5672613Y3039100D01*
X5706587D01*
X5737975Y3052101D01*
X5761999Y3076125D01*
X5775000Y3107513D01*
Y3141487D01*
X5761999Y3172875D01*
X5737975Y3196899D01*
X5706587Y3209900D01*
D02*
G37*
G36*
X3191272Y3048400D02*
X3123800D01*
Y2980928D01*
X3152613Y2992863D01*
X3179337Y3019587D01*
X3191272Y3048400D01*
D02*
G37*
G36*
X3073800D02*
X3006328D01*
X3018263Y3019587D01*
X3044987Y2992863D01*
X3073800Y2980928D01*
Y3048400D01*
D02*
G37*
G36*
X4215200Y3173800D02*
X4014400D01*
Y2973000D01*
X4215200D01*
Y3173800D01*
D02*
G37*
G36*
X3880770D02*
X3840829D01*
X3803928Y3158515D01*
X3775685Y3130272D01*
X3760400Y3093371D01*
Y3053429D01*
X3775685Y3016528D01*
X3803928Y2988285D01*
X3840829Y2973000D01*
X3880770D01*
X3917672Y2988285D01*
X3945915Y3016528D01*
X3961200Y3053429D01*
Y3093371D01*
X3945915Y3130272D01*
X3917672Y3158515D01*
X3880770Y3173800D01*
D02*
G37*
G36*
X3626771D02*
X3586829D01*
X3549928Y3158515D01*
X3521685Y3130272D01*
X3506400Y3093371D01*
Y3053429D01*
X3521685Y3016528D01*
X3549928Y2988285D01*
X3586829Y2973000D01*
X3626771D01*
X3663672Y2988285D01*
X3691915Y3016528D01*
X3707200Y3053429D01*
Y3093371D01*
X3691915Y3130272D01*
X3663672Y3158515D01*
X3626771Y3173800D01*
D02*
G37*
G36*
X3372771D02*
X3332829D01*
X3295928Y3158515D01*
X3267685Y3130272D01*
X3252400Y3093371D01*
Y3053429D01*
X3267685Y3016528D01*
X3295928Y2988285D01*
X3332829Y2973000D01*
X3372771D01*
X3409672Y2988285D01*
X3437915Y3016528D01*
X3453200Y3053429D01*
Y3093371D01*
X3437915Y3130272D01*
X3409672Y3158515D01*
X3372771Y3173800D01*
D02*
G37*
G36*
X2864771D02*
X2824830D01*
X2787928Y3158515D01*
X2759685Y3130272D01*
X2744400Y3093371D01*
Y3053429D01*
X2759685Y3016528D01*
X2787928Y2988285D01*
X2824830Y2973000D01*
X2864771D01*
X2901672Y2988285D01*
X2929915Y3016528D01*
X2945200Y3053429D01*
Y3093371D01*
X2929915Y3130272D01*
X2901672Y3158515D01*
X2864771Y3173800D01*
D02*
G37*
G36*
X2610771D02*
X2570829D01*
X2533928Y3158515D01*
X2505685Y3130272D01*
X2490400Y3093371D01*
Y3053429D01*
X2505685Y3016528D01*
X2533928Y2988285D01*
X2570829Y2973000D01*
X2610771D01*
X2647672Y2988285D01*
X2675915Y3016528D01*
X2691200Y3053429D01*
Y3093371D01*
X2675915Y3130272D01*
X2647672Y3158515D01*
X2610771Y3173800D01*
D02*
G37*
G36*
X2356771D02*
X2316829D01*
X2279928Y3158515D01*
X2251685Y3130272D01*
X2236400Y3093371D01*
Y3053429D01*
X2251685Y3016528D01*
X2279928Y2988285D01*
X2316829Y2973000D01*
X2356771D01*
X2393672Y2988285D01*
X2421915Y3016528D01*
X2437200Y3053429D01*
Y3093371D01*
X2421915Y3130272D01*
X2393672Y3158515D01*
X2356771Y3173800D01*
D02*
G37*
G36*
X6465584Y3085100D02*
X6430616D01*
X6398309Y3071718D01*
X6373582Y3046991D01*
X6360200Y3014684D01*
Y2979716D01*
X6373582Y2947409D01*
X6398309Y2922682D01*
X6430616Y2909300D01*
X6465584D01*
X6497891Y2922682D01*
X6522618Y2947409D01*
X6536000Y2979716D01*
Y3014684D01*
X6522618Y3046991D01*
X6497891Y3071718D01*
X6465584Y3085100D01*
D02*
G37*
G36*
X5253384D02*
X5218416D01*
X5186109Y3071718D01*
X5161382Y3046991D01*
X5148000Y3014684D01*
Y2979716D01*
X5161382Y2947409D01*
X5186109Y2922682D01*
X5218416Y2909300D01*
X5253384D01*
X5285691Y2922682D01*
X5310418Y2947409D01*
X5323800Y2979716D01*
Y3014684D01*
X5310418Y3046991D01*
X5285691Y3071718D01*
X5253384Y3085100D01*
D02*
G37*
G36*
X6784600Y2825700D02*
X6727100D01*
Y2768200D01*
X6784600D01*
Y2825700D01*
D02*
G37*
G36*
X5006900Y2822142D02*
Y2768200D01*
X5060842D01*
X5051840Y2789932D01*
X5028633Y2813140D01*
X5006900Y2822142D01*
D02*
G37*
G36*
X4956900Y2822141D02*
X4935168Y2813140D01*
X4911960Y2789932D01*
X4902958Y2768200D01*
X4956900D01*
Y2822141D01*
D02*
G37*
G36*
X6677100Y2825700D02*
X6619600D01*
Y2768200D01*
X6677100D01*
Y2825700D01*
D02*
G37*
G36*
X4956900Y2718200D02*
X4902958D01*
X4911960Y2696467D01*
X4935168Y2673260D01*
X4956900Y2664258D01*
Y2718200D01*
D02*
G37*
G36*
X5060842D02*
X5006900D01*
Y2664258D01*
X5028633Y2673260D01*
X5051840Y2696467D01*
X5060842Y2718200D01*
D02*
G37*
G36*
X6784600D02*
X6727100D01*
Y2660700D01*
X6784600D01*
Y2718200D01*
D02*
G37*
G36*
X6677100D02*
X6619600D01*
Y2660700D01*
X6677100D01*
Y2718200D01*
D02*
G37*
G36*
X6062187Y2447300D02*
X6028213D01*
X5996825Y2434299D01*
X5972801Y2410275D01*
X5959800Y2378887D01*
Y2344913D01*
X5972801Y2313525D01*
X5974898Y2311428D01*
X5970038Y2299695D01*
X5775000D01*
Y2447300D01*
X5604200D01*
Y2276500D01*
X5687779D01*
X5692639Y2264767D01*
X5511933Y2084061D01*
X5500200Y2088922D01*
Y2105754D01*
X5482631Y2148169D01*
X5450169Y2180631D01*
X5407755Y2198200D01*
X5361846D01*
X5319432Y2180631D01*
X5286969Y2148169D01*
X5269400Y2105754D01*
Y2059846D01*
X5286969Y2017431D01*
X5319432Y1984969D01*
X5361846Y1967400D01*
X5378679D01*
X5383539Y1955667D01*
X5218467Y1790595D01*
X3943952D01*
X3939091Y1802328D01*
X3954053Y1817290D01*
X3969508Y1854600D01*
X3752092D01*
X3767547Y1817290D01*
X3782509Y1802328D01*
X3777648Y1790595D01*
X3515054D01*
X3462578Y1843072D01*
X3468200Y1856646D01*
Y1902554D01*
X3450631Y1944969D01*
X3418169Y1977431D01*
X3375754Y1995000D01*
X3329846D01*
X3287431Y1977431D01*
X3254969Y1944969D01*
X3237400Y1902554D01*
Y1856646D01*
X3254969Y1814231D01*
X3287431Y1781769D01*
X3329846Y1764200D01*
X3375754D01*
X3389328Y1769822D01*
X3456975Y1702175D01*
X3473779Y1690947D01*
X3493600Y1687005D01*
X5239921D01*
X5259743Y1690947D01*
X5276546Y1702175D01*
X5770476Y2196105D01*
X6784072D01*
X6807642Y2172534D01*
X6840317Y2159000D01*
X6875683D01*
X6908358Y2172534D01*
X6933366Y2197542D01*
X6946900Y2230217D01*
Y2265583D01*
X6933366Y2298258D01*
X6908358Y2323266D01*
X6875683Y2336800D01*
X6840317D01*
X6807642Y2323266D01*
X6784072Y2299695D01*
X6120362D01*
X6115502Y2311428D01*
X6117599Y2313525D01*
X6130600Y2344913D01*
Y2378887D01*
X6117599Y2410275D01*
X6093575Y2434299D01*
X6062187Y2447300D01*
D02*
G37*
G36*
X4134771Y2411800D02*
X4094830D01*
X4057928Y2396515D01*
X4029685Y2368272D01*
X4014400Y2331371D01*
Y2291429D01*
X4029685Y2254528D01*
X4057928Y2226285D01*
X4094830Y2211000D01*
X4134771D01*
X4171672Y2226285D01*
X4199915Y2254528D01*
X4215200Y2291429D01*
Y2331371D01*
X4199915Y2368272D01*
X4171672Y2396515D01*
X4134771Y2411800D01*
D02*
G37*
G36*
X3880770D02*
X3840829D01*
X3803928Y2396515D01*
X3775685Y2368272D01*
X3760400Y2331371D01*
Y2291429D01*
X3775685Y2254528D01*
X3803928Y2226285D01*
X3840829Y2211000D01*
X3880770D01*
X3917672Y2226285D01*
X3945915Y2254528D01*
X3961200Y2291429D01*
Y2331371D01*
X3945915Y2368272D01*
X3917672Y2396515D01*
X3880770Y2411800D01*
D02*
G37*
G36*
X3626771D02*
X3586829D01*
X3549928Y2396515D01*
X3521685Y2368272D01*
X3506400Y2331371D01*
Y2291429D01*
X3521685Y2254528D01*
X3549928Y2226285D01*
X3586829Y2211000D01*
X3626771D01*
X3663672Y2226285D01*
X3691915Y2254528D01*
X3707200Y2291429D01*
Y2331371D01*
X3691915Y2368272D01*
X3663672Y2396515D01*
X3626771Y2411800D01*
D02*
G37*
G36*
X3372771D02*
X3332829D01*
X3295928Y2396515D01*
X3267685Y2368272D01*
X3252400Y2331371D01*
Y2291429D01*
X3267685Y2254528D01*
X3295928Y2226285D01*
X3332829Y2211000D01*
X3372771D01*
X3409672Y2226285D01*
X3437915Y2254528D01*
X3453200Y2291429D01*
Y2331371D01*
X3437915Y2368272D01*
X3409672Y2396515D01*
X3372771Y2411800D01*
D02*
G37*
G36*
X3118771D02*
X3078829D01*
X3041928Y2396515D01*
X3013685Y2368272D01*
X2998400Y2331371D01*
Y2291429D01*
X3013685Y2254528D01*
X3041928Y2226285D01*
X3078829Y2211000D01*
X3118771D01*
X3155672Y2226285D01*
X3183915Y2254528D01*
X3199200Y2291429D01*
Y2331371D01*
X3183915Y2368272D01*
X3155672Y2396515D01*
X3118771Y2411800D01*
D02*
G37*
G36*
X2864771D02*
X2824830D01*
X2787928Y2396515D01*
X2759685Y2368272D01*
X2744400Y2331371D01*
Y2291429D01*
X2759685Y2254528D01*
X2787928Y2226285D01*
X2824830Y2211000D01*
X2864771D01*
X2901672Y2226285D01*
X2929915Y2254528D01*
X2945200Y2291429D01*
Y2331371D01*
X2929915Y2368272D01*
X2901672Y2396515D01*
X2864771Y2411800D01*
D02*
G37*
G36*
X2610771D02*
X2570829D01*
X2533928Y2396515D01*
X2505685Y2368272D01*
X2490400Y2331371D01*
Y2291429D01*
X2505685Y2254528D01*
X2533928Y2226285D01*
X2570829Y2211000D01*
X2610771D01*
X2647672Y2226285D01*
X2675915Y2254528D01*
X2691200Y2291429D01*
Y2331371D01*
X2675915Y2368272D01*
X2647672Y2396515D01*
X2610771Y2411800D01*
D02*
G37*
G36*
X2356771D02*
X2316829D01*
X2279928Y2396515D01*
X2251685Y2368272D01*
X2236400Y2331371D01*
Y2291429D01*
X2251685Y2254528D01*
X2279928Y2226285D01*
X2316829Y2211000D01*
X2356771D01*
X2393672Y2226285D01*
X2421915Y2254528D01*
X2437200Y2291429D01*
Y2331371D01*
X2421915Y2368272D01*
X2393672Y2396515D01*
X2356771Y2411800D01*
D02*
G37*
G36*
X4391754Y2198200D02*
X4345845D01*
X4303431Y2180631D01*
X4270969Y2148169D01*
X4253400Y2105754D01*
Y2059846D01*
X4270969Y2017431D01*
X4303431Y1984969D01*
X4345845Y1967400D01*
X4391754D01*
X4434168Y1984969D01*
X4466631Y2017431D01*
X4484200Y2059846D01*
Y2105754D01*
X4466631Y2148169D01*
X4434168Y2180631D01*
X4391754Y2198200D01*
D02*
G37*
G36*
X2711452Y2146831D02*
X2665543D01*
X2623128Y2129262D01*
X2590666Y2096800D01*
X2573097Y2054386D01*
Y2008477D01*
X2590666Y1966062D01*
X2623128Y1933600D01*
X2665543Y1916031D01*
X2711452D01*
X2753866Y1933600D01*
X2786328Y1966062D01*
X2803897Y2008477D01*
Y2054386D01*
X2786328Y2096800D01*
X2753866Y2129262D01*
X2711452Y2146831D01*
D02*
G37*
G36*
X3885800Y1988308D02*
Y1904600D01*
X3969508D01*
X3954053Y1941910D01*
X3923110Y1972853D01*
X3885800Y1988308D01*
D02*
G37*
G36*
X3835800D02*
X3798490Y1972853D01*
X3767547Y1941910D01*
X3752092Y1904600D01*
X3835800D01*
Y1988308D01*
D02*
G37*
G36*
X8372667Y1939630D02*
X8367830D01*
Y1814630D01*
X8492830D01*
Y1819467D01*
X8469994Y1874598D01*
X8427798Y1916794D01*
X8372667Y1939630D01*
D02*
G37*
G36*
X8317830D02*
X8312993D01*
X8257862Y1916794D01*
X8215666Y1874598D01*
X8192830Y1819467D01*
Y1814630D01*
X8317830D01*
Y1939630D01*
D02*
G37*
G36*
X7739807D02*
X7734970D01*
Y1814630D01*
X7859970D01*
Y1819467D01*
X7837134Y1874598D01*
X7794938Y1916794D01*
X7739807Y1939630D01*
D02*
G37*
G36*
X7684970D02*
X7680133D01*
X7625002Y1916794D01*
X7582806Y1874598D01*
X7559970Y1819467D01*
Y1814630D01*
X7684970D01*
Y1939630D01*
D02*
G37*
G36*
X6547770Y2005400D02*
X6507829D01*
X6470928Y1990115D01*
X6442685Y1961872D01*
X6427400Y1924971D01*
Y1885030D01*
X6442685Y1848128D01*
X6470928Y1819885D01*
X6507829Y1804600D01*
X6547770D01*
X6584672Y1819885D01*
X6612915Y1848128D01*
X6628200Y1885030D01*
Y1924971D01*
X6612915Y1961872D01*
X6584672Y1990115D01*
X6547770Y2005400D01*
D02*
G37*
G36*
X5866200Y2005400D02*
X5665400D01*
Y1804600D01*
X5866200D01*
Y2005400D01*
D02*
G37*
G36*
X8492830Y1764630D02*
X8367830D01*
Y1639630D01*
X8372667D01*
X8427798Y1662466D01*
X8469994Y1704662D01*
X8492830Y1759793D01*
Y1764630D01*
D02*
G37*
G36*
X8317830D02*
X8192830D01*
Y1759793D01*
X8215666Y1704662D01*
X8257862Y1662466D01*
X8312993Y1639630D01*
X8317830D01*
Y1764630D01*
D02*
G37*
G36*
X7859970D02*
X7734970D01*
Y1639630D01*
X7739807D01*
X7794938Y1662466D01*
X7837134Y1704662D01*
X7859970Y1759793D01*
Y1764630D01*
D02*
G37*
G36*
X7684970D02*
X7559970D01*
Y1759793D01*
X7582806Y1704662D01*
X7625002Y1662466D01*
X7680133Y1639630D01*
X7684970D01*
Y1764630D01*
D02*
G37*
G36*
X6547771Y1751400D02*
X6507829D01*
X6470928Y1736115D01*
X6442685Y1707872D01*
X6427400Y1670971D01*
Y1631030D01*
X6442685Y1594128D01*
X6470928Y1565885D01*
X6507829Y1550600D01*
X6547771D01*
X6584672Y1565885D01*
X6612915Y1594128D01*
X6628200Y1631030D01*
Y1670971D01*
X6612915Y1707872D01*
X6584672Y1736115D01*
X6547771Y1751400D01*
D02*
G37*
G36*
X5785771D02*
X5745830D01*
X5708928Y1736115D01*
X5680685Y1707872D01*
X5665400Y1670971D01*
Y1631030D01*
X5680685Y1594128D01*
X5708928Y1565885D01*
X5745830Y1550600D01*
X5785771D01*
X5822672Y1565885D01*
X5850915Y1594128D01*
X5866200Y1631030D01*
Y1670971D01*
X5850915Y1707872D01*
X5822672Y1736115D01*
X5785771Y1751400D01*
D02*
G37*
G36*
X6880954Y1741000D02*
X6835045D01*
X6792631Y1723432D01*
X6760169Y1690969D01*
X6742600Y1648555D01*
Y1602646D01*
X6760169Y1560232D01*
X6792631Y1527769D01*
X6835045Y1510201D01*
X6880954D01*
X6923368Y1527769D01*
X6955831Y1560232D01*
X6973400Y1602646D01*
Y1648555D01*
X6955831Y1690969D01*
X6923368Y1723432D01*
X6880954Y1741000D01*
D02*
G37*
G36*
X3238100Y1464324D02*
Y1409300D01*
X3293124D01*
X3283888Y1431599D01*
X3260399Y1455088D01*
X3238100Y1464324D01*
D02*
G37*
G36*
X8057311Y1628600D02*
X7995489D01*
X7938373Y1604942D01*
X7894658Y1561227D01*
X7871000Y1504111D01*
Y1442289D01*
X7894658Y1385173D01*
X7938373Y1341458D01*
X7995489Y1317800D01*
X8057311D01*
X8114427Y1341458D01*
X8158142Y1385173D01*
X8181800Y1442289D01*
Y1504111D01*
X8158142Y1561227D01*
X8114427Y1604942D01*
X8057311Y1628600D01*
D02*
G37*
G36*
X6547770Y1497400D02*
X6507829D01*
X6470928Y1482115D01*
X6442685Y1453872D01*
X6427400Y1416970D01*
Y1377029D01*
X6442685Y1340128D01*
X6470928Y1311885D01*
X6507829Y1296600D01*
X6547770D01*
X6584671Y1311885D01*
X6612914Y1340128D01*
X6628199Y1377029D01*
Y1416970D01*
X6612914Y1453872D01*
X6584671Y1482115D01*
X6547770Y1497400D01*
D02*
G37*
G36*
X5785770D02*
X5745829D01*
X5708928Y1482115D01*
X5680685Y1453872D01*
X5665400Y1416970D01*
Y1377029D01*
X5680685Y1340128D01*
X5708928Y1311885D01*
X5745829Y1296600D01*
X5785770D01*
X5822671Y1311885D01*
X5850914Y1340128D01*
X5866199Y1377029D01*
Y1416970D01*
X5850914Y1453872D01*
X5822671Y1482115D01*
X5785770Y1497400D01*
D02*
G37*
G36*
X2456083Y3568700D02*
X2420717D01*
X2388042Y3555166D01*
X2363034Y3530158D01*
X2349500Y3497483D01*
Y3464150D01*
X2046175Y3160825D01*
X2034947Y3144021D01*
X2031005Y3124200D01*
Y2159000D01*
X2034947Y2139179D01*
X2046175Y2122375D01*
X2476500Y1692050D01*
Y1658717D01*
X2490034Y1626042D01*
X2515042Y1601034D01*
X2547717Y1587500D01*
X2583083D01*
X2599766Y1594410D01*
X2601481Y1593265D01*
X2621302Y1589322D01*
X2621303Y1589322D01*
X2757029D01*
X3141533Y1204818D01*
X3134339Y1194052D01*
X3100257Y1208169D01*
X3054348D01*
X3011934Y1190600D01*
X2979472Y1158138D01*
X2961903Y1115723D01*
Y1069814D01*
X2979472Y1027400D01*
X3011934Y994938D01*
X3054348Y977369D01*
X3100257D01*
X3142672Y994938D01*
X3175134Y1027400D01*
X3192703Y1069814D01*
Y1115723D01*
X3178586Y1149805D01*
X3189352Y1156999D01*
X3341576Y1004775D01*
X3358379Y993547D01*
X3378201Y989605D01*
X4588646D01*
X4870944Y707306D01*
X4864100Y690783D01*
Y655417D01*
X4877634Y622742D01*
X4902642Y597734D01*
X4935317Y584200D01*
X4970683D01*
X5003358Y597734D01*
X5028366Y622742D01*
X5041900Y655417D01*
Y690783D01*
X5028366Y723458D01*
X5003358Y748466D01*
X4970683Y762000D01*
X4959960D01*
X4954342Y770407D01*
X4646725Y1078025D01*
X4629921Y1089253D01*
X4610100Y1093195D01*
X3399655D01*
X3204750Y1288100D01*
X3210011Y1300800D01*
X3229709D01*
X3260399Y1313512D01*
X3283888Y1337001D01*
X3293124Y1359300D01*
X3213100D01*
Y1384300D01*
X3188100D01*
Y1464324D01*
X3165801Y1455088D01*
X3142312Y1431599D01*
X3129600Y1400909D01*
Y1381211D01*
X3116900Y1375950D01*
X2815108Y1677742D01*
X2798304Y1688970D01*
X2778483Y1692913D01*
X2654300D01*
Y1694083D01*
X2640766Y1726758D01*
X2615758Y1751766D01*
X2583083Y1765300D01*
X2549750D01*
X2134595Y2180454D01*
Y3102746D01*
X2422750Y3390900D01*
X2456083D01*
X2488758Y3404434D01*
X2513766Y3429442D01*
X2527300Y3462117D01*
Y3497483D01*
X2513766Y3530158D01*
X2488758Y3555166D01*
X2456083Y3568700D01*
D02*
G37*
G36*
X8372667Y1306770D02*
X8367830D01*
Y1181770D01*
X8492830D01*
Y1186607D01*
X8469994Y1241738D01*
X8427798Y1283934D01*
X8372667Y1306770D01*
D02*
G37*
G36*
X8317830D02*
X8312993D01*
X8257862Y1283934D01*
X8215666Y1241738D01*
X8192830Y1186607D01*
Y1181770D01*
X8317830D01*
Y1306770D01*
D02*
G37*
G36*
X7739807D02*
X7734970D01*
Y1181770D01*
X7859970D01*
Y1186607D01*
X7837134Y1241738D01*
X7794938Y1283934D01*
X7739807Y1306770D01*
D02*
G37*
G36*
X7684970D02*
X7680133D01*
X7625002Y1283934D01*
X7582806Y1241738D01*
X7559970Y1186607D01*
Y1181770D01*
X7684970D01*
Y1306770D01*
D02*
G37*
G36*
X6883000Y1226308D02*
Y1142600D01*
X6966708D01*
X6951254Y1179910D01*
X6920310Y1210853D01*
X6883000Y1226308D01*
D02*
G37*
G36*
X6833000Y1226307D02*
X6795690Y1210853D01*
X6764747Y1179910D01*
X6749293Y1142600D01*
X6833000D01*
Y1226307D01*
D02*
G37*
G36*
X4518755Y1347300D02*
X4472846D01*
X4430432Y1329731D01*
X4397969Y1297269D01*
X4380400Y1254854D01*
Y1208946D01*
X4397969Y1166531D01*
X4430432Y1134069D01*
X4472846Y1116500D01*
X4518755D01*
X4561169Y1134069D01*
X4593631Y1166531D01*
X4611200Y1208946D01*
Y1254854D01*
X4593631Y1297269D01*
X4561169Y1329731D01*
X4518755Y1347300D01*
D02*
G37*
G36*
X3502754D02*
X3456845D01*
X3414431Y1329731D01*
X3381969Y1297269D01*
X3364400Y1254854D01*
Y1208946D01*
X3381969Y1166531D01*
X3414431Y1134069D01*
X3456845Y1116500D01*
X3502754D01*
X3545168Y1134069D01*
X3577631Y1166531D01*
X3595200Y1208946D01*
Y1254854D01*
X3577631Y1297269D01*
X3545168Y1329731D01*
X3502754Y1347300D01*
D02*
G37*
G36*
X6547770Y1243400D02*
X6507829D01*
X6470928Y1228115D01*
X6442685Y1199872D01*
X6427400Y1162971D01*
Y1123030D01*
X6442685Y1086128D01*
X6470928Y1057885D01*
X6507829Y1042600D01*
X6547770D01*
X6584672Y1057885D01*
X6612915Y1086128D01*
X6628200Y1123030D01*
Y1162971D01*
X6612915Y1199872D01*
X6584672Y1228115D01*
X6547770Y1243400D01*
D02*
G37*
G36*
X5785771Y1243400D02*
X5745829D01*
X5708928Y1228115D01*
X5680685Y1199872D01*
X5665400Y1162971D01*
Y1123029D01*
X5680685Y1086128D01*
X5708928Y1057885D01*
X5745829Y1042600D01*
X5785771D01*
X5822672Y1057885D01*
X5850915Y1086128D01*
X5866200Y1123029D01*
Y1162971D01*
X5850915Y1199872D01*
X5822672Y1228115D01*
X5785771Y1243400D01*
D02*
G37*
G36*
X6833000Y1092600D02*
X6749293D01*
X6764747Y1055290D01*
X6795690Y1024347D01*
X6833000Y1008893D01*
Y1092600D01*
D02*
G37*
G36*
X6966708D02*
X6883000D01*
Y1008892D01*
X6920310Y1024347D01*
X6951254Y1055290D01*
X6966708Y1092600D01*
D02*
G37*
G36*
X8492830Y1131770D02*
X8367830D01*
Y1006770D01*
X8372667D01*
X8427798Y1029606D01*
X8469994Y1071802D01*
X8492830Y1126933D01*
Y1131770D01*
D02*
G37*
G36*
X8317830D02*
X8192830D01*
Y1126933D01*
X8215666Y1071802D01*
X8257862Y1029606D01*
X8312993Y1006770D01*
X8317830D01*
Y1131770D01*
D02*
G37*
G36*
X7859970D02*
X7734970D01*
Y1006770D01*
X7739807D01*
X7794938Y1029606D01*
X7837134Y1071802D01*
X7859970Y1126933D01*
Y1131770D01*
D02*
G37*
G36*
X7684970D02*
X7559970D01*
Y1126933D01*
X7582806Y1071802D01*
X7625002Y1029606D01*
X7680133Y1006770D01*
X7684970D01*
Y1131770D01*
D02*
G37*
G36*
X2895200Y816372D02*
Y748900D01*
X2962672D01*
X2950737Y777713D01*
X2924013Y804437D01*
X2895200Y816372D01*
D02*
G37*
G36*
X2845200D02*
X2816387Y804437D01*
X2789663Y777713D01*
X2777728Y748900D01*
X2845200D01*
Y816372D01*
D02*
G37*
G36*
X6298800Y794507D02*
Y710800D01*
X6382507D01*
X6367053Y748110D01*
X6336110Y779053D01*
X6298800Y794507D01*
D02*
G37*
G36*
X4635100Y778272D02*
Y710800D01*
X4702572D01*
X4690637Y739613D01*
X4663913Y766337D01*
X4635100Y778272D01*
D02*
G37*
G36*
X4585100D02*
X4556287Y766337D01*
X4529563Y739613D01*
X4517629Y710800D01*
X4585100D01*
Y778272D01*
D02*
G37*
G36*
X6248800Y794508D02*
X6211490Y779053D01*
X6180546Y748110D01*
X6165092Y710800D01*
X6248800D01*
Y794508D01*
D02*
G37*
G36*
X775077Y869850D02*
X741223D01*
X709945Y856894D01*
X686005Y832955D01*
X673050Y801677D01*
Y767823D01*
X686005Y736545D01*
X709945Y712606D01*
X741223Y699650D01*
X775077D01*
X806355Y712606D01*
X830294Y736545D01*
X843250Y767823D01*
Y801677D01*
X830294Y832955D01*
X806355Y856894D01*
X775077Y869850D01*
D02*
G37*
G36*
X2962672Y698900D02*
X2895200D01*
Y631428D01*
X2924013Y643363D01*
X2950737Y670087D01*
X2962672Y698900D01*
D02*
G37*
G36*
X2845200D02*
X2777728D01*
X2789663Y670087D01*
X2816387Y643363D01*
X2845200Y631428D01*
Y698900D01*
D02*
G37*
G36*
X2636171Y824300D02*
X2596229D01*
X2559328Y809015D01*
X2531085Y780772D01*
X2515800Y743871D01*
Y703929D01*
X2531085Y667028D01*
X2559328Y638785D01*
X2596229Y623500D01*
X2636171D01*
X2673072Y638785D01*
X2701315Y667028D01*
X2716600Y703929D01*
Y743871D01*
X2701315Y780772D01*
X2673072Y809015D01*
X2636171Y824300D01*
D02*
G37*
G36*
X2382171D02*
X2342229D01*
X2305328Y809015D01*
X2277085Y780772D01*
X2261800Y743871D01*
Y703929D01*
X2277085Y667028D01*
X2305328Y638785D01*
X2342229Y623500D01*
X2382171D01*
X2419072Y638785D01*
X2447315Y667028D01*
X2462600Y703929D01*
Y743871D01*
X2447315Y780772D01*
X2419072Y809015D01*
X2382171Y824300D01*
D02*
G37*
G36*
X2208600D02*
X2007800D01*
Y623500D01*
X2208600D01*
Y824300D01*
D02*
G37*
G36*
X4702572Y660800D02*
X4635100D01*
Y593328D01*
X4663913Y605263D01*
X4690637Y631987D01*
X4702572Y660800D01*
D02*
G37*
G36*
X4585100D02*
X4517629D01*
X4529563Y631987D01*
X4556287Y605263D01*
X4585100Y593328D01*
Y660800D01*
D02*
G37*
G36*
X4376071Y786200D02*
X4336129D01*
X4299228Y770915D01*
X4270985Y742672D01*
X4255700Y705771D01*
Y665829D01*
X4270985Y628928D01*
X4299228Y600685D01*
X4336129Y585400D01*
X4376071D01*
X4412972Y600685D01*
X4441215Y628928D01*
X4456500Y665829D01*
Y705771D01*
X4441215Y742672D01*
X4412972Y770915D01*
X4376071Y786200D01*
D02*
G37*
G36*
X4122071D02*
X4082129D01*
X4045228Y770915D01*
X4016985Y742672D01*
X4001700Y705771D01*
Y665829D01*
X4016985Y628928D01*
X4045228Y600685D01*
X4082129Y585400D01*
X4122071D01*
X4158972Y600685D01*
X4187215Y628928D01*
X4202500Y665829D01*
Y705771D01*
X4187215Y742672D01*
X4158972Y770915D01*
X4122071Y786200D01*
D02*
G37*
G36*
X3948500D02*
X3747700D01*
Y585400D01*
X3948500D01*
Y786200D01*
D02*
G37*
G36*
X6382507Y660800D02*
X6298800D01*
Y577093D01*
X6336110Y592547D01*
X6367053Y623490D01*
X6382507Y660800D01*
D02*
G37*
G36*
X6248800D02*
X6165092D01*
X6180546Y623490D01*
X6211490Y592547D01*
X6248800Y577092D01*
Y660800D01*
D02*
G37*
G36*
X5788754Y801200D02*
X5742845D01*
X5700431Y783631D01*
X5667969Y751169D01*
X5650400Y708754D01*
Y662846D01*
X5667969Y620431D01*
X5700431Y587969D01*
X5742845Y570400D01*
X5788754D01*
X5831168Y587969D01*
X5863631Y620431D01*
X5881200Y662846D01*
Y708754D01*
X5863631Y751169D01*
X5831168Y783631D01*
X5788754Y801200D01*
D02*
G37*
%LPD*%
D10*
X5749022Y2247900D02*
X6858000D01*
X5239921Y1738800D02*
X5749022Y2247900D01*
X3493600Y1738800D02*
X5239921D01*
X3352800Y1879600D02*
X3493600Y1738800D01*
X5185280Y3582500D02*
X5211781Y3556000D01*
X5232400D01*
X3352800Y3441700D02*
X3583041D01*
X3723841Y3582500D01*
X5185280D01*
X2778483Y1641117D02*
X3378201Y1041400D01*
X2621302Y1641117D02*
X2778483D01*
X2586019Y1676400D02*
X2621302Y1641117D01*
X3378201Y1041400D02*
X4610100D01*
X2565400Y1676400D02*
X2586019D01*
X2082800Y2159000D02*
X2565400Y1676400D01*
X4610100Y1041400D02*
X4917717Y733783D01*
X4953000Y673100D02*
Y693719D01*
X4917717Y729002D02*
Y733783D01*
Y729002D02*
X4953000Y693719D01*
X2082800Y2159000D02*
Y3124200D01*
X2438400Y3479800D01*
D11*
X7366201Y330217D02*
Y431784D01*
X7416985Y482567D01*
X7467769Y431784D01*
Y330217D01*
Y406392D01*
X7366201D01*
X7518552Y482567D02*
Y330217D01*
X7594728D01*
X7620119Y355608D01*
Y457175D01*
X7594728Y482567D01*
X7518552D01*
X7772470Y457175D02*
X7747078Y482567D01*
X7696295D01*
X7670903Y457175D01*
Y355608D01*
X7696295Y330217D01*
X7747078D01*
X7772470Y355608D01*
X7975604Y330217D02*
X8026388D01*
X8000996D01*
Y431784D01*
X7975604D01*
X8102563Y330217D02*
Y431784D01*
X8178739D01*
X8204130Y406392D01*
Y330217D01*
X8254914Y279433D02*
Y431784D01*
X8331089D01*
X8356481Y406392D01*
Y355608D01*
X8331089Y330217D01*
X8254914D01*
X8407265Y431784D02*
Y355608D01*
X8432656Y330217D01*
X8508832D01*
Y431784D01*
X8585007Y457175D02*
Y431784D01*
X8559615D01*
X8610399D01*
X8585007D01*
Y355608D01*
X8610399Y330217D01*
X7543956Y4546575D02*
X7442389D01*
Y4470400D01*
X7493172D01*
X7442389D01*
Y4394225D01*
X7594740Y4495792D02*
Y4394225D01*
Y4445008D01*
X7620132Y4470400D01*
X7645523Y4495792D01*
X7670915D01*
X7772482Y4394225D02*
X7823266D01*
X7848658Y4419617D01*
Y4470400D01*
X7823266Y4495792D01*
X7772482D01*
X7747090Y4470400D01*
Y4419617D01*
X7772482Y4394225D01*
X7899441D02*
Y4495792D01*
X7924833D01*
X7950225Y4470400D01*
Y4394225D01*
Y4470400D01*
X7975617Y4495792D01*
X8001008Y4470400D01*
Y4394225D01*
X8204143Y4546575D02*
Y4394225D01*
X8280318D01*
X8305710Y4419617D01*
Y4521183D01*
X8280318Y4546575D01*
X8204143D01*
X8356493Y4394225D02*
Y4495792D01*
X8407277Y4546575D01*
X8458061Y4495792D01*
Y4394225D01*
Y4470400D01*
X8356493D01*
X8610411Y4521183D02*
X8585019Y4546575D01*
X8534236D01*
X8508844Y4521183D01*
Y4419617D01*
X8534236Y4394225D01*
X8585019D01*
X8610411Y4419617D01*
X4889599Y4521175D02*
X4788032D01*
Y4368825D01*
X4889599D01*
X4788032Y4445000D02*
X4838815D01*
X4940382Y4368825D02*
Y4470392D01*
X5016558D01*
X5041950Y4445000D01*
Y4368825D01*
X5092733Y4521175D02*
Y4368825D01*
Y4445000D01*
X5118125Y4470392D01*
X5168908D01*
X5194300Y4445000D01*
Y4368825D01*
X5321259D02*
X5270476D01*
X5245084Y4394217D01*
Y4445000D01*
X5270476Y4470392D01*
X5321259D01*
X5346651Y4445000D01*
Y4419608D01*
X5245084D01*
X5499002Y4521175D02*
Y4368825D01*
X5422826D01*
X5397434Y4394217D01*
Y4445000D01*
X5422826Y4470392D01*
X5499002D01*
X5549785Y4368825D02*
X5600569D01*
X5575177D01*
Y4521175D01*
X5549785Y4495783D01*
X1270107Y4546575D02*
X1168540D01*
Y4394225D01*
X1270107D01*
X1168540Y4470400D02*
X1219323D01*
X1320890Y4394225D02*
Y4495792D01*
X1397066D01*
X1422458Y4470400D01*
Y4394225D01*
X1473241Y4546575D02*
Y4394225D01*
Y4470400D01*
X1498633Y4495792D01*
X1549417D01*
X1574808Y4470400D01*
Y4394225D01*
X1701767D02*
X1650984D01*
X1625592Y4419617D01*
Y4470400D01*
X1650984Y4495792D01*
X1701767D01*
X1727159Y4470400D01*
Y4445008D01*
X1625592D01*
X1879510Y4546575D02*
Y4394225D01*
X1803334D01*
X1777943Y4419617D01*
Y4470400D01*
X1803334Y4495792D01*
X1879510D01*
X2006469Y4394225D02*
Y4546575D01*
X1930293Y4470400D01*
X2031861D01*
X3899007Y444475D02*
X3797440D01*
Y292125D01*
X3899007D01*
X3797440Y368300D02*
X3848223D01*
X3949790Y292125D02*
Y393692D01*
X4025966D01*
X4051358Y368300D01*
Y292125D01*
X4102141Y444475D02*
Y292125D01*
Y368300D01*
X4127533Y393692D01*
X4178317D01*
X4203708Y368300D01*
Y292125D01*
X4330667D02*
X4279884D01*
X4254492Y317517D01*
Y368300D01*
X4279884Y393692D01*
X4330667D01*
X4356059Y368300D01*
Y342908D01*
X4254492D01*
X4508410Y444475D02*
Y292125D01*
X4432234D01*
X4406843Y317517D01*
Y368300D01*
X4432234Y393692D01*
X4508410D01*
X4660761Y292125D02*
X4559193D01*
X4660761Y393692D01*
Y419083D01*
X4635369Y444475D01*
X4584585D01*
X4559193Y419083D01*
X2133707Y444475D02*
X2032140D01*
Y292125D01*
X2133707D01*
X2032140Y368300D02*
X2082923D01*
X2184490Y292125D02*
Y393692D01*
X2260666D01*
X2286058Y368300D01*
Y292125D01*
X2336841Y444475D02*
Y292125D01*
Y368300D01*
X2362233Y393692D01*
X2413017D01*
X2438408Y368300D01*
Y292125D01*
X2565367D02*
X2514584D01*
X2489192Y317517D01*
Y368300D01*
X2514584Y393692D01*
X2565367D01*
X2590759Y368300D01*
Y342908D01*
X2489192D01*
X2743110Y444475D02*
Y292125D01*
X2666934D01*
X2641543Y317517D01*
Y368300D01*
X2666934Y393692D01*
X2743110D01*
X2793893Y419083D02*
X2819285Y444475D01*
X2870069D01*
X2895461Y419083D01*
Y393692D01*
X2870069Y368300D01*
X2844677D01*
X2870069D01*
X2895461Y342908D01*
Y317517D01*
X2870069Y292125D01*
X2819285D01*
X2793893Y317517D01*
D12*
X7709970Y1156770D02*
D03*
X8342830D02*
D03*
Y1789630D02*
D03*
X7709970D02*
D03*
X8026400Y1473200D02*
D03*
X7709970Y3391970D02*
D03*
X8342830D02*
D03*
Y4024830D02*
D03*
X7709970D02*
D03*
X8026400Y3708400D02*
D03*
D13*
X3822700Y4216400D02*
D03*
X2184400Y4229100D02*
D03*
X3848100Y685800D02*
D03*
X2108200Y723900D02*
D03*
X5765800Y1905000D02*
D03*
X2108200Y3479800D02*
D03*
X5689600Y3759200D02*
D03*
D14*
X4076700Y4216400D02*
D03*
X4330700D02*
D03*
X4584700D02*
D03*
X2438400Y4229100D02*
D03*
X2692400D02*
D03*
X2946400D02*
D03*
X4102100Y685800D02*
D03*
X4356100D02*
D03*
X4610100D02*
D03*
X2362200Y723900D02*
D03*
X2616200D02*
D03*
X2870200D02*
D03*
X5765800Y1651000D02*
D03*
X5765799Y1397000D02*
D03*
X5765800Y1143000D02*
D03*
X6527800Y1905000D02*
D03*
X6527800Y1651000D02*
D03*
X6527799Y1397000D02*
D03*
X6527800Y1143000D02*
D03*
X1854200Y3479800D02*
D03*
X2336800Y2311400D02*
D03*
X2590800D02*
D03*
X2844800D02*
D03*
X3098800D02*
D03*
X3352800D02*
D03*
X3606800D02*
D03*
X3860800D02*
D03*
X4114800D02*
D03*
X2336800Y3073400D02*
D03*
X2590800D02*
D03*
X2844800D02*
D03*
X3098800D02*
D03*
X3352800D02*
D03*
X3606800D02*
D03*
X3860800D02*
D03*
X5689600Y4013200D02*
D03*
X5943600Y3759200D02*
D03*
Y4013200D02*
D03*
X6197600Y3759200D02*
D03*
Y4013200D02*
D03*
D15*
X6858000Y1117600D02*
D03*
X6858000Y1625601D02*
D03*
X6273800Y685800D02*
D03*
X5765800D02*
D03*
X3238499Y3784600D02*
D03*
X2222500Y3784600D02*
D03*
X3077303Y1092769D02*
D03*
X2688497Y2031431D02*
D03*
X4495800Y1231900D02*
D03*
X3479800D02*
D03*
X4838701Y3797300D02*
D03*
X3822699Y3797300D02*
D03*
X3352800Y1879600D02*
D03*
X3860800D02*
D03*
Y3441700D02*
D03*
X3352800D02*
D03*
X4368800Y2082800D02*
D03*
X5384800D02*
D03*
D16*
X6702100Y2743200D02*
D03*
X4981900Y3251199D02*
D03*
D17*
X6448100Y2997200D02*
D03*
X6702100Y3251200D02*
D03*
X5235900Y2997200D02*
D03*
X4981900Y2743200D02*
D03*
D18*
X6045200Y2361900D02*
D03*
X5689600Y3124500D02*
D03*
D19*
X6045200D02*
D03*
X5689600Y2361900D02*
D03*
D20*
X4114800Y3073400D02*
D03*
D21*
X916950Y4109250D02*
D03*
X758150Y784750D02*
D03*
D22*
X5232400Y3556000D02*
D03*
X6858000Y2247900D02*
D03*
X4953000Y673100D02*
D03*
X1752600Y3759200D02*
D03*
X3505200Y3937000D02*
D03*
X3213100Y1384300D02*
D03*
X2565400Y1676400D02*
D03*
X2438400Y3479800D02*
D03*
%TF.MD5,6a0ce83441187d575cecf6c54422cf6c*%
M02*
